<svg width="1440" height="522" viewBox="0 0 1440 522" fill="none" xmlns="http://www.w3.org/2000/svg">
<g opacity="0.05">
<path d="M0.484375 -2.81836H41.5753V38.2726H0.484375V-2.81836Z" fill="white"/>
<path d="M0.484375 38.2726H41.5753V79.3635H0.484375V38.2726Z" fill="white"/>
<path d="M0.484375 79.3635H41.5753V120.454H0.484375V79.3635Z" fill="white"/>
<path d="M0.484375 120.454H41.5753V161.545H0.484375V120.454Z" fill="white"/>
<path d="M0.484375 161.545H41.5753V202.636H0.484375V161.545Z" fill="white"/>
<path d="M0.484375 202.636H41.5753V243.727H0.484375V202.636Z" fill="white"/>
<path d="M0.484375 243.727H41.5753V284.818H0.484375V243.727Z" fill="white"/>
<path d="M0.484375 284.818H41.5753V325.909H0.484375V284.818Z" fill="white"/>
<path d="M0.484375 325.909H41.5753V367H0.484375V325.909Z" fill="white"/>
<path d="M0.484375 367H41.5753V408.091H0.484375V367Z" fill="white"/>
<path d="M0.484375 408.091H41.5753V449.182H0.484375V408.091Z" fill="white"/>
<path d="M0.484375 449.182H41.5753V490.273H0.484375V449.182Z" fill="white"/>
<path d="M0.484375 490.273H41.5753V531.364H0.484375V490.273Z" fill="white"/>
<path d="M0.484375 531.364H41.5753V572.454H0.484375V531.364Z" fill="white"/>
<path d="M0.484375 572.454H41.5753V613.545H0.484375V572.454Z" fill="white"/>
<path d="M0.484375 613.545H41.5753V654.636H0.484375V613.545Z" fill="white"/>
<path d="M0.484375 654.636H41.5753V695.727H0.484375V654.636Z" fill="white"/>
<path d="M0.484375 695.727H41.5753V736.818H0.484375V695.727Z" fill="white"/>
<path d="M0.484375 736.818H41.5753V777.909H0.484375V736.818Z" fill="white"/>
<path d="M0.484375 777.909H41.5753V819H0.484375V777.909Z" fill="white"/>
<path d="M41.5753 -2.81836H82.6662V38.2726H41.5753V-2.81836Z" fill="white"/>
<path d="M41.5753 38.2726H82.6662V79.3635H41.5753V38.2726Z" fill="white"/>
<path d="M41.5753 79.3635H82.6662V120.454H41.5753V79.3635Z" fill="white"/>
<path d="M41.5753 120.454H82.6662V161.545H41.5753V120.454Z" fill="white"/>
<path d="M41.5753 161.545H82.6662V202.636H41.5753V161.545Z" fill="white"/>
<path d="M41.5753 202.636H82.6662V243.727H41.5753V202.636Z" fill="white"/>
<path d="M41.5753 243.727H82.6662V284.818H41.5753V243.727Z" fill="white"/>
<path d="M41.5753 284.818H82.6662V325.909H41.5753V284.818Z" fill="white"/>
<path d="M41.5753 325.909H82.6662V367H41.5753V325.909Z" fill="white"/>
<path d="M41.5753 367H82.6662V408.091H41.5753V367Z" fill="white"/>
<path d="M41.5753 408.091H82.6662V449.182H41.5753V408.091Z" fill="white"/>
<path d="M41.5753 449.182H82.6662V490.273H41.5753V449.182Z" fill="white"/>
<path d="M41.5753 490.273H82.6662V531.364H41.5753V490.273Z" fill="white"/>
<path d="M41.5753 531.364H82.6662V572.454H41.5753V531.364Z" fill="white"/>
<path d="M41.5753 572.454H82.6662V613.545H41.5753V572.454Z" fill="white"/>
<path d="M41.5753 613.545H82.6662V654.636H41.5753V613.545Z" fill="white"/>
<path d="M41.5753 654.636H82.6662V695.727H41.5753V654.636Z" fill="white"/>
<path d="M41.5753 695.727H82.6662V736.818H41.5753V695.727Z" fill="white"/>
<path d="M41.5753 736.818H82.6662V777.909H41.5753V736.818Z" fill="white"/>
<path d="M41.5753 777.909H82.6662V819H41.5753V777.909Z" fill="white"/>
<path d="M82.6662 -2.81836H123.757V38.2726H82.6662V-2.81836Z" fill="white"/>
<path d="M82.6662 38.2726H123.757V79.3635H82.6662V38.2726Z" fill="white"/>
<path d="M82.6662 79.3635H123.757V120.454H82.6662V79.3635Z" fill="white"/>
<path d="M82.6662 120.454H123.757V161.545H82.6662V120.454Z" fill="white"/>
<path d="M82.6662 161.545H123.757V202.636H82.6662V161.545Z" fill="white"/>
<path d="M82.6662 202.636H123.757V243.727H82.6662V202.636Z" fill="white"/>
<path d="M82.6662 243.727H123.757V284.818H82.6662V243.727Z" fill="white"/>
<path d="M82.6662 284.818H123.757V325.909H82.6662V284.818Z" fill="white"/>
<path d="M82.6662 325.909H123.757V367H82.6662V325.909Z" fill="white"/>
<path d="M82.6662 367H123.757V408.091H82.6662V367Z" fill="white"/>
<path d="M82.6662 408.091H123.757V449.182H82.6662V408.091Z" fill="white"/>
<path d="M82.6662 449.182H123.757V490.273H82.6662V449.182Z" fill="white"/>
<path d="M82.6662 490.273H123.757V531.364H82.6662V490.273Z" fill="white"/>
<path d="M82.6662 531.364H123.757V572.454H82.6662V531.364Z" fill="white"/>
<path d="M82.6662 572.454H123.757V613.545H82.6662V572.454Z" fill="white"/>
<path d="M82.6662 613.545H123.757V654.636H82.6662V613.545Z" fill="white"/>
<path d="M82.6662 654.636H123.757V695.727H82.6662V654.636Z" fill="white"/>
<path d="M82.6662 695.727H123.757V736.818H82.6662V695.727Z" fill="white"/>
<path d="M82.6662 736.818H123.757V777.909H82.6662V736.818Z" fill="white"/>
<path d="M82.6662 777.909H123.757V819H82.6662V777.909Z" fill="white"/>
<path d="M123.757 -2.81836H164.848V38.2726H123.757V-2.81836Z" fill="white"/>
<path d="M123.757 38.2726H164.848V79.3635H123.757V38.2726Z" fill="white"/>
<path d="M123.757 79.3635H164.848V120.454H123.757V79.3635Z" fill="white"/>
<path d="M123.757 120.454H164.848V161.545H123.757V120.454Z" fill="white"/>
<path d="M123.757 161.545H164.848V202.636H123.757V161.545Z" fill="white"/>
<path d="M123.757 202.636H164.848V243.727H123.757V202.636Z" fill="white"/>
<path d="M123.757 243.727H164.848V284.818H123.757V243.727Z" fill="white"/>
<path d="M123.757 284.818H164.848V325.909H123.757V284.818Z" fill="white"/>
<path d="M123.757 325.909H164.848V367H123.757V325.909Z" fill="white"/>
<path d="M123.757 367H164.848V408.091H123.757V367Z" fill="white"/>
<path d="M123.757 408.091H164.848V449.182H123.757V408.091Z" fill="white"/>
<path d="M123.757 449.182H164.848V490.273H123.757V449.182Z" fill="white"/>
<path d="M123.757 490.273H164.848V531.364H123.757V490.273Z" fill="white"/>
<path d="M123.757 531.364H164.848V572.454H123.757V531.364Z" fill="white"/>
<path d="M123.757 572.454H164.848V613.545H123.757V572.454Z" fill="white"/>
<path d="M123.757 613.545H164.848V654.636H123.757V613.545Z" fill="white"/>
<path d="M123.757 654.636H164.848V695.727H123.757V654.636Z" fill="white"/>
<path d="M123.757 695.727H164.848V736.818H123.757V695.727Z" fill="white"/>
<path d="M123.757 736.818H164.848V777.909H123.757V736.818Z" fill="white"/>
<path d="M123.757 777.909H164.848V819H123.757V777.909Z" fill="white"/>
<path d="M164.848 -2.81836H205.939V38.2726H164.848V-2.81836Z" fill="white"/>
<path d="M164.848 38.2726H205.939V79.3635H164.848V38.2726Z" fill="white"/>
<path d="M164.848 79.3635H205.939V120.454H164.848V79.3635Z" fill="white"/>
<path d="M164.848 120.454H205.939V161.545H164.848V120.454Z" fill="white"/>
<path d="M164.848 161.545H205.939V202.636H164.848V161.545Z" fill="white"/>
<path d="M164.848 202.636H205.939V243.727H164.848V202.636Z" fill="white"/>
<path d="M164.848 243.727H205.939V284.818H164.848V243.727Z" fill="white"/>
<path d="M164.848 284.818H205.939V325.909H164.848V284.818Z" fill="white"/>
<path d="M164.848 325.909H205.939V367H164.848V325.909Z" fill="white"/>
<path d="M164.848 367H205.939V408.091H164.848V367Z" fill="white"/>
<path d="M164.848 408.091H205.939V449.182H164.848V408.091Z" fill="white"/>
<path d="M164.848 449.182H205.939V490.273H164.848V449.182Z" fill="white"/>
<path d="M164.848 490.273H205.939V531.364H164.848V490.273Z" fill="white"/>
<path d="M164.848 531.364H205.939V572.454H164.848V531.364Z" fill="white"/>
<path d="M164.848 572.454H205.939V613.545H164.848V572.454Z" fill="white"/>
<path d="M164.848 613.545H205.939V654.636H164.848V613.545Z" fill="white"/>
<path d="M164.848 654.636H205.939V695.727H164.848V654.636Z" fill="white"/>
<path d="M164.848 695.727H205.939V736.818H164.848V695.727Z" fill="white"/>
<path d="M164.848 736.818H205.939V777.909H164.848V736.818Z" fill="white"/>
<path d="M164.848 777.909H205.939V819H164.848V777.909Z" fill="white"/>
<path d="M205.939 -2.81836H247.03V38.2726H205.939V-2.81836Z" fill="white"/>
<path d="M205.939 38.2726H247.03V79.3635H205.939V38.2726Z" fill="white"/>
<path d="M205.939 79.3635H247.03V120.454H205.939V79.3635Z" fill="white"/>
<path d="M205.939 120.454H247.03V161.545H205.939V120.454Z" fill="white"/>
<path d="M205.939 161.545H247.03V202.636H205.939V161.545Z" fill="white"/>
<path d="M205.939 202.636H247.03V243.727H205.939V202.636Z" fill="white"/>
<path d="M205.939 243.727H247.03V284.818H205.939V243.727Z" fill="white"/>
<path d="M205.939 284.818H247.03V325.909H205.939V284.818Z" fill="white"/>
<path d="M205.939 325.909H247.03V367H205.939V325.909Z" fill="white"/>
<path d="M205.939 367H247.03V408.091H205.939V367Z" fill="white"/>
<path d="M205.939 408.091H247.03V449.182H205.939V408.091Z" fill="white"/>
<path d="M205.939 449.182H247.03V490.273H205.939V449.182Z" fill="white"/>
<path d="M205.939 490.273H247.03V531.364H205.939V490.273Z" fill="white"/>
<path d="M205.939 531.364H247.03V572.454H205.939V531.364Z" fill="white"/>
<path d="M205.939 572.454H247.03V613.545H205.939V572.454Z" fill="white"/>
<path d="M205.939 613.545H247.03V654.636H205.939V613.545Z" fill="white"/>
<path d="M205.939 654.636H247.03V695.727H205.939V654.636Z" fill="white"/>
<path d="M205.939 695.727H247.03V736.818H205.939V695.727Z" fill="white"/>
<path d="M205.939 736.818H247.03V777.909H205.939V736.818Z" fill="white"/>
<path d="M205.939 777.909H247.03V819H205.939V777.909Z" fill="white"/>
<path d="M247.03 -2.81836H288.121V38.2726H247.03V-2.81836Z" fill="white"/>
<path d="M247.03 38.2726H288.121V79.3635H247.03V38.2726Z" fill="white"/>
<path d="M247.03 79.3635H288.121V120.454H247.03V79.3635Z" fill="white"/>
<path d="M247.03 120.454H288.121V161.545H247.03V120.454Z" fill="white"/>
<path d="M247.03 161.545H288.121V202.636H247.03V161.545Z" fill="white"/>
<path d="M247.03 202.636H288.121V243.727H247.03V202.636Z" fill="white"/>
<path d="M247.03 243.727H288.121V284.818H247.03V243.727Z" fill="white"/>
<path d="M247.03 325.909H288.121V367H247.03V325.909Z" fill="white"/>
<path d="M247.03 367H288.121V408.091H247.03V367Z" fill="white"/>
<path d="M247.03 408.091H288.121V449.182H247.03V408.091Z" fill="white"/>
<path d="M247.03 449.182H288.121V490.273H247.03V449.182Z" fill="white"/>
<path d="M247.03 490.273H288.121V531.364H247.03V490.273Z" fill="white"/>
<path d="M247.03 531.364H288.121V572.454H247.03V531.364Z" fill="white"/>
<path d="M247.03 572.454H288.121V613.545H247.03V572.454Z" fill="white"/>
<path d="M247.03 613.545H288.121V654.636H247.03V613.545Z" fill="white"/>
<path d="M247.03 654.636H288.121V695.727H247.03V654.636Z" fill="white"/>
<path d="M247.03 695.727H288.121V736.818H247.03V695.727Z" fill="white"/>
<path d="M247.03 736.818H288.121V777.909H247.03V736.818Z" fill="white"/>
<path d="M247.03 777.909H288.121V819H247.03V777.909Z" fill="white"/>
<path d="M288.121 -2.81836H329.212V38.2726H288.121V-2.81836Z" fill="white"/>
<path d="M288.121 38.2726H329.212V79.3635H288.121V38.2726Z" fill="white"/>
<path d="M288.121 79.3635H329.212V120.454H288.121V79.3635Z" fill="white"/>
<path d="M288.121 120.454H329.212V161.545H288.121V120.454Z" fill="white"/>
<path d="M288.121 161.545H329.212V202.636H288.121V161.545Z" fill="white"/>
<path d="M288.121 202.636H329.212V243.727H288.121V202.636Z" fill="white"/>
<path d="M288.121 243.727H329.212V284.818H288.121V243.727Z" fill="white"/>
<path d="M288.121 325.909H329.212V367H288.121V325.909Z" fill="white"/>
<path d="M288.121 367H329.212V408.091H288.121V367Z" fill="white"/>
<path d="M288.121 408.091H329.212V449.182H288.121V408.091Z" fill="white"/>
<path d="M288.121 449.182H329.212V490.273H288.121V449.182Z" fill="white"/>
<path d="M288.121 490.273H329.212V531.364H288.121V490.273Z" fill="white"/>
<path d="M288.121 531.364H329.212V572.454H288.121V531.364Z" fill="white"/>
<path d="M288.121 572.454H329.212V613.545H288.121V572.454Z" fill="white"/>
<path d="M288.121 613.545H329.212V654.636H288.121V613.545Z" fill="white"/>
<path d="M288.121 654.636H329.212V695.727H288.121V654.636Z" fill="white"/>
<path d="M288.121 695.727H329.212V736.818H288.121V695.727Z" fill="white"/>
<path d="M288.121 736.818H329.212V777.909H288.121V736.818Z" fill="white"/>
<path d="M288.121 777.909H329.212V819H288.121V777.909Z" fill="white"/>
<path d="M329.212 -2.81836H370.303V38.2726H329.212V-2.81836Z" fill="white"/>
<path d="M329.212 38.2726H370.303V79.3635H329.212V38.2726Z" fill="white"/>
<path d="M329.212 79.3635H370.303V120.454H329.212V79.3635Z" fill="white"/>
<path d="M329.212 120.454H370.303V161.545H329.212V120.454Z" fill="white"/>
<path d="M329.212 161.545H370.303V202.636H329.212V161.545Z" fill="white"/>
<path d="M329.212 202.636H370.303V243.727H329.212V202.636Z" fill="white"/>
<path d="M329.212 243.727H370.303V284.818H329.212V243.727Z" fill="white"/>
<path d="M329.212 284.818H370.303V325.909H329.212V284.818Z" fill="white"/>
<path d="M329.212 325.909H370.303V367H329.212V325.909Z" fill="white"/>
<path d="M329.212 367H370.303V408.091H329.212V367Z" fill="white"/>
<path d="M329.212 408.091H370.303V449.182H329.212V408.091Z" fill="white"/>
<path d="M329.212 449.182H370.303V490.273H329.212V449.182Z" fill="white"/>
<path d="M329.212 490.273H370.303C370.303 490.273 370.303 515.317 370.303 531.364C354.256 531.364 329.212 531.364 329.212 531.364V490.273Z" fill="white"/>
<path d="M329.212 531.364C329.212 531.364 354.256 531.364 370.303 531.364C370.303 547.411 370.303 572.454 370.303 572.454H329.212V531.364Z" fill="white"/>
<path d="M329.212 572.454H370.303V613.545H329.212V572.454Z" fill="white"/>
<path d="M329.212 613.545H370.303V654.636H329.212V613.545Z" fill="white"/>
<path d="M329.212 654.636H370.303V695.727H329.212V654.636Z" fill="white"/>
<path d="M329.212 695.727H370.303V736.818H329.212V695.727Z" fill="white"/>
<path d="M329.212 736.818H370.303V777.909H329.212V736.818Z" fill="white"/>
<path d="M329.212 777.909H370.303V819H329.212V777.909Z" fill="white"/>
<path d="M370.303 -2.81836H411.394V38.2726H370.303V-2.81836Z" fill="white"/>
<path d="M370.303 38.2726H411.394V79.3635H370.303V38.2726Z" fill="white"/>
<path d="M370.303 79.3635H411.394V120.454H370.303V79.3635Z" fill="white"/>
<path d="M370.303 120.454H411.394V161.545H370.303V120.454Z" fill="white"/>
<path d="M370.303 161.545H411.394V202.636H370.303V161.545Z" fill="white"/>
<path d="M370.303 202.636H411.394V243.727H370.303V202.636Z" fill="white"/>
<path d="M370.303 243.727H411.394V284.818H370.303V243.727Z" fill="white"/>
<path d="M370.303 284.818H411.394V325.909H370.303V284.818Z" fill="white"/>
<path d="M370.303 325.909H411.394V367H370.303V325.909Z" fill="white"/>
<path d="M370.303 367H411.394V408.091H370.303V367Z" fill="white"/>
<path d="M370.303 408.091H411.394V449.182H370.303V408.091Z" fill="white"/>
<path d="M370.303 449.182H411.394V490.273H370.303V449.182Z" fill="white"/>
<path d="M370.303 490.273H411.394V531.364C411.394 531.364 386.35 531.364 370.303 531.364C370.303 515.317 370.303 490.273 370.303 490.273Z" fill="white"/>
<path d="M370.303 531.364C386.35 531.364 411.394 531.364 411.394 531.364V572.454H370.303C370.303 572.454 370.303 547.411 370.303 531.364Z" fill="white"/>
<path d="M370.303 572.454H411.394V613.545H370.303V572.454Z" fill="white"/>
<path d="M370.303 613.545H411.394V654.636H370.303V613.545Z" fill="white"/>
<path d="M370.303 654.636H411.394V695.727H370.303V654.636Z" fill="white"/>
<path d="M370.303 695.727H411.394V736.818H370.303V695.727Z" fill="white"/>
<path d="M370.303 736.818H411.394V777.909H370.303V736.818Z" fill="white"/>
<path d="M370.303 777.909H411.394V819H370.303V777.909Z" fill="white"/>
<path d="M411.394 -2.81836H452.484V38.2726H411.394V-2.81836Z" fill="white"/>
<path d="M411.394 38.2726H452.484V79.3635H411.394V38.2726Z" fill="white"/>
<path d="M411.394 79.3635H452.484V120.454H411.394V79.3635Z" fill="white"/>
<path d="M411.394 120.454H452.484V161.545H411.394V120.454Z" fill="white"/>
<path d="M411.394 161.545H452.484V202.636H411.394V161.545Z" fill="white"/>
<path d="M411.394 202.636H452.484V243.727H411.394V202.636Z" fill="white"/>
<path d="M411.394 243.727H452.484V284.818H411.394V243.727Z" fill="white"/>
<path d="M411.394 284.818H452.484V325.909H411.394V284.818Z" fill="white"/>
<path d="M411.394 325.909H452.484V367H411.394V325.909Z" fill="white"/>
<path d="M411.394 367H452.484V408.091H411.394V367Z" fill="white"/>
<path d="M411.394 408.091H452.484V449.182H411.394V408.091Z" fill="white"/>
<path d="M411.394 449.182H452.484V490.273H411.394V449.182Z" fill="white"/>
<path d="M411.394 490.273H452.484V531.364H411.394V490.273Z" fill="white"/>
<path d="M411.394 531.364H452.484V572.454H411.394V531.364Z" fill="white"/>
<path d="M411.394 572.454H452.484V613.545H411.394V572.454Z" fill="white"/>
<path d="M411.394 613.545H452.484V654.636H411.394V613.545Z" fill="white"/>
<path d="M411.394 654.636H452.484V695.727H411.394V654.636Z" fill="white"/>
<path d="M411.394 695.727H452.484V736.818H411.394V695.727Z" fill="white"/>
<path d="M411.394 736.818H452.484V777.909H411.394V736.818Z" fill="white"/>
<path d="M411.394 777.909H452.484V819H411.394V777.909Z" fill="white"/>
<path d="M452.484 -2.81836H493.575V38.2726H452.484V-2.81836Z" fill="white"/>
<path d="M452.484 38.2726H493.575V79.3635H452.484V38.2726Z" fill="white"/>
<path d="M452.484 79.3635H493.575V120.454H452.484V79.3635Z" fill="white"/>
<path d="M452.484 243.727H493.575V284.818H452.484V243.727Z" fill="white"/>
<path d="M452.484 284.818H493.575V325.909H452.484V284.818Z" fill="white"/>
<path d="M452.484 325.909H493.575V367H452.484V325.909Z" fill="white"/>
<path d="M452.484 367H493.575V408.091H452.484V367Z" fill="white"/>
<path d="M452.484 408.091H493.575V449.182H452.484V408.091Z" fill="white"/>
<path d="M452.484 449.182H493.575V490.273H452.484V449.182Z" fill="white"/>
<path d="M452.484 490.273H493.575V531.364H452.484V490.273Z" fill="white"/>
<path d="M452.484 531.364H493.575V572.454H452.484V531.364Z" fill="white"/>
<path d="M452.484 572.454H493.575V613.545H452.484V572.454Z" fill="white"/>
<path d="M452.484 613.545H493.575V654.636H452.484V613.545Z" fill="white"/>
<path d="M452.484 654.636H493.575V695.727H452.484V654.636Z" fill="white"/>
<path d="M452.484 695.727H493.575V736.818H452.484V695.727Z" fill="white"/>
<path d="M452.484 736.818H493.575V777.909H452.484V736.818Z" fill="white"/>
<path d="M452.484 777.909H493.575V819H452.484V777.909Z" fill="white"/>
<path d="M493.575 -2.81836H534.666V38.2726H493.575V-2.81836Z" fill="white"/>
<path d="M493.575 38.2726H534.666V79.3635H493.575V38.2726Z" fill="white"/>
<path d="M493.575 79.3635H534.666V120.454H493.575V79.3635Z" fill="white"/>
<path d="M493.575 243.727H534.666V284.818H493.575V243.727Z" fill="white"/>
<path d="M493.575 284.818H534.666V325.909H493.575V284.818Z" fill="white"/>
<path d="M493.575 325.909H534.666V367H493.575V325.909Z" fill="white"/>
<path d="M493.575 367H534.666V408.091H493.575V367Z" fill="white"/>
<path d="M493.575 408.091H534.666V449.182H493.575V408.091Z" fill="white"/>
<path d="M493.575 449.182H534.666V490.273H493.575V449.182Z" fill="white"/>
<path d="M493.575 490.273H534.666V531.364H493.575V490.273Z" fill="white"/>
<path d="M493.575 531.364H534.666V572.454H493.575V531.364Z" fill="white"/>
<path d="M493.575 572.454H534.666V613.545H493.575V572.454Z" fill="white"/>
<path d="M493.575 613.545H534.666V654.636H493.575V613.545Z" fill="white"/>
<path d="M493.575 654.636H534.666V695.727H493.575V654.636Z" fill="white"/>
<path d="M493.575 695.727H534.666V736.818H493.575V695.727Z" fill="white"/>
<path d="M493.575 736.818H534.666V777.909H493.575V736.818Z" fill="white"/>
<path d="M493.575 777.909H534.666V819H493.575V777.909Z" fill="white"/>
<path d="M534.666 -2.81836H575.757V38.2726H534.666V-2.81836Z" fill="white"/>
<path d="M534.666 38.2726H575.757V79.3635H534.666V38.2726Z" fill="white"/>
<path d="M534.666 79.3635H575.757V120.454H534.666V79.3635Z" fill="white"/>
<path d="M534.666 243.727H575.757V284.818H534.666V243.727Z" fill="white"/>
<path d="M534.666 284.818H575.757V325.909H534.666V284.818Z" fill="white"/>
<path d="M534.666 325.909H575.757V367H534.666V325.909Z" fill="white"/>
<path d="M534.666 367H575.757V408.091H534.666V367Z" fill="white"/>
<path d="M534.666 408.091H575.757V449.182H534.666V408.091Z" fill="white"/>
<path d="M534.666 449.182H575.757V490.273H534.666V449.182Z" fill="white"/>
<path d="M534.666 490.273H575.757V531.364H534.666V490.273Z" fill="white"/>
<path d="M534.666 531.364H575.757V572.454H534.666V531.364Z" fill="white"/>
<path d="M534.666 572.454H575.757V613.545H534.666V572.454Z" fill="white"/>
<path d="M534.666 613.545H575.757V654.636H534.666V613.545Z" fill="white"/>
<path d="M534.666 654.636H575.757V695.727H534.666V654.636Z" fill="white"/>
<path d="M534.666 695.727H575.757V736.818H534.666V695.727Z" fill="white"/>
<path d="M534.666 736.818H575.757V777.909H534.666V736.818Z" fill="white"/>
<path d="M534.666 777.909H575.757V819H534.666V777.909Z" fill="white"/>
<path d="M575.757 -2.81836H616.848V38.2726H575.757V-2.81836Z" fill="white"/>
<path d="M575.757 38.2726H616.848V79.3635H575.757V38.2726Z" fill="white"/>
<path d="M575.757 79.3635H616.848V120.454H575.757V79.3635Z" fill="white"/>
<path d="M575.757 325.909H616.848V367H575.757V325.909Z" fill="white"/>
<path d="M575.757 367H616.848V408.091H575.757V367Z" fill="white"/>
<path d="M575.757 408.091H616.848V449.182H575.757V408.091Z" fill="white"/>
<path d="M575.757 449.182H616.848V490.273H575.757V449.182Z" fill="white"/>
<path d="M575.757 490.273H616.848V531.364H575.757V490.273Z" fill="white"/>
<path d="M575.757 531.364H616.848V572.454H575.757V531.364Z" fill="white"/>
<path d="M575.757 572.454H616.848V613.545H575.757V572.454Z" fill="white"/>
<path d="M575.757 613.545H616.848V654.636H575.757V613.545Z" fill="white"/>
<path d="M575.757 654.636H616.848V695.727H575.757V654.636Z" fill="white"/>
<path d="M575.757 695.727H616.848V736.818H575.757V695.727Z" fill="white"/>
<path d="M575.757 736.818H616.848V777.909H575.757V736.818Z" fill="white"/>
<path d="M575.757 777.909H616.848V819H575.757V777.909Z" fill="white"/>
<path d="M616.848 -2.81836H657.939V38.2726H616.848V-2.81836Z" fill="white"/>
<path d="M616.848 38.2726H657.939V79.3635H616.848V38.2726Z" fill="white"/>
<path d="M616.848 79.3635H657.939V120.454H616.848V79.3635Z" fill="white"/>
<path d="M616.848 325.909H657.939V367H616.848V325.909Z" fill="white"/>
<path d="M616.848 367H657.939V408.091H616.848V367Z" fill="white"/>
<path d="M616.848 408.091H657.939V449.182H616.848V408.091Z" fill="white"/>
<path d="M616.848 449.182H657.939V490.273H616.848V449.182Z" fill="white"/>
<path d="M616.848 490.273H657.939V531.364H616.848V490.273Z" fill="white"/>
<path d="M616.848 531.364H657.939V572.454H616.848V531.364Z" fill="white"/>
<path d="M616.848 572.454H657.939V613.545H616.848V572.454Z" fill="white"/>
<path d="M616.848 613.545H657.939V654.636H616.848V613.545Z" fill="white"/>
<path d="M616.848 654.636H657.939V695.727H616.848V654.636Z" fill="white"/>
<path d="M616.848 695.727H657.939V736.818H616.848V695.727Z" fill="white"/>
<path d="M616.848 736.818H657.939V777.909H616.848V736.818Z" fill="white"/>
<path d="M616.848 777.909H657.939V819H616.848V777.909Z" fill="white"/>
<path d="M657.939 -2.81836H699.03V38.2726H657.939V-2.81836Z" fill="white"/>
<path d="M657.939 38.2726H699.03V79.3635H657.939V38.2726Z" fill="white"/>
<path d="M657.939 79.3635H699.03V120.454H657.939V79.3635Z" fill="white"/>
<path d="M657.939 325.909H699.03V367H657.939V325.909Z" fill="white"/>
<path d="M657.939 367H699.03V408.091H657.939V367Z" fill="white"/>
<path d="M657.939 408.091H699.03V449.182H657.939V408.091Z" fill="white"/>
<path d="M657.939 449.182H699.03V490.273H657.939V449.182Z" fill="white"/>
<path d="M657.939 490.273H699.03V531.364H657.939V490.273Z" fill="white"/>
<path d="M657.939 531.364H699.03V572.454H657.939V531.364Z" fill="white"/>
<path d="M657.939 572.454H699.03V613.545H657.939V572.454Z" fill="white"/>
<path d="M657.939 613.545H699.03V654.636H657.939V613.545Z" fill="white"/>
<path d="M657.939 654.636H699.03V695.727H657.939V654.636Z" fill="white"/>
<path d="M657.939 695.727H699.03V736.818H657.939V695.727Z" fill="white"/>
<path d="M657.939 736.818H699.03V777.909H657.939V736.818Z" fill="white"/>
<path d="M657.939 777.909H699.03V819H657.939V777.909Z" fill="white"/>
<path d="M699.03 -2.81836H740.121V38.2726H699.03V-2.81836Z" fill="white"/>
<path d="M699.03 38.2726H740.121V79.3635H699.03V38.2726Z" fill="white"/>
<path d="M699.03 79.3635H740.121V120.454H699.03V79.3635Z" fill="white"/>
<path d="M699.03 325.909H740.121V367H699.03V325.909Z" fill="white"/>
<path d="M699.03 367H740.121V408.091H699.03V367Z" fill="white"/>
<path d="M699.03 408.091H740.121V449.182H699.03V408.091Z" fill="white"/>
<path d="M699.03 449.182H740.121V490.273H699.03V449.182Z" fill="white"/>
<path d="M699.03 490.273H740.121V531.364H699.03V490.273Z" fill="white"/>
<path d="M699.03 531.364H740.121V572.454H699.03V531.364Z" fill="white"/>
<path d="M699.03 572.454H740.121V613.545H699.03V572.454Z" fill="white"/>
<path d="M699.03 613.545H740.121V654.636H699.03V613.545Z" fill="white"/>
<path d="M699.03 654.636H740.121V695.727H699.03V654.636Z" fill="white"/>
<path d="M699.03 695.727H740.121V736.818H699.03V695.727Z" fill="white"/>
<path d="M699.03 736.818H740.121V777.909H699.03V736.818Z" fill="white"/>
<path d="M699.03 777.909H740.121V819H699.03V777.909Z" fill="white"/>
<path d="M740.121 -2.81836H781.212V38.2726H740.121V-2.81836Z" fill="white"/>
<path d="M740.121 38.2726H781.212V79.3635H740.121V38.2726Z" fill="white"/>
<path d="M740.121 79.3635H781.212V120.454H740.121V79.3635Z" fill="white"/>
<path d="M740.121 325.909H781.212V367H740.121V325.909Z" fill="white"/>
<path d="M740.121 367H781.212V408.091H740.121V367Z" fill="white"/>
<path d="M740.121 408.091H781.212V449.182H740.121V408.091Z" fill="white"/>
<path d="M740.121 449.182H781.212V490.273H740.121V449.182Z" fill="white"/>
<path d="M740.121 490.273H781.212V531.364H740.121V490.273Z" fill="white"/>
<path d="M740.121 531.364H781.212V572.454H740.121V531.364Z" fill="white"/>
<path d="M740.121 572.454H781.212V613.545H740.121V572.454Z" fill="white"/>
<path d="M740.121 613.545H781.212V654.636H740.121V613.545Z" fill="white"/>
<path d="M740.121 654.636H781.212V695.727H740.121V654.636Z" fill="white"/>
<path d="M740.121 695.727H781.212V736.818H740.121V695.727Z" fill="white"/>
<path d="M740.121 736.818H781.212V777.909H740.121V736.818Z" fill="white"/>
<path d="M740.121 777.909H781.212V819H740.121V777.909Z" fill="white"/>
<path d="M781.212 -2.81836H822.303V38.2726H781.212V-2.81836Z" fill="white"/>
<path d="M781.212 38.2726H822.303V79.3635H781.212V38.2726Z" fill="white"/>
<path d="M781.212 79.3635H822.303V120.454H781.212V79.3635Z" fill="white"/>
<path d="M781.212 325.909H822.303V367H781.212V325.909Z" fill="white"/>
<path d="M781.212 367H822.303V408.091H781.212V367Z" fill="white"/>
<path d="M781.212 408.091H822.303V449.182H781.212V408.091Z" fill="white"/>
<path d="M781.212 449.182H822.303V490.273H781.212V449.182Z" fill="white"/>
<path d="M781.212 490.273H822.303V531.364H781.212V490.273Z" fill="white"/>
<path d="M781.212 531.364H822.303V572.454H781.212V531.364Z" fill="white"/>
<path d="M781.212 572.454H822.303V613.545H781.212V572.454Z" fill="white"/>
<path d="M781.212 613.545H822.303V654.636H781.212V613.545Z" fill="white"/>
<path d="M781.212 654.636H822.303V695.727H781.212V654.636Z" fill="white"/>
<path d="M781.212 695.727H822.303V736.818H781.212V695.727Z" fill="white"/>
<path d="M781.212 736.818H822.303V777.909H781.212V736.818Z" fill="white"/>
<path d="M781.212 777.909H822.303V819H781.212V777.909Z" fill="white"/>
<path d="M822.303 -2.81836H863.394V38.2726H822.303V-2.81836Z" fill="white"/>
<path d="M822.303 79.3635H863.394V120.454H822.303V79.3635Z" fill="white"/>
<path d="M822.303 325.909H863.394V367H822.303V325.909Z" fill="white"/>
<path d="M822.303 367H863.394V408.091H822.303V367Z" fill="white"/>
<path d="M822.303 408.091H863.394V449.182H822.303V408.091Z" fill="white"/>
<path d="M822.303 449.182H863.394V490.273H822.303V449.182Z" fill="white"/>
<path d="M822.303 490.273H863.394V531.364H822.303V490.273Z" fill="white"/>
<path d="M822.303 531.364H863.394V572.454H822.303V531.364Z" fill="white"/>
<path d="M822.303 572.454H863.394V613.545H822.303V572.454Z" fill="white"/>
<path d="M822.303 613.545H863.394V654.636H822.303V613.545Z" fill="white"/>
<path d="M822.303 654.636H863.394V695.727H822.303V654.636Z" fill="white"/>
<path d="M822.303 695.727H863.394V736.818H822.303V695.727Z" fill="white"/>
<path d="M822.303 736.818H863.394V777.909H822.303V736.818Z" fill="white"/>
<path d="M822.303 777.909H863.394V819H822.303V777.909Z" fill="white"/>
<path d="M863.394 -2.81836H904.485V38.2726H863.394V-2.81836Z" fill="white"/>
<path d="M863.394 79.3635H904.485V120.454H863.394V79.3635Z" fill="white"/>
<path d="M863.394 325.909H904.485V367H863.394V325.909Z" fill="white"/>
<path d="M863.394 367H904.485V408.091H863.394V367Z" fill="white"/>
<path d="M863.394 408.091H904.485V449.182H863.394V408.091Z" fill="white"/>
<path d="M863.394 449.182H904.485V490.273H863.394V449.182Z" fill="white"/>
<path d="M863.394 490.273H904.485V531.364H863.394V490.273Z" fill="white"/>
<path d="M863.394 531.364H904.485V572.454H863.394V531.364Z" fill="white"/>
<path d="M863.394 572.454H904.485V613.545H863.394V572.454Z" fill="white"/>
<path d="M863.394 613.545H904.485V654.636H863.394V613.545Z" fill="white"/>
<path d="M863.394 654.636H904.485V695.727H863.394V654.636Z" fill="white"/>
<path d="M863.394 695.727H904.485V736.818H863.394V695.727Z" fill="white"/>
<path d="M863.394 736.818H904.485V777.909H863.394V736.818Z" fill="white"/>
<path d="M863.394 777.909H904.485V819H863.394V777.909Z" fill="white"/>
<path d="M904.485 -2.81836H945.576V38.2726H904.485V-2.81836Z" fill="white"/>
<path d="M904.485 79.3635H945.576V120.454H904.485V79.3635Z" fill="white"/>
<path d="M904.485 325.909H945.576V367H904.485V325.909Z" fill="white"/>
<path d="M904.485 367H945.576V408.091H904.485V367Z" fill="white"/>
<path d="M904.485 408.091H945.576V449.182H904.485V408.091Z" fill="white"/>
<path d="M904.485 449.182H945.576V490.273H904.485V449.182Z" fill="white"/>
<path d="M904.485 490.273H945.576V531.364H904.485V490.273Z" fill="white"/>
<path d="M904.485 531.364H945.576V572.454H904.485V531.364Z" fill="white"/>
<path d="M904.485 572.454H945.576V613.545H904.485V572.454Z" fill="white"/>
<path d="M904.485 613.545H945.576V654.636H904.485V613.545Z" fill="white"/>
<path d="M904.485 654.636H945.576V695.727H904.485V654.636Z" fill="white"/>
<path d="M904.485 695.727H945.576V736.818H904.485V695.727Z" fill="white"/>
<path d="M904.485 736.818H945.576V777.909H904.485V736.818Z" fill="white"/>
<path d="M904.485 777.909H945.576V819H904.485V777.909Z" fill="white"/>
<path d="M945.576 -2.81836H986.666V38.2726H945.576V-2.81836Z" fill="white"/>
<path d="M945.576 79.3635H986.666V120.454H945.576V79.3635Z" fill="white"/>
<path d="M945.576 325.909H986.666V367H945.576V325.909Z" fill="white"/>
<path d="M945.576 367H986.666V408.091H945.576V367Z" fill="white"/>
<path d="M945.576 408.091H986.666V449.182H945.576V408.091Z" fill="white"/>
<path d="M945.576 449.182H986.666V490.273H945.576V449.182Z" fill="white"/>
<path d="M945.576 490.273H986.666V531.364H945.576V490.273Z" fill="white"/>
<path d="M945.576 531.364H986.666V572.454H945.576V531.364Z" fill="white"/>
<path d="M945.576 572.454H986.666V613.545H945.576V572.454Z" fill="white"/>
<path d="M945.576 613.545H986.666V654.636H945.576V613.545Z" fill="white"/>
<path d="M945.576 654.636H986.666V695.727H945.576V654.636Z" fill="white"/>
<path d="M945.576 695.727H986.666V736.818H945.576V695.727Z" fill="white"/>
<path d="M945.576 736.818H986.666V777.909H945.576V736.818Z" fill="white"/>
<path d="M945.576 777.909H986.666V819H945.576V777.909Z" fill="white"/>
<path d="M986.666 -2.81836H1027.76V38.2726H986.666V-2.81836Z" fill="white"/>
<path d="M986.666 79.3635H1027.76V120.454H986.666V79.3635Z" fill="white"/>
<path d="M986.666 325.909H1027.76V367H986.666V325.909Z" fill="white"/>
<path d="M986.666 367H1027.76V408.091H986.666V367Z" fill="white"/>
<path d="M986.666 408.091H1027.76V449.182H986.666V408.091Z" fill="white"/>
<path d="M986.666 449.182H1027.76V490.273H986.666V449.182Z" fill="white"/>
<path d="M986.666 490.273H1027.76V531.364H986.666V490.273Z" fill="white"/>
<path d="M986.666 531.364H1027.76V572.454H986.666V531.364Z" fill="white"/>
<path d="M986.666 572.454H1027.76V613.545H986.666V572.454Z" fill="white"/>
<path d="M986.666 613.545H1027.76V654.636H986.666V613.545Z" fill="white"/>
<path d="M986.666 654.636H1027.76V695.727H986.666V654.636Z" fill="white"/>
<path d="M986.666 695.727H1027.76V736.818H986.666V695.727Z" fill="white"/>
<path d="M986.666 736.818H1027.76V777.909H986.666V736.818Z" fill="white"/>
<path d="M986.666 777.909H1027.76V819H986.666V777.909Z" fill="white"/>
<path d="M1027.76 -2.81836H1068.85V38.2726H1027.76V-2.81836Z" fill="white"/>
<path d="M1027.76 38.2726H1068.85V79.3635H1027.76V38.2726Z" fill="white"/>
<path d="M1027.76 79.3635H1068.85V120.454H1027.76V79.3635Z" fill="white"/>
<path d="M1027.76 325.909H1068.85V367H1027.76V325.909Z" fill="white"/>
<path d="M1027.76 367H1068.85V408.091H1027.76V367Z" fill="white"/>
<path d="M1027.76 408.091H1068.85V449.182H1027.76V408.091Z" fill="white"/>
<path d="M1027.76 449.182H1068.85V490.273H1027.76V449.182Z" fill="white"/>
<path d="M1027.76 490.273H1068.85V531.364H1027.76V490.273Z" fill="white"/>
<path d="M1027.76 531.364H1068.85V572.454H1027.76V531.364Z" fill="white"/>
<path d="M1027.76 572.454H1068.85V613.545H1027.76V572.454Z" fill="white"/>
<path d="M1027.76 613.545H1068.85V654.636H1027.76V613.545Z" fill="white"/>
<path d="M1027.76 654.636H1068.85V695.727H1027.76V654.636Z" fill="white"/>
<path d="M1027.76 695.727H1068.85V736.818H1027.76V695.727Z" fill="white"/>
<path d="M1027.76 736.818H1068.85V777.909H1027.76V736.818Z" fill="white"/>
<path d="M1027.76 777.909H1068.85V819H1027.76V777.909Z" fill="white"/>
<path d="M1068.85 -2.81836H1109.94V38.2726H1068.85V-2.81836Z" fill="white"/>
<path d="M1068.85 38.2726H1109.94V79.3635H1068.85V38.2726Z" fill="white"/>
<path d="M1068.85 79.3635H1109.94V120.454H1068.85V79.3635Z" fill="white"/>
<path d="M1068.85 325.909H1109.94V367H1068.85V325.909Z" fill="white"/>
<path d="M1068.85 367H1109.94V408.091H1068.85V367Z" fill="white"/>
<path d="M1068.85 408.091H1109.94V449.182H1068.85V408.091Z" fill="white"/>
<path d="M1068.85 449.182H1109.94V490.273H1068.85V449.182Z" fill="white"/>
<path d="M1068.85 490.273H1109.94V531.364H1068.85V490.273Z" fill="white"/>
<path d="M1068.85 531.364H1109.94V572.454H1068.85V531.364Z" fill="white"/>
<path d="M1068.85 572.454H1109.94V613.545H1068.85V572.454Z" fill="white"/>
<path d="M1068.85 613.545H1109.94V654.636H1068.85V613.545Z" fill="white"/>
<path d="M1068.85 654.636H1109.94V695.727H1068.85V654.636Z" fill="white"/>
<path d="M1068.85 695.727H1109.94V736.818H1068.85V695.727Z" fill="white"/>
<path d="M1068.85 736.818H1109.94V777.909H1068.85V736.818Z" fill="white"/>
<path d="M1068.85 777.909H1109.94V819H1068.85V777.909Z" fill="white"/>
<path d="M1109.94 -2.81836H1151.03V38.2726H1109.94V-2.81836Z" fill="white"/>
<path d="M1109.94 38.2726H1151.03V79.3635H1109.94V38.2726Z" fill="white"/>
<path d="M1109.94 79.3635H1151.03V120.454H1109.94V79.3635Z" fill="white"/>
<path d="M1109.94 325.909H1151.03V367H1109.94V325.909Z" fill="white"/>
<path d="M1109.94 367H1151.03V408.091H1109.94V367Z" fill="white"/>
<path d="M1109.94 408.091H1151.03V449.182H1109.94V408.091Z" fill="white"/>
<path d="M1109.94 449.182H1151.03V490.273H1109.94V449.182Z" fill="white"/>
<path d="M1109.94 490.273H1151.03V531.364H1109.94V490.273Z" fill="white"/>
<path d="M1109.94 531.364H1151.03V572.454H1109.94V531.364Z" fill="white"/>
<path d="M1109.94 572.454H1151.03V613.545H1109.94V572.454Z" fill="white"/>
<path d="M1109.94 613.545H1151.03V654.636H1109.94V613.545Z" fill="white"/>
<path d="M1109.94 654.636H1151.03V695.727H1109.94V654.636Z" fill="white"/>
<path d="M1109.94 695.727H1151.03V736.818H1109.94V695.727Z" fill="white"/>
<path d="M1109.94 736.818H1151.03V777.909H1109.94V736.818Z" fill="white"/>
<path d="M1109.94 777.909H1151.03V819H1109.94V777.909Z" fill="white"/>
<path d="M1151.03 -2.81836H1192.12V38.2726H1151.03V-2.81836Z" fill="white"/>
<path d="M1151.03 38.2726H1192.12V79.3635H1151.03V38.2726Z" fill="white"/>
<path d="M1151.03 79.3635H1192.12V120.454H1151.03V79.3635Z" fill="white"/>
<path d="M1151.03 325.909H1192.12V367H1151.03V325.909Z" fill="white"/>
<path d="M1151.03 367H1192.12V408.091H1151.03V367Z" fill="white"/>
<path d="M1151.03 408.091H1192.12V449.182H1151.03V408.091Z" fill="white"/>
<path d="M1151.03 449.182H1192.12V490.273H1151.03V449.182Z" fill="white"/>
<path d="M1151.03 490.273H1192.12V531.364H1151.03V490.273Z" fill="white"/>
<path d="M1151.03 531.364H1192.12V572.454H1151.03V531.364Z" fill="white"/>
<path d="M1151.03 572.454H1192.12V613.545H1151.03V572.454Z" fill="white"/>
<path d="M1151.03 613.545H1192.12V654.636H1151.03V613.545Z" fill="white"/>
<path d="M1151.03 654.636H1192.12V695.727H1151.03V654.636Z" fill="white"/>
<path d="M1151.03 695.727H1192.12V736.818H1151.03V695.727Z" fill="white"/>
<path d="M1151.03 736.818H1192.12V777.909H1151.03V736.818Z" fill="white"/>
<path d="M1151.03 777.909H1192.12V819H1151.03V777.909Z" fill="white"/>
<path d="M1192.12 -2.81836H1233.21V38.2726H1192.12V-2.81836Z" fill="white"/>
<path d="M1192.12 38.2726H1233.21V79.3635H1192.12V38.2726Z" fill="white"/>
<path d="M1192.12 79.3635H1233.21V120.454H1192.12V79.3635Z" fill="white"/>
<path d="M1192.12 325.909H1233.21V367H1192.12V325.909Z" fill="white"/>
<path d="M1192.12 367H1233.21V408.091H1192.12V367Z" fill="white"/>
<path d="M1192.12 408.091H1233.21V449.182H1192.12V408.091Z" fill="white"/>
<path d="M1192.12 449.182H1233.21V490.273H1192.12V449.182Z" fill="white"/>
<path d="M1192.12 490.273H1233.21V531.364H1192.12V490.273Z" fill="white"/>
<path d="M1192.12 531.364H1233.21V572.454H1192.12V531.364Z" fill="white"/>
<path d="M1192.12 572.454H1233.21V613.545H1192.12V572.454Z" fill="white"/>
<path d="M1192.12 613.545H1233.21V654.636H1192.12V613.545Z" fill="white"/>
<path d="M1192.12 654.636H1233.21V695.727H1192.12V654.636Z" fill="white"/>
<path d="M1192.12 695.727H1233.21V736.818H1192.12V695.727Z" fill="white"/>
<path d="M1192.12 736.818H1233.21V777.909H1192.12V736.818Z" fill="white"/>
<path d="M1192.12 777.909H1233.21V819H1192.12V777.909Z" fill="white"/>
<path d="M1233.21 -2.81836H1274.3V38.2726H1233.21V-2.81836Z" fill="white"/>
<path d="M1233.21 38.2726H1274.3V79.3635H1233.21V38.2726Z" fill="white"/>
<path d="M1233.21 79.3635H1274.3V120.454H1233.21V79.3635Z" fill="white"/>
<path d="M1233.21 243.727H1274.3V284.818H1233.21V243.727Z" fill="white"/>
<path d="M1233.21 284.818H1274.3V325.909H1233.21V284.818Z" fill="white"/>
<path d="M1233.21 325.909H1274.3V367H1233.21V325.909Z" fill="white"/>
<path d="M1233.21 367H1274.3V408.091H1233.21V367Z" fill="white"/>
<path d="M1233.21 408.091H1274.3V449.182H1233.21V408.091Z" fill="white"/>
<path d="M1233.21 449.182H1274.3V490.273H1233.21V449.182Z" fill="white"/>
<path d="M1233.21 490.273H1274.3V531.364H1233.21V490.273Z" fill="white"/>
<path d="M1233.21 531.364H1274.3V572.454H1233.21V531.364Z" fill="white"/>
<path d="M1233.21 572.454H1274.3V613.545H1233.21V572.454Z" fill="white"/>
<path d="M1233.21 613.545H1274.3V654.636H1233.21V613.545Z" fill="white"/>
<path d="M1233.21 654.636H1274.3V695.727H1233.21V654.636Z" fill="white"/>
<path d="M1233.21 695.727H1274.3V736.818H1233.21V695.727Z" fill="white"/>
<path d="M1233.21 736.818H1274.3V777.909H1233.21V736.818Z" fill="white"/>
<path d="M1233.21 777.909H1274.3V819H1233.21V777.909Z" fill="white"/>
<path d="M1274.3 -2.81836H1315.39V38.2726H1274.3V-2.81836Z" fill="white"/>
<path d="M1274.3 38.2726H1315.39V79.3635H1274.3V38.2726Z" fill="white"/>
<path d="M1274.3 79.3635H1315.39V120.454H1274.3V79.3635Z" fill="white"/>
<path d="M1274.3 243.727H1315.39V284.818H1274.3V243.727Z" fill="white"/>
<path d="M1274.3 284.818H1315.39V325.909H1274.3V284.818Z" fill="white"/>
<path d="M1274.3 325.909H1315.39V367H1274.3V325.909Z" fill="white"/>
<path d="M1274.3 367H1315.39V408.091H1274.3V367Z" fill="white"/>
<path d="M1274.3 408.091H1315.39V449.182H1274.3V408.091Z" fill="white"/>
<path d="M1274.3 449.182H1315.39V490.273H1274.3V449.182Z" fill="white"/>
<path d="M1274.3 490.273H1315.39V531.364H1274.3V490.273Z" fill="white"/>
<path d="M1274.3 531.364H1315.39V572.454H1274.3V531.364Z" fill="white"/>
<path d="M1274.3 572.454H1315.39V613.545H1274.3V572.454Z" fill="white"/>
<path d="M1274.3 613.545H1315.39V654.636H1274.3V613.545Z" fill="white"/>
<path d="M1274.3 654.636H1315.39V695.727H1274.3V654.636Z" fill="white"/>
<path d="M1274.3 695.727H1315.39V736.818H1274.3V695.727Z" fill="white"/>
<path d="M1274.3 736.818H1315.39V777.909H1274.3V736.818Z" fill="white"/>
<path d="M1274.3 777.909H1315.39V819H1274.3V777.909Z" fill="white"/>
<path d="M1315.39 -2.81836H1356.48V38.2726H1315.39V-2.81836Z" fill="white"/>
<path d="M1315.39 38.2726H1356.48V79.3635H1315.39V38.2726Z" fill="white"/>
<path d="M1315.39 79.3635H1356.48V120.454H1315.39V79.3635Z" fill="white"/>
<path d="M1315.39 243.727H1356.48V284.818H1315.39V243.727Z" fill="white"/>
<path d="M1315.39 284.818H1356.48V325.909H1315.39V284.818Z" fill="white"/>
<path d="M1315.39 325.909H1356.48V367H1315.39V325.909Z" fill="white"/>
<path d="M1315.39 367H1356.48V408.091H1315.39V367Z" fill="white"/>
<path d="M1315.39 408.091H1356.48V449.182H1315.39V408.091Z" fill="white"/>
<path d="M1315.39 449.182H1356.48V490.273H1315.39V449.182Z" fill="white"/>
<path d="M1315.39 490.273H1356.48V531.364H1315.39V490.273Z" fill="white"/>
<path d="M1315.39 531.364H1356.48V572.454H1315.39V531.364Z" fill="white"/>
<path d="M1315.39 572.454H1356.48V613.545H1315.39V572.454Z" fill="white"/>
<path d="M1315.39 613.545H1356.48V654.636H1315.39V613.545Z" fill="white"/>
<path d="M1315.39 654.636H1356.48V695.727H1315.39V654.636Z" fill="white"/>
<path d="M1315.39 695.727H1356.48V736.818H1315.39V695.727Z" fill="white"/>
<path d="M1315.39 736.818H1356.48V777.909H1315.39V736.818Z" fill="white"/>
<path d="M1315.39 777.909H1356.48V819H1315.39V777.909Z" fill="white"/>
<path d="M1356.48 -2.81836H1397.58V38.2726H1356.48V-2.81836Z" fill="white"/>
<path d="M1356.48 38.2726H1397.58V79.3635H1356.48V38.2726Z" fill="white"/>
<path d="M1356.48 79.3635H1397.58V120.454H1356.48V79.3635Z" fill="white"/>
<path d="M1356.48 120.454H1397.58V161.545H1356.48V120.454Z" fill="white"/>
<path d="M1356.48 161.545H1397.58V202.636H1356.48V161.545Z" fill="white"/>
<path d="M1356.48 202.636H1397.58V243.727H1356.48V202.636Z" fill="white"/>
<path d="M1356.48 243.727H1397.58V284.818H1356.48V243.727Z" fill="white"/>
<path d="M1356.48 284.818H1397.58V325.909H1356.48V284.818Z" fill="white"/>
<path d="M1356.48 325.909H1397.58V367H1356.48V325.909Z" fill="white"/>
<path d="M1356.48 367H1397.58V408.091H1356.48V367Z" fill="white"/>
<path d="M1356.48 408.091H1397.58V449.182H1356.48V408.091Z" fill="white"/>
<path d="M1356.48 449.182H1397.58V490.273H1356.48V449.182Z" fill="white"/>
<path d="M1356.48 490.273H1397.58V531.364H1356.48V490.273Z" fill="white"/>
<path d="M1356.48 531.364H1397.58V572.454H1356.48V531.364Z" fill="white"/>
<path d="M1356.48 572.454H1397.58V613.545H1356.48V572.454Z" fill="white"/>
<path d="M1356.48 613.545H1397.58V654.636H1356.48V613.545Z" fill="white"/>
<path d="M1356.48 654.636H1397.58V695.727H1356.48V654.636Z" fill="white"/>
<path d="M1356.48 695.727H1397.58V736.818H1356.48V695.727Z" fill="white"/>
<path d="M1356.48 736.818H1397.58V777.909H1356.48V736.818Z" fill="white"/>
<path d="M1356.48 777.909H1397.58V819H1356.48V777.909Z" fill="white"/>
<path d="M1397.58 -2.81836H1438.67V38.2726H1397.58V-2.81836Z" fill="white"/>
<path d="M1397.58 38.2726H1438.67V79.3635H1397.58V38.2726Z" fill="white"/>
<path d="M1397.58 79.3635H1438.67V120.454H1397.58V79.3635Z" fill="white"/>
<path d="M1397.58 120.454H1438.67V161.545H1397.58V120.454Z" fill="white"/>
<path d="M1397.58 161.545H1438.67V202.636H1397.58V161.545Z" fill="white"/>
<path d="M1397.58 202.636H1438.67V243.727H1397.58V202.636Z" fill="white"/>
<path d="M1397.58 243.727H1438.67V284.818H1397.58V243.727Z" fill="white"/>
<path d="M1397.58 284.818H1438.67V325.909H1397.58V284.818Z" fill="white"/>
<path d="M1397.58 325.909H1438.67V367H1397.58V325.909Z" fill="white"/>
<path d="M1397.58 367H1438.67V408.091H1397.58V367Z" fill="white"/>
<path d="M1397.58 408.091H1438.67V449.182H1397.58V408.091Z" fill="white"/>
<path d="M1397.58 449.182H1438.67V490.273H1397.58V449.182Z" fill="white"/>
<path d="M1397.58 490.273H1438.67V531.364H1397.58V490.273Z" fill="white"/>
<path d="M1397.58 531.364H1438.67V572.454H1397.58V531.364Z" fill="white"/>
<path d="M1397.58 572.454H1438.67V613.545H1397.58V572.454Z" fill="white"/>
<path d="M1397.58 613.545H1438.67V654.636H1397.58V613.545Z" fill="white"/>
<path d="M1397.58 654.636H1438.67V695.727H1397.58V654.636Z" fill="white"/>
<path d="M1397.58 695.727H1438.67V736.818H1397.58V695.727Z" fill="white"/>
<path d="M1397.58 736.818H1438.67V777.909H1397.58V736.818Z" fill="white"/>
<path d="M1397.58 777.909H1438.67V819H1397.58V777.909Z" fill="white"/>
<path d="M1438.67 -2.81836H1479.76V38.2726H1438.67V-2.81836Z" fill="white"/>
<path d="M1438.67 38.2726H1479.76V79.3635H1438.67V38.2726Z" fill="white"/>
<path d="M1438.67 79.3635H1479.76V120.454H1438.67V79.3635Z" fill="white"/>
<path d="M1438.67 120.454H1479.76V161.545H1438.67V120.454Z" fill="white"/>
<path d="M1438.67 161.545H1479.76V202.636H1438.67V161.545Z" fill="white"/>
<path d="M1438.67 202.636H1479.76V243.727H1438.67V202.636Z" fill="white"/>
<path d="M1438.67 243.727H1479.76V284.818H1438.67V243.727Z" fill="white"/>
<path d="M1438.67 284.818H1479.76V325.909H1438.67V284.818Z" fill="white"/>
<path d="M1438.67 325.909H1479.76V367H1438.67V325.909Z" fill="white"/>
<path d="M1438.67 367H1479.76V408.091H1438.67V367Z" fill="white"/>
<path d="M1438.67 408.091H1479.76V449.182H1438.67V408.091Z" fill="white"/>
<path d="M1438.67 449.182H1479.76V490.273H1438.67V449.182Z" fill="white"/>
<path d="M1438.67 490.273H1479.76V531.364H1438.67V490.273Z" fill="white"/>
<path d="M1438.67 531.364H1479.76V572.454H1438.67V531.364Z" fill="white"/>
<path d="M1438.67 572.454H1479.76V613.545H1438.67V572.454Z" fill="white"/>
<path d="M1438.67 613.545H1479.76V654.636H1438.67V613.545Z" fill="white"/>
<path d="M1438.67 654.636H1479.76V695.727H1438.67V654.636Z" fill="white"/>
<path d="M1438.67 695.727H1479.76V736.818H1438.67V695.727Z" fill="white"/>
<path d="M1438.67 736.818H1479.76V777.909H1438.67V736.818Z" fill="white"/>
<path d="M1438.67 777.909H1479.76V819H1438.67V777.909Z" fill="white"/>
<path d="M1479.76 -2.81836H1520.85V38.2726H1479.76V-2.81836Z" fill="white"/>
<path d="M1479.76 38.2726H1520.85V79.3635H1479.76V38.2726Z" fill="white"/>
<path d="M1479.76 79.3635H1520.85V120.454H1479.76V79.3635Z" fill="white"/>
<path d="M1479.76 120.454H1520.85V161.545H1479.76V120.454Z" fill="white"/>
<path d="M1479.76 161.545H1520.85V202.636H1479.76V161.545Z" fill="white"/>
<path d="M1479.76 202.636H1520.85V243.727H1479.76V202.636Z" fill="white"/>
<path d="M1479.76 243.727H1520.85V284.818H1479.76V243.727Z" fill="white"/>
<path d="M1479.76 325.909H1520.85V367H1479.76V325.909Z" fill="white"/>
<path d="M1479.76 367H1520.85V408.091H1479.76V367Z" fill="white"/>
<path d="M1479.76 408.091H1520.85V449.182H1479.76V408.091Z" fill="white"/>
<path d="M1479.76 449.182H1520.85V490.273H1479.76V449.182Z" fill="white"/>
<path d="M1479.76 490.273H1520.85V531.364H1479.76V490.273Z" fill="white"/>
<path d="M1479.76 531.364H1520.85V572.454H1479.76V531.364Z" fill="white"/>
<path d="M1479.76 572.454H1520.85V613.545H1479.76V572.454Z" fill="white"/>
<path d="M1479.76 613.545H1520.85V654.636H1479.76V613.545Z" fill="white"/>
<path d="M1479.76 654.636H1520.85V695.727H1479.76V654.636Z" fill="white"/>
<path d="M1479.76 695.727H1520.85V736.818H1479.76V695.727Z" fill="white"/>
<path d="M1479.76 736.818H1520.85V777.909H1479.76V736.818Z" fill="white"/>
<path d="M1479.76 777.909H1520.85V819H1479.76V777.909Z" fill="white"/>
<path d="M1520.85 -2.81836H1561.94V38.2726H1520.85V-2.81836Z" fill="white"/>
<path d="M1520.85 38.2726H1561.94V79.3635H1520.85V38.2726Z" fill="white"/>
<path d="M1520.85 79.3635H1561.94V120.454H1520.85V79.3635Z" fill="white"/>
<path d="M1520.85 120.454H1561.94V161.545H1520.85V120.454Z" fill="white"/>
<path d="M1520.85 161.545H1561.94V202.636H1520.85V161.545Z" fill="white"/>
<path d="M1520.85 202.636H1561.94V243.727H1520.85V202.636Z" fill="white"/>
<path d="M1520.85 243.727H1561.94V284.818H1520.85V243.727Z" fill="white"/>
<path d="M1520.85 325.909H1561.94V367H1520.85V325.909Z" fill="white"/>
<path d="M1520.85 367H1561.94V408.091H1520.85V367Z" fill="white"/>
<path d="M1520.85 408.091H1561.94V449.182H1520.85V408.091Z" fill="white"/>
<path d="M1520.85 449.182H1561.94V490.273H1520.85V449.182Z" fill="white"/>
<path d="M1520.85 490.273H1561.94V531.364H1520.85V490.273Z" fill="white"/>
<path d="M1520.85 531.364H1561.94V572.454H1520.85V531.364Z" fill="white"/>
<path d="M1520.85 572.454H1561.94V613.545H1520.85V572.454Z" fill="white"/>
<path d="M1520.85 613.545H1561.94V654.636H1520.85V613.545Z" fill="white"/>
<path d="M1520.85 654.636H1561.94V695.727H1520.85V654.636Z" fill="white"/>
<path d="M1520.85 695.727H1561.94V736.818H1520.85V695.727Z" fill="white"/>
<path d="M1520.85 736.818H1561.94V777.909H1520.85V736.818Z" fill="white"/>
<path d="M1520.85 777.909H1561.94V819H1520.85V777.909Z" fill="white"/>
<path d="M1561.94 -2.81836H1603.03V38.2726H1561.94V-2.81836Z" fill="white"/>
<path d="M1561.94 38.2726H1603.03V79.3635H1561.94V38.2726Z" fill="white"/>
<path d="M1561.94 79.3635H1603.03V120.454H1561.94V79.3635Z" fill="white"/>
<path d="M1561.94 120.454H1603.03V161.545H1561.94V120.454Z" fill="white"/>
<path d="M1561.94 161.545H1603.03V202.636H1561.94V161.545Z" fill="white"/>
<path d="M1561.94 202.636H1603.03V243.727H1561.94V202.636Z" fill="white"/>
<path d="M1561.94 243.727H1603.03V284.818H1561.94V243.727Z" fill="white"/>
<path d="M1561.94 284.818H1603.03V325.909H1561.94V284.818Z" fill="white"/>
<path d="M1561.94 325.909H1603.03V367H1561.94V325.909Z" fill="white"/>
<path d="M1561.94 367H1603.03V408.091H1561.94V367Z" fill="white"/>
<path d="M1561.94 408.091H1603.03V449.182H1561.94V408.091Z" fill="white"/>
<path d="M1561.94 449.182H1603.03V490.273H1561.94V449.182Z" fill="white"/>
<path d="M1561.94 490.273H1603.03V531.364H1561.94V490.273Z" fill="white"/>
<path d="M1561.94 531.364H1603.03V572.454H1561.94V531.364Z" fill="white"/>
<path d="M1561.94 572.454H1603.03V613.545H1561.94V572.454Z" fill="white"/>
<path d="M1561.94 613.545H1603.03V654.636H1561.94V613.545Z" fill="white"/>
<path d="M1561.94 654.636H1603.03V695.727H1561.94V654.636Z" fill="white"/>
<path d="M1561.94 695.727H1603.03V736.818H1561.94V695.727Z" fill="white"/>
<path d="M1561.94 736.818H1603.03V777.909H1561.94V736.818Z" fill="white"/>
<path d="M1561.94 777.909H1603.03V819H1561.94V777.909Z" fill="white"/>
<path d="M1603.03 -2.81836H1644.12V38.2726H1603.03V-2.81836Z" fill="white"/>
<path d="M1603.03 38.2726H1644.12V79.3635H1603.03V38.2726Z" fill="white"/>
<path d="M1603.03 79.3635H1644.12V120.454H1603.03V79.3635Z" fill="white"/>
<path d="M1603.03 120.454H1644.12V161.545H1603.03V120.454Z" fill="white"/>
<path d="M1603.03 161.545H1644.12V202.636H1603.03V161.545Z" fill="white"/>
<path d="M1603.03 202.636H1644.12V243.727H1603.03V202.636Z" fill="white"/>
<path d="M1603.03 243.727H1644.12V284.818H1603.03V243.727Z" fill="white"/>
<path d="M1603.03 284.818H1644.12V325.909H1603.03V284.818Z" fill="white"/>
<path d="M1603.03 325.909H1644.12V367H1603.03V325.909Z" fill="white"/>
<path d="M1603.03 367H1644.12V408.091H1603.03V367Z" fill="white"/>
<path d="M1603.03 408.091H1644.12V449.182H1603.03V408.091Z" fill="white"/>
<path d="M1603.03 449.182H1644.12V490.273H1603.03V449.182Z" fill="white"/>
<path d="M1603.03 490.273H1644.12V531.364H1603.03V490.273Z" fill="white"/>
<path d="M1603.03 531.364H1644.12V572.454H1603.03V531.364Z" fill="white"/>
<path d="M1603.03 572.454H1644.12V613.545H1603.03V572.454Z" fill="white"/>
<path d="M1603.03 613.545H1644.12V654.636H1603.03V613.545Z" fill="white"/>
<path d="M1603.03 654.636H1644.12V695.727H1603.03V654.636Z" fill="white"/>
<path d="M1603.03 695.727H1644.12V736.818H1603.03V695.727Z" fill="white"/>
<path d="M1603.03 736.818H1644.12V777.909H1603.03V736.818Z" fill="white"/>
<path d="M1603.03 777.909H1644.12V819H1603.03V777.909Z" fill="white"/>
<path d="M1644.12 -2.81836H1685.21V38.2726H1644.12V-2.81836Z" fill="white"/>
<path d="M1644.12 38.2726H1685.21V79.3635H1644.12V38.2726Z" fill="white"/>
<path d="M1644.12 79.3635H1685.21V120.454H1644.12V79.3635Z" fill="white"/>
<path d="M1644.12 120.454H1685.21V161.545H1644.12V120.454Z" fill="white"/>
<path d="M1644.12 161.545H1685.21V202.636H1644.12V161.545Z" fill="white"/>
<path d="M1644.12 202.636H1685.21V243.727H1644.12V202.636Z" fill="white"/>
<path d="M1644.12 243.727H1685.21V284.818H1644.12V243.727Z" fill="white"/>
<path d="M1644.12 284.818H1685.21V325.909H1644.12V284.818Z" fill="white"/>
<path d="M1644.12 325.909H1685.21V367H1644.12V325.909Z" fill="white"/>
<path d="M1644.12 367H1685.21V408.091H1644.12V367Z" fill="white"/>
<path d="M1644.12 408.091H1685.21V449.182H1644.12V408.091Z" fill="white"/>
<path d="M1644.12 449.182H1685.21V490.273H1644.12V449.182Z" fill="white"/>
<path d="M1644.12 490.273H1685.21V531.364H1644.12V490.273Z" fill="white"/>
<path d="M1644.12 531.364H1685.21V572.454H1644.12V531.364Z" fill="white"/>
<path d="M1644.12 572.454H1685.21V613.545H1644.12V572.454Z" fill="white"/>
<path d="M1644.12 613.545H1685.21V654.636H1644.12V613.545Z" fill="white"/>
<path d="M1644.12 654.636H1685.21V695.727H1644.12V654.636Z" fill="white"/>
<path d="M1644.12 695.727H1685.21V736.818H1644.12V695.727Z" fill="white"/>
<path d="M1644.12 736.818H1685.21V777.909H1644.12V736.818Z" fill="white"/>
<path d="M1644.12 777.909H1685.21V819H1644.12V777.909Z" fill="white"/>
<path d="M1685.21 -2.81836H1726.3V38.2726H1685.21V-2.81836Z" fill="white"/>
<path d="M1685.21 38.2726H1726.3V79.3635H1685.21V38.2726Z" fill="white"/>
<path d="M1685.21 79.3635H1726.3V120.454H1685.21V79.3635Z" fill="white"/>
<path d="M1685.21 120.454H1726.3V161.545H1685.21V120.454Z" fill="white"/>
<path d="M1685.21 161.545H1726.3V202.636H1685.21V161.545Z" fill="white"/>
<path d="M1685.21 202.636H1726.3V243.727H1685.21V202.636Z" fill="white"/>
<path d="M1685.21 243.727H1726.3V284.818H1685.21V243.727Z" fill="white"/>
<path d="M1685.21 284.818H1726.3V325.909H1685.21V284.818Z" fill="white"/>
<path d="M1685.21 325.909H1726.3V367H1685.21V325.909Z" fill="white"/>
<path d="M1685.21 367H1726.3V408.091H1685.21V367Z" fill="white"/>
<path d="M1685.21 408.091H1726.3V449.182H1685.21V408.091Z" fill="white"/>
<path d="M1685.21 449.182H1726.3V490.273H1685.21V449.182Z" fill="white"/>
<path d="M1685.21 490.273H1726.3V531.364H1685.21V490.273Z" fill="white"/>
<path d="M1685.21 531.364H1726.3V572.454H1685.21V531.364Z" fill="white"/>
<path d="M1685.21 572.454H1726.3V613.545H1685.21V572.454Z" fill="white"/>
<path d="M1685.21 613.545H1726.3V654.636H1685.21V613.545Z" fill="white"/>
<path d="M1685.21 654.636H1726.3V695.727H1685.21V654.636Z" fill="white"/>
<path d="M1685.21 695.727H1726.3V736.818H1685.21V695.727Z" fill="white"/>
<path d="M1685.21 736.818H1726.3V777.909H1685.21V736.818Z" fill="white"/>
<path d="M1685.21 777.909H1726.3V819H1685.21V777.909Z" fill="white"/>
<path d="M1726.3 -2.81836H1767.39V38.2726H1726.3V-2.81836Z" fill="white"/>
<path d="M1726.3 38.2726H1767.39V79.3635H1726.3V38.2726Z" fill="white"/>
<path d="M1726.3 79.3635H1767.39V120.454H1726.3V79.3635Z" fill="white"/>
<path d="M1726.3 120.454H1767.39V161.545H1726.3V120.454Z" fill="white"/>
<path d="M1726.3 161.545H1767.39V202.636H1726.3V161.545Z" fill="white"/>
<path d="M1726.3 202.636H1767.39V243.727H1726.3V202.636Z" fill="white"/>
<path d="M1726.3 243.727H1767.39V284.818H1726.3V243.727Z" fill="white"/>
<path d="M1726.3 284.818H1767.39V325.909H1726.3V284.818Z" fill="white"/>
<path d="M1726.3 325.909H1767.39V367H1726.3V325.909Z" fill="white"/>
<path d="M1726.3 367H1767.39V408.091H1726.3V367Z" fill="white"/>
<path d="M1726.3 408.091H1767.39V449.182H1726.3V408.091Z" fill="white"/>
<path d="M1726.3 449.182H1767.39V490.273H1726.3V449.182Z" fill="white"/>
<path d="M1726.3 490.273H1767.39V531.364H1726.3V490.273Z" fill="white"/>
<path d="M1726.3 531.364H1767.39V572.454H1726.3V531.364Z" fill="white"/>
<path d="M1726.3 572.454H1767.39V613.545H1726.3V572.454Z" fill="white"/>
<path d="M1726.3 613.545H1767.39V654.636H1726.3V613.545Z" fill="white"/>
<path d="M1726.3 654.636H1767.39V695.727H1726.3V654.636Z" fill="white"/>
<path d="M1726.3 695.727H1767.39V736.818H1726.3V695.727Z" fill="white"/>
<path d="M1726.3 736.818H1767.39V777.909H1726.3V736.818Z" fill="white"/>
<path d="M1726.3 777.909H1767.39V819H1726.3V777.909Z" fill="white"/>
<path d="M1767.39 -2.81836H1808.48V38.2726H1767.39V-2.81836Z" fill="white"/>
<path d="M1767.39 38.2726H1808.48V79.3635H1767.39V38.2726Z" fill="white"/>
<path d="M1767.39 79.3635H1808.48V120.454H1767.39V79.3635Z" fill="white"/>
<path d="M1767.39 120.454H1808.48V161.545H1767.39V120.454Z" fill="white"/>
<path d="M1767.39 161.545H1808.48V202.636H1767.39V161.545Z" fill="white"/>
<path d="M1767.39 202.636H1808.48V243.727H1767.39V202.636Z" fill="white"/>
<path d="M1767.39 243.727H1808.48V284.818H1767.39V243.727Z" fill="white"/>
<path d="M1767.39 284.818H1808.48V325.909H1767.39V284.818Z" fill="white"/>
<path d="M1767.39 325.909H1808.48V367H1767.39V325.909Z" fill="white"/>
<path d="M1767.39 367H1808.48V408.091H1767.39V367Z" fill="white"/>
<path d="M1767.39 408.091H1808.48V449.182H1767.39V408.091Z" fill="white"/>
<path d="M1767.39 449.182H1808.48V490.273H1767.39V449.182Z" fill="white"/>
<path d="M1767.39 490.273H1808.48V531.364H1767.39V490.273Z" fill="white"/>
<path d="M1767.39 531.364H1808.48V572.454H1767.39V531.364Z" fill="white"/>
<path d="M1767.39 572.454H1808.48V613.545H1767.39V572.454Z" fill="white"/>
<path d="M1767.39 613.545H1808.48V654.636H1767.39V613.545Z" fill="white"/>
<path d="M1767.39 654.636H1808.48V695.727H1767.39V654.636Z" fill="white"/>
<path d="M1767.39 695.727H1808.48V736.818H1767.39V695.727Z" fill="white"/>
<path d="M1767.39 736.818H1808.48V777.909H1767.39V736.818Z" fill="white"/>
<path d="M1767.39 777.909H1808.48V819H1767.39V777.909Z" fill="white"/>
<path d="M41.5753 -2.81836H0.484375V38.2726M41.5753 -2.81836V38.2726M41.5753 -2.81836H82.6662M41.5753 38.2726H0.484375M41.5753 38.2726V79.3635M41.5753 38.2726H82.6662M0.484375 38.2726V79.3635M41.5753 79.3635H0.484375M41.5753 79.3635V120.454M41.5753 79.3635H82.6662M0.484375 79.3635V120.454M41.5753 120.454H0.484375M41.5753 120.454V161.545M41.5753 120.454H82.6662M0.484375 120.454V161.545M41.5753 161.545H0.484375M41.5753 161.545V202.636M41.5753 161.545H82.6662M0.484375 161.545V202.636M41.5753 202.636H0.484375M41.5753 202.636V243.727M41.5753 202.636H82.6662M0.484375 202.636V243.727M41.5753 243.727H0.484375M41.5753 243.727V284.818M41.5753 243.727H82.6662M0.484375 243.727V284.818M41.5753 284.818H0.484375M41.5753 284.818V325.909M41.5753 284.818H82.6662M0.484375 284.818V325.909M41.5753 325.909H0.484375M41.5753 325.909V367M41.5753 325.909H82.6662M0.484375 325.909V367M41.5753 367H0.484375M41.5753 367V408.091M41.5753 367H82.6662M0.484375 367V408.091M41.5753 408.091H0.484375M41.5753 408.091V449.182M41.5753 408.091H82.6662M0.484375 408.091V449.182M41.5753 449.182H0.484375M41.5753 449.182V490.273M41.5753 449.182H82.6662M0.484375 449.182V490.273M41.5753 490.273H0.484375M41.5753 490.273V531.364M41.5753 490.273H82.6662M0.484375 490.273V531.364M41.5753 531.364H0.484375M41.5753 531.364V572.454M41.5753 531.364H82.6662M0.484375 531.364V572.454M41.5753 572.454H0.484375M41.5753 572.454V613.545M41.5753 572.454H82.6662M0.484375 572.454V613.545M41.5753 613.545H0.484375M41.5753 613.545V654.636M41.5753 613.545H82.6662M0.484375 613.545V654.636M41.5753 654.636H0.484375M41.5753 654.636V695.727M41.5753 654.636H82.6662M0.484375 654.636V695.727M41.5753 695.727H0.484375M41.5753 695.727V736.818M41.5753 695.727H82.6662M0.484375 695.727V736.818M41.5753 736.818H0.484375M41.5753 736.818V777.909M41.5753 736.818H82.6662M0.484375 736.818V777.909M41.5753 777.909H0.484375M41.5753 777.909V819M41.5753 777.909H82.6662M0.484375 777.909V819H41.5753M41.5753 819H82.6662M82.6662 -2.81836V38.2726M82.6662 -2.81836H123.757M82.6662 38.2726V79.3635M82.6662 38.2726H123.757M82.6662 79.3635V120.454M82.6662 79.3635H123.757M82.6662 120.454V161.545M82.6662 120.454H123.757M82.6662 161.545V202.636M82.6662 161.545H123.757M82.6662 202.636V243.727M82.6662 202.636H123.757M82.6662 243.727V284.818M82.6662 243.727H123.757M82.6662 284.818V325.909M82.6662 284.818H123.757M82.6662 325.909V367M82.6662 325.909H123.757M82.6662 367V408.091M82.6662 367H123.757M82.6662 408.091V449.182M82.6662 408.091H123.757M82.6662 449.182V490.273M82.6662 449.182H123.757M82.6662 490.273V531.364M82.6662 490.273H123.757M82.6662 531.364V572.454M82.6662 531.364H123.757M82.6662 572.454V613.545M82.6662 572.454H123.757M82.6662 613.545V654.636M82.6662 613.545H123.757M82.6662 654.636V695.727M82.6662 654.636H123.757M82.6662 695.727V736.818M82.6662 695.727H123.757M82.6662 736.818V777.909M82.6662 736.818H123.757M82.6662 777.909V819M82.6662 777.909H123.757M82.6662 819H123.757M123.757 -2.81836V38.2726M123.757 -2.81836H164.848M123.757 38.2726V79.3635M123.757 38.2726H164.848M123.757 79.3635V120.454M123.757 79.3635H164.848M123.757 120.454V161.545M123.757 120.454H164.848M123.757 161.545V202.636M123.757 161.545H164.848M123.757 202.636V243.727M123.757 202.636H164.848M123.757 243.727V284.818M123.757 243.727H164.848M123.757 284.818V325.909M123.757 284.818H164.848M123.757 325.909V367M123.757 325.909H164.848M123.757 367V408.091M123.757 367H164.848M123.757 408.091V449.182M123.757 408.091H164.848M123.757 449.182V490.273M123.757 449.182H164.848M123.757 490.273V531.364M123.757 490.273H164.848M123.757 531.364V572.454M123.757 531.364H164.848M123.757 572.454V613.545M123.757 572.454H164.848M123.757 613.545V654.636M123.757 613.545H164.848M123.757 654.636V695.727M123.757 654.636H164.848M123.757 695.727V736.818M123.757 695.727H164.848M123.757 736.818V777.909M123.757 736.818H164.848M123.757 777.909V819M123.757 777.909H164.848M123.757 819H164.848M164.848 -2.81836V38.2726M164.848 -2.81836H205.939M164.848 38.2726V79.3635M164.848 38.2726H205.939M164.848 79.3635V120.454M164.848 79.3635H205.939M164.848 120.454V161.545M164.848 120.454H205.939M164.848 161.545V202.636M164.848 161.545H205.939M164.848 202.636V243.727M164.848 202.636H205.939M164.848 243.727V284.818M164.848 243.727H205.939M164.848 284.818V325.909M164.848 284.818H205.939M164.848 325.909V367M164.848 325.909H205.939M164.848 367V408.091M164.848 367H205.939M164.848 408.091V449.182M164.848 408.091H205.939M164.848 449.182V490.273M164.848 449.182H205.939M164.848 490.273V531.364M164.848 490.273H205.939M164.848 531.364V572.454M164.848 531.364H205.939M164.848 572.454V613.545M164.848 572.454H205.939M164.848 613.545V654.636M164.848 613.545H205.939M164.848 654.636V695.727M164.848 654.636H205.939M164.848 695.727V736.818M164.848 695.727H205.939M164.848 736.818V777.909M164.848 736.818H205.939M164.848 777.909V819M164.848 777.909H205.939M164.848 819H205.939M205.939 -2.81836V38.2726M205.939 -2.81836H247.03M205.939 38.2726V79.3635M205.939 38.2726H247.03M205.939 79.3635V120.454M205.939 79.3635H247.03M205.939 120.454V161.545M205.939 120.454H247.03M205.939 161.545V202.636M205.939 161.545H247.03M205.939 202.636V243.727M205.939 202.636H247.03M205.939 243.727V284.818M205.939 243.727H247.03M205.939 284.818V325.909M205.939 284.818H247.03M205.939 325.909V367M205.939 325.909H247.03M205.939 367V408.091M205.939 367H247.03M205.939 408.091V449.182M205.939 408.091H247.03M205.939 449.182V490.273M205.939 449.182H247.03M205.939 490.273V531.364M205.939 490.273H247.03M205.939 531.364V572.454M205.939 531.364H247.03M205.939 572.454V613.545M205.939 572.454H247.03M205.939 613.545V654.636M205.939 613.545H247.03M205.939 654.636V695.727M205.939 654.636H247.03M205.939 695.727V736.818M205.939 695.727H247.03M205.939 736.818V777.909M205.939 736.818H247.03M205.939 777.909V819M205.939 777.909H247.03M205.939 819H247.03M247.03 -2.81836V38.2726M247.03 -2.81836H288.121M247.03 38.2726V79.3635M247.03 38.2726H288.121M247.03 79.3635V120.454M247.03 79.3635H288.121M247.03 120.454V161.545M247.03 120.454H288.121M247.03 161.545V202.636M247.03 161.545H288.121M247.03 202.636V243.727M247.03 202.636H288.121M247.03 243.727V284.818M247.03 243.727H288.121M247.03 284.818V325.909M247.03 284.818H288.121M247.03 325.909V367M247.03 325.909H288.121M247.03 367V408.091M247.03 367H288.121M247.03 408.091V449.182M247.03 408.091H288.121M247.03 449.182V490.273M247.03 449.182H288.121M247.03 490.273V531.364M247.03 490.273H288.121M247.03 531.364V572.454M247.03 531.364H288.121M247.03 572.454V613.545M247.03 572.454H288.121M247.03 613.545V654.636M247.03 613.545H288.121M247.03 654.636V695.727M247.03 654.636H288.121M247.03 695.727V736.818M247.03 695.727H288.121M247.03 736.818V777.909M247.03 736.818H288.121M247.03 777.909V819M247.03 777.909H288.121M247.03 819H288.121M288.121 -2.81836V38.2726M288.121 -2.81836H329.212M288.121 38.2726V79.3635M288.121 38.2726H329.212M288.121 79.3635V120.454M288.121 79.3635H329.212M288.121 120.454V161.545M288.121 120.454H329.212M288.121 161.545V202.636M288.121 161.545H329.212M288.121 202.636V243.727M288.121 202.636H329.212M288.121 243.727V284.818M288.121 243.727H329.212M288.121 284.818H329.212M288.121 284.818V325.909M288.121 325.909V367M288.121 325.909H329.212M288.121 367V408.091M288.121 367H329.212M288.121 408.091V449.182M288.121 408.091H329.212M288.121 449.182V490.273M288.121 449.182H329.212M288.121 490.273V531.364M288.121 490.273H329.212M288.121 531.364V572.454M288.121 531.364H329.212M288.121 572.454V613.545M288.121 572.454H329.212M288.121 613.545V654.636M288.121 613.545H329.212M288.121 654.636V695.727M288.121 654.636H329.212M288.121 695.727V736.818M288.121 695.727H329.212M288.121 736.818V777.909M288.121 736.818H329.212M288.121 777.909V819M288.121 777.909H329.212M288.121 819H329.212M329.212 -2.81836V38.2726M329.212 -2.81836H370.303M329.212 38.2726V79.3635M329.212 38.2726H370.303M329.212 79.3635V120.454M329.212 79.3635H370.303M329.212 120.454V161.545M329.212 120.454H370.303M329.212 161.545V202.636M329.212 161.545H370.303M329.212 202.636V243.727M329.212 202.636H370.303M329.212 243.727V284.818M329.212 243.727H370.303M329.212 284.818V325.909M329.212 284.818H370.303M329.212 325.909V367M329.212 325.909H370.303M329.212 367V408.091M329.212 367H370.303M329.212 408.091V449.182M329.212 408.091H370.303M329.212 449.182V490.273M329.212 449.182H370.303M329.212 490.273V531.364M329.212 490.273H370.303M329.212 531.364V572.454M329.212 531.364C329.212 531.364 354.256 531.364 370.303 531.364M329.212 572.454V613.545M329.212 572.454H370.303M329.212 613.545V654.636M329.212 613.545H370.303M329.212 654.636V695.727M329.212 654.636H370.303M329.212 695.727V736.818M329.212 695.727H370.303M329.212 736.818V777.909M329.212 736.818H370.303M329.212 777.909V819M329.212 777.909H370.303M329.212 819H370.303M370.303 -2.81836V38.2726M370.303 -2.81836H411.394M370.303 38.2726V79.3635M370.303 38.2726H411.394M370.303 79.3635V120.454M370.303 79.3635H411.394M370.303 120.454V161.545M370.303 120.454H411.394M370.303 161.545V202.636M370.303 161.545H411.394M370.303 202.636V243.727M370.303 202.636H411.394M370.303 243.727V284.818M370.303 243.727H411.394M370.303 284.818V325.909M370.303 284.818H411.394M370.303 325.909V367M370.303 325.909H411.394M370.303 367V408.091M370.303 367H411.394M370.303 408.091V449.182M370.303 408.091H411.394M370.303 449.182V490.273M370.303 449.182H411.394M370.303 490.273C370.303 490.273 370.303 515.317 370.303 531.364M370.303 490.273H411.394M370.303 531.364C370.303 547.411 370.303 572.454 370.303 572.454M370.303 531.364C386.35 531.364 411.394 531.364 411.394 531.364M370.303 572.454V613.545M370.303 572.454H411.394M370.303 613.545V654.636M370.303 613.545H411.394M370.303 654.636V695.727M370.303 654.636H411.394M370.303 695.727V736.818M370.303 695.727H411.394M370.303 736.818V777.909M370.303 736.818H411.394M370.303 777.909V819M370.303 777.909H411.394M370.303 819H411.394M411.394 -2.81836V38.2726M411.394 -2.81836H452.484M411.394 38.2726V79.3635M411.394 38.2726H452.484M411.394 79.3635V120.454M411.394 79.3635H452.484M411.394 120.454V161.545M411.394 120.454H452.484M411.394 161.545V202.636M411.394 161.545H452.484M411.394 202.636V243.727M411.394 202.636H452.484M411.394 243.727V284.818M411.394 243.727H452.484M411.394 284.818V325.909M411.394 284.818H452.484M411.394 325.909V367M411.394 325.909H452.484M411.394 367V408.091M411.394 367H452.484M411.394 408.091V449.182M411.394 408.091H452.484M411.394 449.182V490.273M411.394 449.182H452.484M411.394 490.273V531.364M411.394 490.273H452.484M411.394 531.364V572.454M411.394 531.364H452.484M411.394 572.454V613.545M411.394 572.454H452.484M411.394 613.545V654.636M411.394 613.545H452.484M411.394 654.636V695.727M411.394 654.636H452.484M411.394 695.727V736.818M411.394 695.727H452.484M411.394 736.818V777.909M411.394 736.818H452.484M411.394 777.909V819M411.394 777.909H452.484M411.394 819H452.484M452.484 -2.81836V38.2726M452.484 -2.81836H493.575M452.484 38.2726V79.3635M452.484 38.2726H493.575M452.484 79.3635V120.454M452.484 79.3635H493.575M452.484 120.454V161.545M452.484 120.454H493.575M452.484 161.545V202.636M452.484 161.545H1356.48M452.484 202.636V243.727M452.484 202.636H1356.48M452.484 243.727V284.818M452.484 243.727H493.575M452.484 284.818V325.909M452.484 284.818H493.575M452.484 325.909V367M452.484 325.909H493.575M452.484 367V408.091M452.484 367H493.575M452.484 408.091V449.182M452.484 408.091H493.575M452.484 449.182V490.273M452.484 449.182H493.575M452.484 490.273V531.364M452.484 490.273H493.575M452.484 531.364V572.454M452.484 531.364H493.575M452.484 572.454V613.545M452.484 572.454H493.575M452.484 613.545V654.636M452.484 613.545H493.575M452.484 654.636V695.727M452.484 654.636H493.575M452.484 695.727V736.818M452.484 695.727H493.575M452.484 736.818V777.909M452.484 736.818H493.575M452.484 777.909V819M452.484 777.909H493.575M452.484 819H493.575M493.575 -2.81836V38.2726M493.575 -2.81836H534.666M493.575 38.2726V79.3635M493.575 38.2726H534.666M493.575 79.3635V120.454M493.575 79.3635H534.666M493.575 120.454H534.666M493.575 120.454V243.727M493.575 243.727V284.818M493.575 243.727H534.666M493.575 284.818V325.909M493.575 284.818H534.666M493.575 325.909V367M493.575 325.909H534.666M493.575 367V408.091M493.575 367H534.666M493.575 408.091V449.182M493.575 408.091H534.666M493.575 449.182V490.273M493.575 449.182H534.666M493.575 490.273V531.364M493.575 490.273H534.666M493.575 531.364V572.454M493.575 531.364H534.666M493.575 572.454V613.545M493.575 572.454H534.666M493.575 613.545V654.636M493.575 613.545H534.666M493.575 654.636V695.727M493.575 654.636H534.666M493.575 695.727V736.818M493.575 695.727H534.666M493.575 736.818V777.909M493.575 736.818H534.666M493.575 777.909V819M493.575 777.909H534.666M493.575 819H534.666M534.666 -2.81836V38.2726M534.666 -2.81836H575.757M534.666 38.2726V79.3635M534.666 38.2726H575.757M534.666 79.3635V120.454M534.666 79.3635H575.757M534.666 120.454H575.757M534.666 120.454V243.727M534.666 243.727V284.818M534.666 243.727H575.757M534.666 284.818V325.909M534.666 284.818H575.757M534.666 325.909V367M534.666 325.909H575.757M534.666 367V408.091M534.666 367H575.757M534.666 408.091V449.182M534.666 408.091H575.757M534.666 449.182V490.273M534.666 449.182H575.757M534.666 490.273V531.364M534.666 490.273H575.757M534.666 531.364V572.454M534.666 531.364H575.757M534.666 572.454V613.545M534.666 572.454H575.757M534.666 613.545V654.636M534.666 613.545H575.757M534.666 654.636V695.727M534.666 654.636H575.757M534.666 695.727V736.818M534.666 695.727H575.757M534.666 736.818V777.909M534.666 736.818H575.757M534.666 777.909V819M534.666 777.909H575.757M534.666 819H575.757M575.757 -2.81836V38.2726M575.757 -2.81836H616.848M575.757 38.2726V79.3635M575.757 38.2726H616.848M575.757 79.3635V120.454M575.757 79.3635H616.848M575.757 120.454H616.848M575.757 120.454V243.727M575.757 243.727V284.818M575.757 243.727H1233.21M575.757 284.818V325.909M575.757 284.818H1233.21M575.757 325.909V367M575.757 325.909H616.848M575.757 367V408.091M575.757 367H616.848M575.757 408.091V449.182M575.757 408.091H616.848M575.757 449.182V490.273M575.757 449.182H616.848M575.757 490.273V531.364M575.757 490.273H616.848M575.757 531.364V572.454M575.757 531.364H616.848M575.757 572.454V613.545M575.757 572.454H616.848M575.757 613.545V654.636M575.757 613.545H616.848M575.757 654.636V695.727M575.757 654.636H616.848M575.757 695.727V736.818M575.757 695.727H616.848M575.757 736.818V777.909M575.757 736.818H616.848M575.757 777.909V819M575.757 777.909H616.848M575.757 819H616.848M616.848 -2.81836V38.2726M616.848 -2.81836H657.939M616.848 38.2726V79.3635M616.848 38.2726H657.939M616.848 79.3635V120.454M616.848 79.3635H657.939M616.848 120.454H657.939M616.848 120.454V325.909M616.848 325.909V367M616.848 325.909H657.939M616.848 367V408.091M616.848 367H657.939M616.848 408.091V449.182M616.848 408.091H657.939M616.848 449.182V490.273M616.848 449.182H657.939M616.848 490.273V531.364M616.848 490.273H657.939M616.848 531.364V572.454M616.848 531.364H657.939M616.848 572.454V613.545M616.848 572.454H657.939M616.848 613.545V654.636M616.848 613.545H657.939M616.848 654.636V695.727M616.848 654.636H657.939M616.848 695.727V736.818M616.848 695.727H657.939M616.848 736.818V777.909M616.848 736.818H657.939M616.848 777.909V819M616.848 777.909H657.939M616.848 819H657.939M657.939 -2.81836V38.2726M657.939 -2.81836H699.03M657.939 38.2726V79.3635M657.939 38.2726H699.03M657.939 79.3635V120.454M657.939 79.3635H699.03M657.939 120.454H699.03M657.939 120.454V325.909M657.939 325.909V367M657.939 325.909H699.03M657.939 367V408.091M657.939 367H699.03M657.939 408.091V449.182M657.939 408.091H699.03M657.939 449.182V490.273M657.939 449.182H699.03M657.939 490.273V531.364M657.939 490.273H699.03M657.939 531.364V572.454M657.939 531.364H699.03M657.939 572.454V613.545M657.939 572.454H699.03M657.939 613.545V654.636M657.939 613.545H699.03M657.939 654.636V695.727M657.939 654.636H699.03M657.939 695.727V736.818M657.939 695.727H699.03M657.939 736.818V777.909M657.939 736.818H699.03M657.939 777.909V819M657.939 777.909H699.03M657.939 819H699.03M699.03 -2.81836V38.2726M699.03 -2.81836H740.121M699.03 38.2726V79.3635M699.03 38.2726H740.121M699.03 79.3635V120.454M699.03 79.3635H740.121M699.03 120.454H740.121M699.03 120.454V325.909M699.03 325.909V367M699.03 325.909H740.121M699.03 367V408.091M699.03 367H740.121M699.03 408.091V449.182M699.03 408.091H740.121M699.03 449.182V490.273M699.03 449.182H740.121M699.03 490.273V531.364M699.03 490.273H740.121M699.03 531.364V572.454M699.03 531.364H740.121M699.03 572.454V613.545M699.03 572.454H740.121M699.03 613.545V654.636M699.03 613.545H740.121M699.03 654.636V695.727M699.03 654.636H740.121M699.03 695.727V736.818M699.03 695.727H740.121M699.03 736.818V777.909M699.03 736.818H740.121M699.03 777.909V819M699.03 777.909H740.121M699.03 819H740.121M740.121 -2.81836V38.2726M740.121 -2.81836H781.212M740.121 38.2726V79.3635M740.121 38.2726H781.212M740.121 79.3635V120.454M740.121 79.3635H781.212M740.121 120.454H781.212M740.121 120.454V325.909M740.121 325.909V367M740.121 325.909H781.212M740.121 367V408.091M740.121 367H781.212M740.121 408.091V449.182M740.121 408.091H781.212M740.121 449.182V490.273M740.121 449.182H781.212M740.121 490.273V531.364M740.121 490.273H781.212M740.121 531.364V572.454M740.121 531.364H781.212M740.121 572.454V613.545M740.121 572.454H781.212M740.121 613.545V654.636M740.121 613.545H781.212M740.121 654.636V695.727M740.121 654.636H781.212M740.121 695.727V736.818M740.121 695.727H781.212M740.121 736.818V777.909M740.121 736.818H781.212M740.121 777.909V819M740.121 777.909H781.212M740.121 819H781.212M781.212 -2.81836V38.2726M781.212 -2.81836H822.303M781.212 38.2726V79.3635M781.212 38.2726H822.303M781.212 79.3635V120.454M781.212 79.3635H822.303M781.212 120.454H822.303M781.212 120.454V325.909M781.212 325.909V367M781.212 325.909H822.303M781.212 367V408.091M781.212 367H822.303M781.212 408.091V449.182M781.212 408.091H822.303M781.212 449.182V490.273M781.212 449.182H822.303M781.212 490.273V531.364M781.212 490.273H822.303M781.212 531.364V572.454M781.212 531.364H822.303M781.212 572.454V613.545M781.212 572.454H822.303M781.212 613.545V654.636M781.212 613.545H822.303M781.212 654.636V695.727M781.212 654.636H822.303M781.212 695.727V736.818M781.212 695.727H822.303M781.212 736.818V777.909M781.212 736.818H822.303M781.212 777.909V819M781.212 777.909H822.303M781.212 819H822.303M822.303 -2.81836V38.2726M822.303 -2.81836H863.394M822.303 38.2726V79.3635M822.303 38.2726H863.394M822.303 79.3635V120.454M822.303 79.3635H863.394M822.303 120.454H863.394M822.303 120.454V325.909M822.303 325.909V367M822.303 325.909H863.394M822.303 367V408.091M822.303 367H863.394M822.303 408.091V449.182M822.303 408.091H863.394M822.303 449.182V490.273M822.303 449.182H863.394M822.303 490.273V531.364M822.303 490.273H863.394M822.303 531.364V572.454M822.303 531.364H863.394M822.303 572.454V613.545M822.303 572.454H863.394M822.303 613.545V654.636M822.303 613.545H863.394M822.303 654.636V695.727M822.303 654.636H863.394M822.303 695.727V736.818M822.303 695.727H863.394M822.303 736.818V777.909M822.303 736.818H863.394M822.303 777.909V819M822.303 777.909H863.394M822.303 819H863.394M863.394 -2.81836V38.2726M863.394 -2.81836H904.485M863.394 38.2726H904.485M863.394 38.2726V79.3635M863.394 79.3635V120.454M863.394 79.3635H904.485M863.394 120.454H904.485M863.394 120.454V325.909M863.394 325.909V367M863.394 325.909H904.485M863.394 367V408.091M863.394 367H904.485M863.394 408.091V449.182M863.394 408.091H904.485M863.394 449.182V490.273M863.394 449.182H904.485M863.394 490.273V531.364M863.394 490.273H904.485M863.394 531.364V572.454M863.394 531.364H904.485M863.394 572.454V613.545M863.394 572.454H904.485M863.394 613.545V654.636M863.394 613.545H904.485M863.394 654.636V695.727M863.394 654.636H904.485M863.394 695.727V736.818M863.394 695.727H904.485M863.394 736.818V777.909M863.394 736.818H904.485M863.394 777.909V819M863.394 777.909H904.485M863.394 819H904.485M904.485 -2.81836V38.2726M904.485 -2.81836H945.575M904.485 38.2726H945.575M904.485 38.2726V79.3635M904.485 79.3635V120.454M904.485 79.3635H945.575M904.485 120.454H945.575M904.485 120.454V325.909M904.485 325.909V367M904.485 325.909H945.575M904.485 367V408.091M904.485 367H945.575M904.485 408.091V449.182M904.485 408.091H945.575M904.485 449.182V490.273M904.485 449.182H945.575M904.485 490.273V531.364M904.485 490.273H945.575M904.485 531.364V572.454M904.485 531.364H945.575M904.485 572.454V613.545M904.485 572.454H945.575M904.485 613.545V654.636M904.485 613.545H945.575M904.485 654.636V695.727M904.485 654.636H945.575M904.485 695.727V736.818M904.485 695.727H945.575M904.485 736.818V777.909M904.485 736.818H945.575M904.485 777.909V819M904.485 777.909H945.575M904.485 819H945.575M945.575 -2.81836V38.2726M945.575 -2.81836H986.666M945.575 38.2726H986.666M945.575 38.2726V79.3635M945.575 79.3635V120.454M945.575 79.3635H986.666M945.575 120.454H986.666M945.575 120.454V325.909M945.575 325.909V367M945.575 325.909H986.666M945.575 367V408.091M945.575 367H986.666M945.575 408.091V449.182M945.575 408.091H986.666M945.575 449.182V490.273M945.575 449.182H986.666M945.575 490.273V531.364M945.575 490.273H986.666M945.575 531.364V572.454M945.575 531.364H986.666M945.575 572.454V613.545M945.575 572.454H986.666M945.575 613.545V654.636M945.575 613.545H986.666M945.575 654.636V695.727M945.575 654.636H986.666M945.575 695.727V736.818M945.575 695.727H986.666M945.575 736.818V777.909M945.575 736.818H986.666M945.575 777.909V819M945.575 777.909H986.666M945.575 819H986.666M986.666 -2.81836V38.2726M986.666 -2.81836H1027.76M986.666 38.2726H1027.76M986.666 38.2726V79.3635M986.666 79.3635V120.454M986.666 79.3635H1027.76M986.666 120.454H1027.76M986.666 120.454V325.909M986.666 325.909V367M986.666 325.909H1027.76M986.666 367V408.091M986.666 367H1027.76M986.666 408.091V449.182M986.666 408.091H1027.76M986.666 449.182V490.273M986.666 449.182H1027.76M986.666 490.273V531.364M986.666 490.273H1027.76M986.666 531.364V572.454M986.666 531.364H1027.76M986.666 572.454V613.545M986.666 572.454H1027.76M986.666 613.545V654.636M986.666 613.545H1027.76M986.666 654.636V695.727M986.666 654.636H1027.76M986.666 695.727V736.818M986.666 695.727H1027.76M986.666 736.818V777.909M986.666 736.818H1027.76M986.666 777.909V819M986.666 777.909H1027.76M986.666 819H1027.76M1027.76 -2.81836V38.2726M1027.76 -2.81836H1068.85M1027.76 38.2726V79.3635M1027.76 38.2726H1068.85M1027.76 79.3635V120.454M1027.76 79.3635H1068.85M1027.76 120.454H1068.85M1027.76 120.454V325.909M1027.76 325.909V367M1027.76 325.909H1068.85M1027.76 367V408.091M1027.76 367H1068.85M1027.76 408.091V449.182M1027.76 408.091H1068.85M1027.76 449.182V490.273M1027.76 449.182H1068.85M1027.76 490.273V531.364M1027.76 490.273H1068.85M1027.76 531.364V572.454M1027.76 531.364H1068.85M1027.76 572.454V613.545M1027.76 572.454H1068.85M1027.76 613.545V654.636M1027.76 613.545H1068.85M1027.76 654.636V695.727M1027.76 654.636H1068.85M1027.76 695.727V736.818M1027.76 695.727H1068.85M1027.76 736.818V777.909M1027.76 736.818H1068.85M1027.76 777.909V819M1027.76 777.909H1068.85M1027.76 819H1068.85M1068.85 -2.81836V38.2726M1068.85 -2.81836H1109.94M1068.85 38.2726V79.3635M1068.85 38.2726H1109.94M1068.85 79.3635V120.454M1068.85 79.3635H1109.94M1068.85 120.454H1109.94M1068.85 120.454V325.909M1068.85 325.909V367M1068.85 325.909H1109.94M1068.85 367V408.091M1068.85 367H1109.94M1068.85 408.091V449.182M1068.85 408.091H1109.94M1068.85 449.182V490.273M1068.85 449.182H1109.94M1068.85 490.273V531.364M1068.85 490.273H1109.94M1068.85 531.364V572.454M1068.85 531.364H1109.94M1068.85 572.454V613.545M1068.85 572.454H1109.94M1068.85 613.545V654.636M1068.85 613.545H1109.94M1068.85 654.636V695.727M1068.85 654.636H1109.94M1068.85 695.727V736.818M1068.85 695.727H1109.94M1068.85 736.818V777.909M1068.85 736.818H1109.94M1068.85 777.909V819M1068.85 777.909H1109.94M1068.85 819H1109.94M1109.94 -2.81836V38.2726M1109.94 -2.81836H1151.03M1109.94 38.2726V79.3635M1109.94 38.2726H1151.03M1109.94 79.3635V120.454M1109.94 79.3635H1151.03M1109.94 120.454H1151.03M1109.94 120.454V325.909M1109.94 325.909V367M1109.94 325.909H1151.03M1109.94 367V408.091M1109.94 367H1151.03M1109.94 408.091V449.182M1109.94 408.091H1151.03M1109.94 449.182V490.273M1109.94 449.182H1151.03M1109.94 490.273V531.364M1109.94 490.273H1151.03M1109.94 531.364V572.454M1109.94 531.364H1151.03M1109.94 572.454V613.545M1109.94 572.454H1151.03M1109.94 613.545V654.636M1109.94 613.545H1151.03M1109.94 654.636V695.727M1109.94 654.636H1151.03M1109.94 695.727V736.818M1109.94 695.727H1151.03M1109.94 736.818V777.909M1109.94 736.818H1151.03M1109.94 777.909V819M1109.94 777.909H1151.03M1109.94 819H1151.03M1151.03 -2.81836V38.2726M1151.03 -2.81836H1192.12M1151.03 38.2726V79.3635M1151.03 38.2726H1192.12M1151.03 79.3635V120.454M1151.03 79.3635H1192.12M1151.03 120.454H1192.12M1151.03 120.454V325.909M1151.03 325.909V367M1151.03 325.909H1192.12M1151.03 367V408.091M1151.03 367H1192.12M1151.03 408.091V449.182M1151.03 408.091H1192.12M1151.03 449.182V490.273M1151.03 449.182H1192.12M1151.03 490.273V531.364M1151.03 490.273H1192.12M1151.03 531.364V572.454M1151.03 531.364H1192.12M1151.03 572.454V613.545M1151.03 572.454H1192.12M1151.03 613.545V654.636M1151.03 613.545H1192.12M1151.03 654.636V695.727M1151.03 654.636H1192.12M1151.03 695.727V736.818M1151.03 695.727H1192.12M1151.03 736.818V777.909M1151.03 736.818H1192.12M1151.03 777.909V819M1151.03 777.909H1192.12M1151.03 819H1192.12M1192.12 -2.81836V38.2726M1192.12 -2.81836H1233.21M1192.12 38.2726V79.3635M1192.12 38.2726H1233.21M1192.12 79.3635V120.454M1192.12 79.3635H1233.21M1192.12 120.454H1233.21M1192.12 120.454V325.909M1192.12 325.909V367M1192.12 325.909H1233.21M1192.12 367V408.091M1192.12 367H1233.21M1192.12 408.091V449.182M1192.12 408.091H1233.21M1192.12 449.182V490.273M1192.12 449.182H1233.21M1192.12 490.273V531.364M1192.12 490.273H1233.21M1192.12 531.364V572.454M1192.12 531.364H1233.21M1192.12 572.454V613.545M1192.12 572.454H1233.21M1192.12 613.545V654.636M1192.12 613.545H1233.21M1192.12 654.636V695.727M1192.12 654.636H1233.21M1192.12 695.727V736.818M1192.12 695.727H1233.21M1192.12 736.818V777.909M1192.12 736.818H1233.21M1192.12 777.909V819M1192.12 777.909H1233.21M1192.12 819H1233.21M1233.21 -2.81836V38.2726M1233.21 -2.81836H1274.3M1233.21 38.2726V79.3635M1233.21 38.2726H1274.3M1233.21 79.3635V120.454M1233.21 79.3635H1274.3M1233.21 120.454H1274.3M1233.21 120.454V243.727M1233.21 243.727V284.818M1233.21 243.727H1274.3M1233.21 284.818V325.909M1233.21 284.818H1274.3M1233.21 325.909V367M1233.21 325.909H1274.3M1233.21 367V408.091M1233.21 367H1274.3M1233.21 408.091V449.182M1233.21 408.091H1274.3M1233.21 449.182V490.273M1233.21 449.182H1274.3M1233.21 490.273V531.364M1233.21 490.273H1274.3M1233.21 531.364V572.454M1233.21 531.364H1274.3M1233.21 572.454V613.545M1233.21 572.454H1274.3M1233.21 613.545V654.636M1233.21 613.545H1274.3M1233.21 654.636V695.727M1233.21 654.636H1274.3M1233.21 695.727V736.818M1233.21 695.727H1274.3M1233.21 736.818V777.909M1233.21 736.818H1274.3M1233.21 777.909V819M1233.21 777.909H1274.3M1233.21 819H1274.3M1274.3 -2.81836V38.2726M1274.3 -2.81836H1315.39M1274.3 38.2726V79.3635M1274.3 38.2726H1315.39M1274.3 79.3635V120.454M1274.3 79.3635H1315.39M1274.3 120.454H1315.39M1274.3 120.454V243.727M1274.3 243.727V284.818M1274.3 243.727H1315.39M1274.3 284.818V325.909M1274.3 284.818H1315.39M1274.3 325.909V367M1274.3 325.909H1315.39M1274.3 367V408.091M1274.3 367H1315.39M1274.3 408.091V449.182M1274.3 408.091H1315.39M1274.3 449.182V490.273M1274.3 449.182H1315.39M1274.3 490.273V531.364M1274.3 490.273H1315.39M1274.3 531.364V572.454M1274.3 531.364H1315.39M1274.3 572.454V613.545M1274.3 572.454H1315.39M1274.3 613.545V654.636M1274.3 613.545H1315.39M1274.3 654.636V695.727M1274.3 654.636H1315.39M1274.3 695.727V736.818M1274.3 695.727H1315.39M1274.3 736.818V777.909M1274.3 736.818H1315.39M1274.3 777.909V819M1274.3 777.909H1315.39M1274.3 819H1315.39M1315.39 -2.81836V38.2726M1315.39 -2.81836H1356.48M1315.39 38.2726V79.3635M1315.39 38.2726H1356.48M1315.39 79.3635V120.454M1315.39 79.3635H1356.48M1315.39 120.454H1356.48M1315.39 120.454V243.727M1315.39 243.727V284.818M1315.39 243.727H1356.48M1315.39 284.818V325.909M1315.39 284.818H1356.48M1315.39 325.909V367M1315.39 325.909H1356.48M1315.39 367V408.091M1315.39 367H1356.48M1315.39 408.091V449.182M1315.39 408.091H1356.48M1315.39 449.182V490.273M1315.39 449.182H1356.48M1315.39 490.273V531.364M1315.39 490.273H1356.48M1315.39 531.364V572.454M1315.39 531.364H1356.48M1315.39 572.454V613.545M1315.39 572.454H1356.48M1315.39 613.545V654.636M1315.39 613.545H1356.48M1315.39 654.636V695.727M1315.39 654.636H1356.48M1315.39 695.727V736.818M1315.39 695.727H1356.48M1315.39 736.818V777.909M1315.39 736.818H1356.48M1315.39 777.909V819M1315.39 777.909H1356.48M1315.39 819H1356.48M1356.48 -2.81836V38.2726M1356.48 -2.81836H1397.58M1356.48 38.2726V79.3635M1356.48 38.2726H1397.58M1356.48 79.3635V120.454M1356.48 79.3635H1397.58M1356.48 120.454V161.545M1356.48 120.454H1397.58M1356.48 161.545V202.636M1356.48 161.545H1397.58M1356.48 202.636V243.727M1356.48 202.636H1397.58M1356.48 243.727V284.818M1356.48 243.727H1397.58M1356.48 284.818V325.909M1356.48 284.818H1397.58M1356.48 325.909V367M1356.48 325.909H1397.58M1356.48 367V408.091M1356.48 367H1397.58M1356.48 408.091V449.182M1356.48 408.091H1397.58M1356.48 449.182V490.273M1356.48 449.182H1397.58M1356.48 490.273V531.364M1356.48 490.273H1397.58M1356.48 531.364V572.454M1356.48 531.364H1397.58M1356.48 572.454V613.545M1356.48 572.454H1397.58M1356.48 613.545V654.636M1356.48 613.545H1397.58M1356.48 654.636V695.727M1356.48 654.636H1397.58M1356.48 695.727V736.818M1356.48 695.727H1397.58M1356.48 736.818V777.909M1356.48 736.818H1397.58M1356.48 777.909V819M1356.48 777.909H1397.58M1356.48 819H1397.58M1397.58 -2.81836V38.2726M1397.58 -2.81836H1438.67M1397.58 38.2726V79.3635M1397.58 38.2726H1438.67M1397.58 79.3635V120.454M1397.58 79.3635H1438.67M1397.58 120.454V161.545M1397.58 120.454H1438.67M1397.58 161.545V202.636M1397.58 161.545H1438.67M1397.58 202.636V243.727M1397.58 202.636H1438.67M1397.58 243.727V284.818M1397.58 243.727H1438.67M1397.58 284.818V325.909M1397.58 284.818H1438.67M1397.58 325.909V367M1397.58 325.909H1438.67M1397.58 367V408.091M1397.58 367H1438.67M1397.58 408.091V449.182M1397.58 408.091H1438.67M1397.58 449.182V490.273M1397.58 449.182H1438.67M1397.58 490.273V531.364M1397.58 490.273H1438.67M1397.58 531.364V572.454M1397.58 531.364H1438.67M1397.58 572.454V613.545M1397.58 572.454H1438.67M1397.58 613.545V654.636M1397.58 613.545H1438.67M1397.58 654.636V695.727M1397.58 654.636H1438.67M1397.58 695.727V736.818M1397.58 695.727H1438.67M1397.58 736.818V777.909M1397.58 736.818H1438.67M1397.58 777.909V819M1397.58 777.909H1438.67M1397.58 819H1438.67M1438.67 -2.81836V38.2726M1438.67 -2.81836H1479.76M1438.67 38.2726V79.3635M1438.67 38.2726H1479.76M1438.67 79.3635V120.454M1438.67 79.3635H1479.76M1438.67 120.454V161.545M1438.67 120.454H1479.76M1438.67 161.545V202.636M1438.67 161.545H1479.76M1438.67 202.636V243.727M1438.67 202.636H1479.76M1438.67 243.727V284.818M1438.67 243.727H1479.76M1438.67 284.818V325.909M1438.67 284.818H1479.76M1438.67 325.909V367M1438.67 325.909H1479.76M1438.67 367V408.091M1438.67 367H1479.76M1438.67 408.091V449.182M1438.67 408.091H1479.76M1438.67 449.182V490.273M1438.67 449.182H1479.76M1438.67 490.273V531.364M1438.67 490.273H1479.76M1438.67 531.364V572.454M1438.67 531.364H1479.76M1438.67 572.454V613.545M1438.67 572.454H1479.76M1438.67 613.545V654.636M1438.67 613.545H1479.76M1438.67 654.636V695.727M1438.67 654.636H1479.76M1438.67 695.727V736.818M1438.67 695.727H1479.76M1438.67 736.818V777.909M1438.67 736.818H1479.76M1438.67 777.909V819M1438.67 777.909H1479.76M1438.67 819H1479.76M1479.76 -2.81836V38.2726M1479.76 -2.81836H1520.85M1479.76 38.2726V79.3635M1479.76 38.2726H1520.85M1479.76 79.3635V120.454M1479.76 79.3635H1520.85M1479.76 120.454V161.545M1479.76 120.454H1520.85M1479.76 161.545V202.636M1479.76 161.545H1520.85M1479.76 202.636V243.727M1479.76 202.636H1520.85M1479.76 243.727V284.818M1479.76 243.727H1520.85M1479.76 284.818V325.909M1479.76 284.818H1520.85M1479.76 325.909V367M1479.76 325.909H1520.85M1479.76 367V408.091M1479.76 367H1520.85M1479.76 408.091V449.182M1479.76 408.091H1520.85M1479.76 449.182V490.273M1479.76 449.182H1520.85M1479.76 490.273V531.364M1479.76 490.273H1520.85M1479.76 531.364V572.454M1479.76 531.364H1520.85M1479.76 572.454V613.545M1479.76 572.454H1520.85M1479.76 613.545V654.636M1479.76 613.545H1520.85M1479.76 654.636V695.727M1479.76 654.636H1520.85M1479.76 695.727V736.818M1479.76 695.727H1520.85M1479.76 736.818V777.909M1479.76 736.818H1520.85M1479.76 777.909V819M1479.76 777.909H1520.85M1479.76 819H1520.85M1520.85 -2.81836V38.2726M1520.85 -2.81836H1561.94M1520.85 38.2726V79.3635M1520.85 38.2726H1561.94M1520.85 79.3635V120.454M1520.85 79.3635H1561.94M1520.85 120.454V161.545M1520.85 120.454H1561.94M1520.85 161.545V202.636M1520.85 161.545H1561.94M1520.85 202.636V243.727M1520.85 202.636H1561.94M1520.85 243.727V284.818M1520.85 243.727H1561.94M1520.85 284.818H1561.94M1520.85 284.818V325.909M1520.85 325.909V367M1520.85 325.909H1561.94M1520.85 367V408.091M1520.85 367H1561.94M1520.85 408.091V449.182M1520.85 408.091H1561.94M1520.85 449.182V490.273M1520.85 449.182H1561.94M1520.85 490.273V531.364M1520.85 490.273H1561.94M1520.85 531.364V572.454M1520.85 531.364H1561.94M1520.85 572.454V613.545M1520.85 572.454H1561.94M1520.85 613.545V654.636M1520.85 613.545H1561.94M1520.85 654.636V695.727M1520.85 654.636H1561.94M1520.85 695.727V736.818M1520.85 695.727H1561.94M1520.85 736.818V777.909M1520.85 736.818H1561.94M1520.85 777.909V819M1520.85 777.909H1561.94M1520.85 819H1561.94M1561.94 -2.81836V38.2726M1561.94 -2.81836H1603.03M1561.94 38.2726V79.3635M1561.94 38.2726H1603.03M1561.94 79.3635V120.454M1561.94 79.3635H1603.03M1561.94 120.454V161.545M1561.94 120.454H1603.03M1561.94 161.545V202.636M1561.94 161.545H1603.03M1561.94 202.636V243.727M1561.94 202.636H1603.03M1561.94 243.727V284.818M1561.94 243.727H1603.03M1561.94 284.818V325.909M1561.94 284.818H1603.03M1561.94 325.909V367M1561.94 325.909H1603.03M1561.94 367V408.091M1561.94 367H1603.03M1561.94 408.091V449.182M1561.94 408.091H1603.03M1561.94 449.182V490.273M1561.94 449.182H1603.03M1561.94 490.273V531.364M1561.94 490.273H1603.03M1561.94 531.364V572.454M1561.94 531.364H1603.03M1561.94 572.454V613.545M1561.94 572.454H1603.03M1561.94 613.545V654.636M1561.94 613.545H1603.03M1561.94 654.636V695.727M1561.94 654.636H1603.03M1561.94 695.727V736.818M1561.94 695.727H1603.03M1561.94 736.818V777.909M1561.94 736.818H1603.03M1561.94 777.909V819M1561.94 777.909H1603.03M1561.94 819H1603.03M1603.03 -2.81836V38.2726M1603.03 -2.81836H1644.12M1603.03 38.2726V79.3635M1603.03 38.2726H1644.12M1603.03 79.3635V120.454M1603.03 79.3635H1644.12M1603.03 120.454V161.545M1603.03 120.454H1644.12M1603.03 161.545V202.636M1603.03 161.545H1644.12M1603.03 202.636V243.727M1603.03 202.636H1644.12M1603.03 243.727V284.818M1603.03 243.727H1644.12M1603.03 284.818V325.909M1603.03 284.818H1644.12M1603.03 325.909V367M1603.03 325.909H1644.12M1603.03 367V408.091M1603.03 367H1644.12M1603.03 408.091V449.182M1603.03 408.091H1644.12M1603.03 449.182V490.273M1603.03 449.182H1644.12M1603.03 490.273V531.364M1603.03 490.273H1644.12M1603.03 531.364V572.454M1603.03 531.364H1644.12M1603.03 572.454V613.545M1603.03 572.454H1644.12M1603.03 613.545V654.636M1603.03 613.545H1644.12M1603.03 654.636V695.727M1603.03 654.636H1644.12M1603.03 695.727V736.818M1603.03 695.727H1644.12M1603.03 736.818V777.909M1603.03 736.818H1644.12M1603.03 777.909V819M1603.03 777.909H1644.12M1603.03 819H1644.12M1644.12 -2.81836V38.2726M1644.12 -2.81836H1685.21M1644.12 38.2726V79.3635M1644.12 38.2726H1685.21M1644.12 79.3635V120.454M1644.12 79.3635H1685.21M1644.12 120.454V161.545M1644.12 120.454H1685.21M1644.12 161.545V202.636M1644.12 161.545H1685.21M1644.12 202.636V243.727M1644.12 202.636H1685.21M1644.12 243.727V284.818M1644.12 243.727H1685.21M1644.12 284.818V325.909M1644.12 284.818H1685.21M1644.12 325.909V367M1644.12 325.909H1685.21M1644.12 367V408.091M1644.12 367H1685.21M1644.12 408.091V449.182M1644.12 408.091H1685.21M1644.12 449.182V490.273M1644.12 449.182H1685.21M1644.12 490.273V531.364M1644.12 490.273H1685.21M1644.12 531.364V572.454M1644.12 531.364H1685.21M1644.12 572.454V613.545M1644.12 572.454H1685.21M1644.12 613.545V654.636M1644.12 613.545H1685.21M1644.12 654.636V695.727M1644.12 654.636H1685.21M1644.12 695.727V736.818M1644.12 695.727H1685.21M1644.12 736.818V777.909M1644.12 736.818H1685.21M1644.12 777.909V819M1644.12 777.909H1685.21M1644.12 819H1685.21M1685.21 -2.81836V38.2726M1685.21 -2.81836H1726.3M1685.21 38.2726V79.3635M1685.21 38.2726H1726.3M1685.21 79.3635V120.454M1685.21 79.3635H1726.3M1685.21 120.454V161.545M1685.21 120.454H1726.3M1685.21 161.545V202.636M1685.21 161.545H1726.3M1685.21 202.636V243.727M1685.21 202.636H1726.3M1685.21 243.727V284.818M1685.21 243.727H1726.3M1685.21 284.818V325.909M1685.21 284.818H1726.3M1685.21 325.909V367M1685.21 325.909H1726.3M1685.21 367V408.091M1685.21 367H1726.3M1685.21 408.091V449.182M1685.21 408.091H1726.3M1685.21 449.182V490.273M1685.21 449.182H1726.3M1685.21 490.273V531.364M1685.21 490.273H1726.3M1685.21 531.364V572.454M1685.21 531.364H1726.3M1685.21 572.454V613.545M1685.21 572.454H1726.3M1685.21 613.545V654.636M1685.21 613.545H1726.3M1685.21 654.636V695.727M1685.21 654.636H1726.3M1685.21 695.727V736.818M1685.21 695.727H1726.3M1685.21 736.818V777.909M1685.21 736.818H1726.3M1685.21 777.909V819M1685.21 777.909H1726.3M1685.21 819H1726.3M1726.3 -2.81836V38.2726M1726.3 -2.81836H1767.39M1726.3 38.2726V79.3635M1726.3 38.2726H1767.39M1726.3 79.3635V120.454M1726.3 79.3635H1767.39M1726.3 120.454V161.545M1726.3 120.454H1767.39M1726.3 161.545V202.636M1726.3 161.545H1767.39M1726.3 202.636V243.727M1726.3 202.636H1767.39M1726.3 243.727V284.818M1726.3 243.727H1767.39M1726.3 284.818V325.909M1726.3 284.818H1767.39M1726.3 325.909V367M1726.3 325.909H1767.39M1726.3 367V408.091M1726.3 367H1767.39M1726.3 408.091V449.182M1726.3 408.091H1767.39M1726.3 449.182V490.273M1726.3 449.182H1767.39M1726.3 490.273V531.364M1726.3 490.273H1767.39M1726.3 531.364V572.454M1726.3 531.364H1767.39M1726.3 572.454V613.545M1726.3 572.454H1767.39M1726.3 613.545V654.636M1726.3 613.545H1767.39M1726.3 654.636V695.727M1726.3 654.636H1767.39M1726.3 695.727V736.818M1726.3 695.727H1767.39M1726.3 736.818V777.909M1726.3 736.818H1767.39M1726.3 777.909V819M1726.3 777.909H1767.39M1726.3 819H1767.39M1767.39 -2.81836V38.2726M1767.39 -2.81836H1808.48V38.2726M1767.39 38.2726V79.3635M1767.39 38.2726H1808.48M1767.39 79.3635V120.454M1767.39 79.3635H1808.48M1767.39 120.454V161.545M1767.39 120.454H1808.48M1767.39 161.545V202.636M1767.39 161.545H1808.48M1767.39 202.636V243.727M1767.39 202.636H1808.48M1767.39 243.727V284.818M1767.39 243.727H1808.48M1767.39 284.818V325.909M1767.39 284.818H1808.48M1767.39 325.909V367M1767.39 325.909H1808.48M1767.39 367V408.091M1767.39 367H1808.48M1767.39 408.091V449.182M1767.39 408.091H1808.48M1767.39 449.182V490.273M1767.39 449.182H1808.48M1767.39 490.273V531.364M1767.39 490.273H1808.48M1767.39 531.364V572.454M1767.39 531.364H1808.48M1767.39 572.454V613.545M1767.39 572.454H1808.48M1767.39 613.545V654.636M1767.39 613.545H1808.48M1767.39 654.636V695.727M1767.39 654.636H1808.48M1767.39 695.727V736.818M1767.39 695.727H1808.48M1767.39 736.818V777.909M1767.39 736.818H1808.48M1767.39 777.909V819M1767.39 777.909H1808.48M1767.39 819H1808.48V777.909M1808.48 38.2726V79.3635M1808.48 79.3635V120.454M1808.48 120.454V161.545M1808.48 161.545V202.636M1808.48 202.636V243.727M1808.48 243.727V284.818M1808.48 284.818V325.909M1808.48 325.909V367M1808.48 367V408.091M1808.48 408.091V449.182M1808.48 449.182V490.273M1808.48 490.273V531.364M1808.48 531.364V572.454M1808.48 572.454V613.545M1808.48 613.545V654.636M1808.48 654.636V695.727M1808.48 695.727V736.818M1808.48 736.818V777.909" stroke="url(#paint0_linear_585_4109)" stroke-width="1.02727"/>
</g>
<defs>
<linearGradient id="paint0_linear_585_4109" x1="904.484" y1="239.618" x2="904.484" y2="1020.86" gradientUnits="userSpaceOnUse">
<stop stop-opacity="0.65"/>
<stop offset="1" stop-opacity="0"/>
</linearGradient>
</defs>
</svg>