<svg width="1440" height="404" viewBox="0 0 1440 404" fill="none" xmlns="http://www.w3.org/2000/svg">
<path d="M24.0961 399.205L35.391 402.142M24.0961 399.205L57.5677 399.205M24.0961 399.205L12.4258 396.171M24.0961 399.205L0.391236 399.205M35.391 402.142L31.2811 402.14L27.2136 402.134L23.231 402.116L19.373 402.081L15.6825 402.024L12.1985 401.938L8.96289 401.818L5.95959 401.666L3.38232 401.455L1.03601 401.211L0.391235 401.126L0.391236 399.205M35.391 402.142L68.3246 402.142M68.3246 402.142L101.258 402.142M68.3246 402.142L57.5677 399.205M101.258 402.142L134.192 402.142M101.258 402.142L91.0394 399.205M134.192 402.142L167.126 402.142M134.192 402.142L124.51 399.205M167.126 402.142L200.059 402.142M167.126 402.142L157.982 399.205M200.059 402.142L232.994 402.142M200.059 402.142L191.454 399.205M232.994 402.142L265.927 402.142M232.994 402.142L224.925 399.205M265.927 402.142L298.861 402.142M265.927 402.142L258.397 399.205M298.861 402.142L331.795 402.142M298.861 402.142L291.869 399.205M331.795 402.142L364.729 402.142M331.795 402.142L325.34 399.205M364.729 402.142L397.662 402.142M364.729 402.142L358.812 399.205M397.662 402.142L430.596 402.142M397.662 402.142L392.284 399.205M430.596 402.142L463.53 402.142M430.596 402.142L429.401 401.416L427.589 400.318L425.756 399.205M463.53 402.142L496.464 402.142M463.53 402.142L462.468 401.416L459.227 399.205M496.464 402.142L529.397 402.142M496.464 402.142L492.699 399.205M529.397 402.142L562.331 402.142M529.397 402.142L528.2 401.051L526.987 399.948L526.579 399.577L526.17 399.205M562.331 402.142L595.265 402.142M562.331 402.142L561.333 401.051L560.997 400.685L560.66 400.318L559.642 399.205M595.265 402.142L628.199 402.142M595.265 402.142L593.113 399.205M628.199 402.142L628 401.78L627.8 401.416L626.79 399.577L626.585 399.205M628.199 402.142L661.132 402.142M661.132 402.142L694.066 402.142M661.132 402.142L660.056 399.205M694.066 402.142L727 402.142M694.066 402.142L693.867 401.051L693.528 399.205M727 402.142L759.934 402.142M727 402.142L727 399.205M759.934 402.142L792.868 402.142M759.934 402.142L760.133 401.051L760.472 399.205M792.868 402.142L825.801 402.142M792.868 402.142L793.943 399.205M825.801 402.142L826 401.78L826.199 401.416L827.21 399.577L827.415 399.205M825.801 402.142L858.735 402.142M858.735 402.142L891.669 402.142M858.735 402.142L860.613 399.577L860.887 399.205M891.669 402.142L924.603 402.142M891.669 402.142L892.667 401.051L893.003 400.685L893.678 399.948L894.017 399.577L894.358 399.205M924.603 402.142L957.536 402.142M924.603 402.142L925.8 401.051L927.013 399.948L927.421 399.577L927.83 399.205M957.536 402.142L990.47 402.142M957.536 402.142L961.301 399.205M990.47 402.142L1023.4 402.142M990.47 402.142L991.532 401.416L994.773 399.205M1023.4 402.142L1056.34 402.142M1023.4 402.142L1028.24 399.205M1056.34 402.142L1089.27 402.142M1056.34 402.142L1061.72 399.205M1089.27 402.142L1122.21 402.142M1089.27 402.142L1095.19 399.205M1122.21 402.142L1155.14 402.142M1122.21 402.142L1128.66 399.205M1155.14 402.142L1188.07 402.142M1155.14 402.142L1162.13 399.205M1188.07 402.142L1221.01 402.142M1188.07 402.142L1195.6 399.205M1221.01 402.142L1253.94 402.142M1221.01 402.142L1229.07 399.205M1253.94 402.142L1286.87 402.142M1253.94 402.142L1262.55 399.205M1286.87 402.142L1319.81 402.142M1286.87 402.142L1296.02 399.205M1319.81 402.142L1352.74 402.142M1319.81 402.142L1329.49 399.205M1352.74 402.142L1385.68 402.142M1352.74 402.142L1362.96 399.205M1385.68 402.142L1418.61 402.142M1385.68 402.142L1396.43 399.205M1418.61 402.142L1422.72 402.141L1426.79 402.134L1430.77 402.116L1434.63 402.081L1438.32 402.024L1441.8 401.938L1445.04 401.819L1448.04 401.666L1450.62 401.455L1452.96 401.211L1453.61 401.126L1453.61 399.205M1418.61 402.142L1429.9 399.205M1362.96 399.205L1329.49 399.205M1362.96 399.205L1396.43 399.205M1362.96 399.205L1373.52 396.171M1329.49 399.205L1339.49 396.171M1329.49 399.205L1296.02 399.205M1229.07 399.205L1195.6 399.205M1229.07 399.205L1262.55 399.205M1229.07 399.205L1231.13 398.456L1237.41 396.171M1195.6 399.205L1203.38 396.171M1195.6 399.205L1162.13 399.205M1095.19 399.205L1061.72 399.205M1095.19 399.205L1128.66 399.205M1095.19 399.205L1096.7 398.456L1097.46 398.079L1101.3 396.171M1061.72 399.205L1062.4 398.831L1063.09 398.456L1067.27 396.171M1061.72 399.205L1028.24 399.205M961.301 399.205L961.781 398.831L965.191 396.171M961.301 399.205L927.83 399.205M961.301 399.205L994.773 399.205M927.83 399.205L928.653 398.456L929.068 398.079L929.483 397.701L931.164 396.171M927.83 399.205L894.358 399.205M827.415 399.205L793.943 399.205M827.415 399.205L860.887 399.205M827.415 399.205L829.082 396.171M793.943 399.205L794.08 398.831L794.217 398.456L794.356 398.079L794.774 396.939L795.054 396.171M793.943 399.205L760.472 399.205M693.528 399.205L660.056 399.205M693.528 399.205L727 399.205M693.528 399.205L692.973 396.171M660.056 399.205L659.92 398.831L659.783 398.456L659.644 398.079L658.946 396.171M660.056 399.205L626.585 399.205M559.642 399.205L526.17 399.205M559.642 399.205L593.113 399.205M559.642 399.205L558.956 398.456L557.566 396.939L557.216 396.556L556.863 396.171M526.17 399.205L525.347 398.456L524.932 398.079L524.517 397.701L522.836 396.171M526.17 399.205L492.699 399.205M425.756 399.205L392.284 399.205M425.756 399.205L459.227 399.205M425.756 399.205L424.52 398.456L423.899 398.079L420.754 396.171M392.284 399.205L391.599 398.831L390.912 398.456L386.727 396.171M392.284 399.205L358.812 399.205M291.869 399.205L258.397 399.205M291.869 399.205L325.34 399.205M291.869 399.205L290.085 398.456L289.187 398.079L284.644 396.171M258.397 399.205L250.617 396.171M258.397 399.205L224.925 399.205M157.982 399.205L124.51 399.205M157.982 399.205L191.454 399.205M157.982 399.205L148.535 396.171M124.51 399.205L114.507 396.171M124.51 399.205L91.0394 399.205M1453.73 371.741L1453.61 371.741M1420.04 371.741L1407.26 375.617M1420.04 371.741L1433.31 367.717M1420.04 371.741L1381.53 371.741M1420.04 371.741L1453.61 371.741M1407.26 375.617L1445.05 375.617M1407.26 375.617L1394.94 379.353M1407.26 375.617L1369.47 375.617M1445.05 375.617L1432.05 379.353M1445.05 375.617L1453.61 375.617M1445.05 375.617L1453.61 373.158M1407.41 386.433L1371.6 386.433M1407.41 386.433L1395.73 389.791M1407.41 386.433L1443.22 386.433M1407.41 386.433L1419.51 382.956M1371.6 386.433L1360.53 389.791M1371.6 386.433L1383.06 382.956M1371.6 386.433L1335.79 386.433M1395.73 389.791L1360.53 389.791M1395.73 389.791L1384.43 393.035M1395.73 389.791L1430.92 389.791M1360.53 389.791L1325.33 389.791M1360.53 389.791L1349.83 393.035M1453.98 310.563L1453.61 310.563M1422.91 310.563L1406.43 316.989M1422.91 310.563L1440.21 303.817M1422.91 310.563L1373.2 310.563M1422.91 310.563L1453.61 310.563M1406.43 316.989L1390.71 323.118M1406.43 316.989L1357.9 316.989M1406.43 316.989L1453.61 316.989M1438.12 323.118L1390.71 323.118M1438.12 323.118L1422.05 328.97M1438.12 323.118L1453.61 323.118M1438.12 323.118L1453.61 317.482M1406.68 334.563L1361.37 334.563M1406.68 334.563L1391.98 339.914M1406.68 334.563L1451.99 334.563M1406.68 334.563L1422.05 328.97M1361.37 334.563L1347.64 339.914M1361.37 334.563L1375.71 328.97M1361.37 334.563L1316.05 334.563M1391.98 339.914L1347.64 339.914M1391.98 339.914L1436.31 339.914M1391.98 339.914L1377.9 345.038M1347.64 339.914L1334.5 345.038M1347.64 339.914L1303.31 339.914M1351.46 354.662L1309.82 354.662M1351.46 354.662L1339.02 359.187M1351.46 354.662L1393.09 354.662M1351.46 354.662L1364.4 349.95M1309.82 354.662L1298.22 359.187M1309.82 354.662L1321.91 349.95M1309.82 354.662L1268.19 354.662M1339.02 359.187L1298.22 359.187M1339.02 359.187L1379.82 359.187M1339.02 359.187L1327.08 363.535M1298.22 359.187L1287.07 363.535M1298.22 359.187L1257.42 359.187M1304.53 371.741L1266.03 371.741M1304.53 371.741L1293.88 375.617M1304.53 371.741L1343.03 371.741M1304.53 371.741L1315.59 367.717M1266.03 371.741L1256.09 375.617M1266.03 371.741L1276.35 367.717M1266.03 371.741L1227.53 371.741M1293.88 375.617L1256.09 375.617M1293.88 375.617L1331.67 375.617M1293.88 375.617L1283.62 379.353M1256.09 375.617L1246.51 379.353M1256.09 375.617L1218.3 375.617M1264.17 386.433L1228.35 386.433M1264.17 386.433L1254.94 389.791M1264.17 386.433L1299.98 386.433M1264.17 386.433L1273.72 382.956M1228.35 386.433L1219.75 389.791M1228.35 386.433L1237.27 382.956M1228.35 386.433L1192.54 386.433M1254.94 389.791L1219.75 389.791M1254.94 389.791L1246.03 393.035M1254.94 389.791L1290.14 389.791M1219.75 389.791L1184.55 389.791M1219.75 389.791L1211.43 393.035M1428.14 199.154L1404.95 211.816M1428.14 199.154L1452.98 185.595M1428.14 199.154L1358.03 199.154M1428.14 199.154L1453.61 199.154M1404.95 211.816L1383.24 223.667M1404.95 211.816L1337.15 211.816M1404.95 211.816L1453.61 211.816M1405.42 245.231L1343.75 245.231M1405.42 245.231L1385.6 255.067M1405.42 245.231L1426.47 234.783M1405.42 245.231L1453.61 245.231M1343.75 245.231L1325.73 255.067M1343.75 245.231L1362.88 234.783M1343.75 245.231L1282.07 245.231M1385.6 255.067L1325.73 255.067M1385.6 255.067L1445.47 255.067M1385.6 255.067L1366.91 264.345M1325.73 255.067L1308.73 264.345M1325.73 255.067L1265.86 255.067M1332.53 281.407L1277.48 281.407M1332.53 281.407L1316.69 289.268M1332.53 281.407L1387.58 281.407M1332.53 281.407L1349.24 273.111M1277.48 281.407L1263.08 289.268M1277.48 281.407L1292.68 273.111M1277.48 281.407L1222.44 281.407M1316.69 289.268L1263.08 289.268M1316.69 289.268L1370.3 289.268M1316.69 289.268L1301.66 296.728M1263.08 289.268L1249.42 296.728M1263.08 289.268L1209.48 289.267M1273.79 310.563L1224.08 310.563M1273.79 310.563L1260.84 316.989M1273.79 310.563L1323.49 310.563M1273.79 310.563L1287.38 303.817M1224.08 310.563L1212.31 316.989M1224.08 310.563L1236.43 303.817M1224.08 310.563L1174.37 310.563M1260.84 316.989L1212.31 316.989M1260.84 316.989L1309.37 316.989M1260.84 316.989L1248.49 323.118M1212.31 316.989L1201.08 323.118M1212.31 316.989L1163.78 316.989M1225.43 334.563L1180.12 334.563M1225.43 334.563L1214.65 339.913M1225.43 334.563L1270.74 334.563M1225.43 334.563L1236.7 328.97M1180.12 334.563L1170.32 339.913M1180.12 334.563L1190.36 328.97M1180.12 334.563L1134.81 334.563M1214.65 339.913L1170.32 339.913M1214.65 339.913L1258.98 339.914M1214.65 339.913L1204.33 345.038M1170.32 339.913L1160.93 345.038M1170.32 339.913L1125.99 339.913M1184.93 354.662L1143.3 354.662M1184.93 354.662L1175.82 359.187M1184.93 354.662L1226.56 354.662M1184.93 354.662L1194.43 349.95M1143.3 354.662L1142.25 355.238L1135.02 359.187M1143.3 354.662L1151.93 349.95M1143.3 354.662L1101.67 354.662M1175.82 359.187L1135.02 359.187M1175.82 359.187L1216.62 359.187M1175.82 359.187L1167.06 363.535M1135.02 359.187L1127.05 363.535M1135.02 359.187L1094.21 359.187M1150.52 371.741L1112.02 371.741M1150.52 371.741L1142.71 375.617M1150.52 371.741L1189.02 371.741M1150.52 371.741L1158.63 367.717M1112.02 371.741L1104.92 375.617M1112.02 371.741L1114.75 370.25L1119.39 367.717M1112.02 371.741L1073.52 371.741M1142.71 375.617L1104.92 375.617M1142.71 375.617L1180.5 375.617M1142.71 375.617L1135.19 379.353M1104.92 375.617L1098.08 379.353M1104.92 375.617L1067.13 375.617M1120.92 386.433L1085.11 386.433M1120.92 386.433L1114.16 389.791M1120.92 386.433L1156.73 386.433M1120.92 386.433L1127.93 382.956M1085.11 386.433L1080.48 388.962L1079.72 389.377L1078.96 389.791M1085.11 386.433L1091.48 382.956M1085.11 386.433L1049.3 386.433M1114.16 389.791L1078.96 389.791M1114.16 389.791L1107.62 393.035M1114.16 389.791L1149.35 389.791M1078.96 389.791L1043.76 389.791M1078.96 389.791L1073.02 393.035M1402.74 54.914L1306.2 54.914M1402.74 54.914L1372.34 78.6211M1402.74 54.914L1436.14 28.8629M1402.74 54.914L1453.61 54.9135M1306.2 54.914L1280.15 78.6211M1306.2 54.914L1334.83 28.8629M1306.2 54.914L1209.67 54.914M1372.34 78.6211L1280.15 78.6211M1372.34 78.6211L1344.56 100.287M1372.34 78.6211L1453.61 78.6211M1280.15 78.6211L1256.34 100.287M1280.15 78.6211L1187.96 78.6211M1295.61 138.467L1214.38 138.467M1295.61 138.467L1273.93 155.374M1295.61 138.467L1376.84 138.467M1295.61 138.467L1319.08 120.165M1214.38 138.467L1195.8 155.374M1214.38 138.467L1234.49 120.165M1214.38 138.467L1133.15 138.467M1273.93 155.374L1195.8 155.374M1273.93 155.374L1352.07 155.374M1273.93 155.374L1253.85 171.039M1195.8 155.374L1178.58 171.039M1195.8 155.374L1117.67 155.374M1217.8 199.154L1147.69 199.154M1217.8 199.154L1201.56 211.816M1217.8 199.154L1287.91 199.154M1217.8 199.154L1235.18 185.595M1147.69 199.154L1133.77 211.816M1147.69 199.154L1162.59 185.595M1147.69 199.154L1077.57 199.154M1201.56 211.816L1133.77 211.816M1201.56 211.816L1269.36 211.816M1201.56 211.816L1186.37 223.667M1133.77 211.816L1120.74 223.667M1133.77 211.816L1065.97 211.816M1158.72 245.231L1097.05 245.231M1158.72 245.231L1146.11 255.067M1158.72 245.231L1220.4 245.231M1158.72 245.231L1172.12 234.783M1097.05 245.231L1086.24 255.067M1097.05 245.231L1108.53 234.783M1097.05 245.231L1035.37 245.231M1146.11 255.067L1086.24 255.067M1146.11 255.067L1205.98 255.067M1146.11 255.067L1134.21 264.345M1086.24 255.067L1076.04 264.345M1086.24 255.067L1026.36 255.067M1112.34 281.407L1057.29 281.406M1112.34 281.407L1102.26 289.267M1112.34 281.407L1167.39 281.407M1112.34 281.407L1122.97 273.111M1057.29 281.406L1048.65 289.267M1057.29 281.406L1066.41 273.111M1057.29 281.406L1002.24 281.406M1102.26 289.267L1048.65 289.267M1102.26 289.267L1155.87 289.267M1102.26 289.267L1092.69 296.728M1048.65 289.267L1040.45 296.728M1048.65 289.267L995.042 289.267M1074.95 310.563L1025.25 310.563M1074.95 310.563L1066.72 316.989M1074.95 310.563L1124.66 310.563M1074.95 310.563L1083.6 303.817M1025.25 310.563L1018.18 316.989M1025.25 310.563L1032.66 303.817M1025.25 310.563L975.539 310.563M1066.72 316.989L1018.18 316.989M1066.72 316.989L1115.25 316.989M1066.72 316.989L1058.86 323.118M1018.18 316.989L1011.45 323.118M1018.18 316.989L969.654 316.989M1044.18 334.563L998.871 334.563M1044.18 334.563L1037.32 339.913M1044.18 334.563L1089.5 334.563M1044.18 334.563L1051.35 328.97M998.871 334.563L992.991 339.913M998.871 334.563L1005.02 328.97M998.871 334.563L953.56 334.563M1037.32 339.913L992.991 339.913M1037.32 339.913L1081.65 339.913M1037.32 339.913L1030.75 345.038M992.991 339.913L987.359 345.038M992.991 339.913L948.659 339.913M1018.41 354.662L976.782 354.662M1018.41 354.662L1012.61 359.187M1018.41 354.662L1060.04 354.662M1018.41 354.662L1024.45 349.95M976.782 354.662L977.418 354.084L981.961 349.95M976.782 354.662L971.81 359.187M976.782 354.662L935.151 354.662M1012.61 359.187L971.81 359.187M1012.61 359.187L1053.41 359.187M1012.61 359.187L1007.04 363.535M971.81 359.187L967.031 363.535M971.81 359.187L931.007 359.187M996.514 371.741L958.012 371.741M996.514 371.741L991.545 375.617M996.514 371.741L1035.02 371.741M996.514 371.741L1001.67 367.717M958.012 371.741L953.753 375.617M958.012 371.741L959.651 370.25L960.757 369.244L962.435 367.717M958.012 371.741L919.51 371.741M991.545 375.617L953.753 375.617M991.545 375.617L1029.34 375.617M991.545 375.617L986.755 379.353M953.753 375.617L952.195 377.034L951.169 377.968L949.646 379.353M953.753 375.617L915.961 375.617M977.677 386.433L941.866 386.433M977.677 386.433L974.434 388.962L973.372 389.791M977.677 386.433L1013.49 386.433M977.677 386.433L981.57 383.397L982.135 382.956M941.866 386.433L939.086 388.962L938.631 389.377L938.176 389.791M941.866 386.433L943.76 384.71L945.687 382.956M941.866 386.433L906.055 386.433M973.372 389.791L938.176 389.791M973.372 389.791L969.213 393.035M973.372 389.791L1008.57 389.791M938.176 389.791L902.98 389.791M938.176 389.791L934.611 393.035M1016.6 54.914L920.068 54.9139M1016.6 54.914L1003.58 78.621M1016.6 54.914L1113.14 54.914M1016.6 54.914L1030.92 28.8628M920.068 54.9139L911.383 78.621M920.068 54.9139L929.611 28.8628M920.068 54.9139L823.534 54.9139M1003.58 78.621L911.383 78.621M1003.58 78.621L1095.77 78.6211M1003.58 78.621L991.669 100.287M911.383 78.621L903.446 100.287M911.383 78.621L819.191 78.621M970.689 138.467L889.46 138.467M970.689 138.467L961.399 155.374M970.689 138.467L1051.92 138.467M970.689 138.467L980.747 120.165M889.46 138.467L883.266 155.374M889.46 138.467L896.164 120.165M889.46 138.467L808.23 138.467M961.399 155.374L883.266 155.374M961.399 155.374L1039.53 155.374M961.399 155.374L952.791 171.039M883.266 155.374L877.528 171.039M883.266 155.374L805.133 155.374M937.343 199.154L867.229 199.154M937.343 199.154L930.385 211.816M937.343 199.154L1007.46 199.154M937.343 199.154L944.793 185.595M867.229 199.154L862.59 211.816M867.229 199.154L872.195 185.595M867.229 199.154L797.114 199.154M930.385 211.816L862.59 211.816M930.385 211.816L998.179 211.816M930.385 211.816L923.872 223.667M862.59 211.816L858.248 223.667M862.59 211.816L794.795 211.816M912.023 245.231L850.349 245.231M912.023 245.231L906.618 255.067M912.023 245.231L973.698 245.231M912.023 245.231L917.764 234.783M850.349 245.231L846.746 255.067M850.349 245.231L854.176 234.783M850.349 245.231L788.675 245.231M906.618 255.067L846.746 255.067M906.618 255.067L966.491 255.067M906.618 255.067L901.52 264.345M846.746 255.067L843.347 264.345M846.746 255.067L786.873 255.067M892.145 281.406L837.096 281.406M892.145 281.406L887.826 289.267M892.145 281.406L947.193 281.406M892.145 281.406L896.703 273.111M837.096 281.406L834.217 289.267M837.096 281.406L840.135 273.111M837.096 281.406L782.048 281.406M887.826 289.267L834.217 289.267M887.826 289.267L941.434 289.267M887.826 289.267L883.726 296.728M834.217 289.267L831.484 296.728M834.217 289.267L780.609 289.267M876.124 310.563L826.416 310.563M876.124 310.563L872.593 316.989M876.124 310.563L925.831 310.563M876.124 310.563L879.83 303.817M826.416 310.563L824.061 316.989M826.416 310.563L828.887 303.817M826.416 310.563L776.708 310.563M872.593 316.989L824.061 316.989M872.593 316.989L921.123 316.989M872.593 316.989L871.31 319.321L869.225 323.118M824.061 316.989L821.816 323.118M824.061 316.989L775.531 316.989M862.936 334.563L817.624 334.563M862.936 334.563L859.995 339.913M862.936 334.563L908.248 334.563M862.936 334.563L865.227 330.391L866.009 328.97M817.624 334.563L816.878 336.597L815.664 339.913M817.624 334.563L819.673 328.97M817.624 334.563L772.312 334.563M859.995 339.913L859.637 340.566L857.179 345.038M859.995 339.913L815.664 339.913M859.995 339.913L904.327 339.913M815.664 339.913L814.95 341.861L814.715 342.503L814.481 343.142L813.787 345.038M815.664 339.913L771.331 339.913M851.891 354.662L810.261 354.662M851.891 354.662L850.635 356.947L850.325 357.511L850.017 358.073L849.71 358.631L849.405 359.187M851.891 354.662L893.521 354.662M851.891 354.662L854.48 349.95M810.261 354.662L809.011 358.073L808.806 358.631L808.603 359.187M810.261 354.662L811.987 349.95M810.261 354.662L768.63 354.662M849.405 359.187L808.603 359.187M849.405 359.187L890.206 359.187M849.405 359.187L847.9 361.925L847.604 362.464L847.015 363.535M808.603 359.187L807.601 361.925L807.402 362.464L807.206 363.001L807.01 363.535M808.603 359.187L767.801 359.187M842.506 371.741L804.004 371.741M842.506 371.741L840.376 375.617M842.506 371.741L881.008 371.741M842.506 371.741L843.051 370.75L843.879 369.244L844.717 367.717M804.004 371.741L804.185 371.247L805.291 368.228L805.478 367.717M804.004 371.741L802.584 375.617M804.004 371.741L765.502 371.741M840.376 375.617L802.584 375.617M840.376 375.617L878.168 375.617M840.376 375.617L838.323 379.353M802.584 375.617L802.065 377.034L801.894 377.502L801.723 377.968L801.215 379.353M802.584 375.617L764.792 375.617M834.433 386.433L798.622 386.433M834.433 386.433L833.043 388.962L832.588 389.791M834.433 386.433L870.244 386.433M834.433 386.433L835.142 385.144L835.38 384.71L835.62 384.274L836.344 382.956M798.622 386.433L798.466 386.859L798.156 387.706L797.848 388.545L797.392 389.791M798.622 386.433L799.254 384.71L799.413 384.274L799.734 383.397L799.895 382.956M798.622 386.433L762.811 386.433M832.588 389.791L797.392 389.791M832.588 389.791L831.025 392.635L830.805 393.035M832.588 389.791L867.784 389.791M797.392 389.791L797.241 390.202L797.091 390.612L796.941 391.02L796.793 391.426L796.35 392.635L796.203 393.035M797.392 389.791L762.196 389.791M630.466 54.9139L533.932 54.9139M630.466 54.9139L634.809 78.621M630.466 54.9139L727 54.9139M630.466 54.9139L625.694 28.8628M533.932 54.9139L542.616 78.621M533.932 54.9139L524.389 28.8627M533.932 54.9139L437.398 54.9139M634.809 78.621L542.616 78.621M634.809 78.621L727 78.621M634.809 78.621L638.777 100.287M542.616 78.621L550.554 100.287M542.616 78.621L450.425 78.621M645.77 138.467L564.54 138.467M645.77 138.467L648.867 155.374M645.77 138.467L727 138.467M645.77 138.467L642.417 120.165M564.54 138.467L570.734 155.374M564.54 138.467L557.836 120.165M564.54 138.467L483.311 138.467M648.867 155.374L570.734 155.374M648.867 155.374L727 155.374M648.867 155.374L651.736 171.039M570.734 155.374L576.472 171.039M570.734 155.374L492.601 155.374M656.886 199.154L586.771 199.154M656.886 199.154L659.205 211.816M656.886 199.154L727 199.154M656.886 199.154L654.402 185.594M586.771 199.154L591.41 211.816M586.771 199.154L581.805 185.594M586.771 199.154L516.657 199.154M659.205 211.816L591.41 211.816M659.205 211.816L727 211.816M659.205 211.816L661.376 223.667M591.41 211.816L595.752 223.667M591.41 211.816L523.615 211.816M665.325 245.23L603.651 245.23M665.325 245.23L667.127 255.067M665.325 245.23L727 245.23M665.325 245.23L663.412 234.783M603.651 245.23L607.254 255.067M603.651 245.23L599.824 234.783M603.651 245.23L541.977 245.23M667.127 255.067L607.254 255.067M667.127 255.067L727 255.067M667.127 255.067L668.827 264.345M607.254 255.067L610.653 264.345M607.254 255.067L547.382 255.067M671.952 281.406L616.904 281.406M671.952 281.406L673.391 289.267M671.952 281.406L727 281.406M671.952 281.406L670.432 273.111M616.904 281.406L619.783 289.267M616.904 281.406L613.865 273.111M616.904 281.406L561.855 281.406M673.391 289.267L619.783 289.267M673.391 289.267L727 289.267M673.391 289.267L674.758 296.728M619.783 289.267L622.516 296.728M619.783 289.267L566.174 289.267M677.292 310.563L627.584 310.563M677.292 310.563L678.469 316.989M677.292 310.563L727 310.563M677.292 310.563L676.056 303.817M627.584 310.563L629.939 316.989M627.584 310.563L625.113 303.817M627.584 310.563L577.876 310.563M678.469 316.989L629.939 316.989M678.469 316.989L727 316.989M678.469 316.989L679.592 323.118M629.939 316.989L632.184 323.118M629.939 316.989L581.407 316.989M681.688 334.563L636.376 334.563M681.688 334.563L682.668 339.913M681.688 334.563L727 334.563M681.688 334.563L680.664 328.97M636.376 334.563L638.096 339.257L638.336 339.913M636.376 334.563L634.327 328.97M636.376 334.563L591.064 334.563M682.668 339.913L682.787 340.566L683.607 345.038M682.668 339.913L638.336 339.913M682.668 339.913L727 339.913M638.336 339.913L639.05 341.861L639.285 342.503L639.519 343.142L640.213 345.038M638.336 339.913L594.005 339.913M685.37 354.662L643.739 354.662M685.37 354.662L686.199 359.187M685.37 354.662L727 354.662M685.37 354.662L685.05 352.918L684.942 352.33L684.835 351.74L684.617 350.55L684.506 349.95M643.739 354.662L644.989 358.073L645.397 359.187M643.739 354.662L642.013 349.95M643.739 354.662L602.109 354.662M686.199 359.187L645.397 359.187M686.199 359.187L727 359.187M686.199 359.187L686.995 363.535M645.397 359.187L646.399 361.925L646.598 362.464L646.794 363.001L646.99 363.535M645.397 359.187L604.595 359.187M688.498 371.741L649.996 371.741M688.498 371.741L689.208 375.617M688.498 371.741L727 371.741M688.498 371.741L687.761 367.717M649.996 371.741L649.814 371.247L648.709 368.228L648.522 367.717M649.996 371.741L651.416 375.617M649.996 371.741L611.494 371.741M689.208 375.617L651.416 375.617M689.208 375.617L727 375.617M689.208 375.617L689.892 379.353M651.416 375.617L651.935 377.034L652.106 377.502L652.277 377.968L652.784 379.353M651.416 375.617L613.624 375.617M691.189 386.433L655.378 386.433M691.189 386.433L691.804 389.791M691.189 386.433L727 386.433M691.189 386.433L690.552 382.956M655.378 386.433L655.534 386.859L655.845 387.706L655.998 388.126L656.305 388.962L656.456 389.377L656.608 389.791M655.378 386.433L654.746 384.71L654.587 384.274L654.266 383.397L654.104 382.956M655.378 386.433L619.567 386.433M691.804 389.791L691.879 390.202L691.955 390.612L692.029 391.02L692.398 393.034M691.804 389.791L656.608 389.791M691.804 389.791L727 389.791M656.608 389.791L621.412 389.791M656.608 389.791L656.909 390.612L657.059 391.02L657.207 391.426L657.65 392.635L657.797 393.034M244.33 54.9139L147.796 54.9138M244.33 54.9139L266.042 78.6209M244.33 54.9139L340.863 54.9139M244.33 54.9139L220.471 28.8627M147.796 54.9138L173.85 78.6209M147.796 54.9138L119.166 28.8627M147.796 54.9138L51.2614 54.9138M266.042 78.6209L173.85 78.6209M266.042 78.6209L358.233 78.621M266.042 78.6209L285.884 100.287M173.85 78.6209L197.661 100.287M173.85 78.6209L81.6579 78.6209M320.851 138.467L239.62 138.467M320.851 138.467L336.334 155.374M320.851 138.467L402.08 138.467M320.851 138.467L304.089 120.165M239.62 138.467L258.201 155.374M239.62 138.467L219.507 120.165M239.62 138.467L158.391 138.467M336.334 155.374L258.201 155.374M336.334 155.374L414.467 155.374M336.334 155.374L350.681 171.039M258.201 155.374L275.417 171.039M258.201 155.374L180.068 155.374M376.429 199.154L306.315 199.154M376.429 199.154L388.026 211.816M376.429 199.154L446.543 199.154M376.429 199.154L364.011 185.594M306.315 199.154L320.23 211.816M306.315 199.154L291.413 185.594M306.315 199.154L236.201 199.154M388.026 211.816L320.23 211.816M388.026 211.816L455.821 211.816M388.026 211.816L398.879 223.667M320.23 211.816L333.255 223.667M320.23 211.816L252.436 211.816M418.627 245.23L356.953 245.23M418.627 245.23L427.636 255.067M418.627 245.23L480.302 245.23M418.627 245.23L409.059 234.783M356.953 245.23L367.763 255.067M356.953 245.23L345.471 234.783M356.953 245.23L295.278 245.23M427.636 255.067L367.763 255.067M427.636 255.067L487.509 255.067M427.636 255.067L436.133 264.345M367.763 255.067L377.96 264.345M367.763 255.067L307.891 255.067M451.758 281.406L396.71 281.406M451.758 281.406L458.958 289.267M451.758 281.406L506.806 281.406M451.758 281.406L444.162 273.111M396.71 281.406L405.349 289.267M396.71 281.406L387.594 273.111M396.71 281.406L341.661 281.406M458.958 289.267L405.349 289.267M458.958 289.267L512.566 289.267M458.958 289.267L465.79 296.728M405.349 289.267L413.548 296.728M405.349 289.267L351.741 289.267M478.46 310.563L428.753 310.563M478.46 310.563L484.346 316.989M478.46 310.563L528.169 310.563M478.46 310.563L472.283 303.817M428.753 310.563L435.815 316.989M428.753 310.563L421.339 303.817M428.753 310.563L379.045 310.563M484.346 316.989L435.815 316.989M484.346 316.989L532.877 316.989M484.346 316.989L489.959 323.118M435.815 316.989L442.551 323.118M435.815 316.989L387.285 316.989M500.44 334.563L499.813 333.877L499.181 333.188L495.319 328.97M500.44 334.563L455.129 334.563M500.44 334.563L505.341 339.913M500.44 334.563L545.752 334.563M455.129 334.563L461.009 339.913M455.129 334.563L448.982 328.97M455.129 334.563L409.816 334.563M505.341 339.913L461.009 339.913M505.341 339.913L549.673 339.913M505.341 339.913L510.034 345.038M461.009 339.913L466.641 345.038M461.009 339.913L416.677 339.913M518.849 354.662L477.218 354.662M518.849 354.662L522.992 359.187M518.849 354.662L560.479 354.662M518.849 354.662L514.533 349.95M477.218 354.662L480.35 357.511L482.19 359.187M477.218 354.662L472.039 349.95M477.218 354.662L435.588 354.662M522.992 359.187L482.19 359.187M522.992 359.187L563.794 359.187M522.992 359.187L526.485 363.001L526.974 363.535M482.19 359.187L486.969 363.535M482.19 359.187L441.389 359.187M534.49 371.741L495.988 371.741M534.49 371.741L535.389 372.724L538.039 375.617M534.49 371.741L572.991 371.741M534.49 371.741L533.581 370.75L531.738 368.737L530.804 367.717M495.988 371.741L500.247 375.617M495.988 371.741L494.349 370.25L493.243 369.244L491.565 367.717M495.988 371.741L457.486 371.741M538.039 375.617L500.247 375.617M538.039 375.617L575.832 375.617M538.039 375.617L540.617 378.432L541.461 379.353M500.247 375.617L501.805 377.034L502.831 377.968L504.353 379.353M500.247 375.617L462.455 375.617M547.945 386.433L512.133 386.433M547.945 386.433L549.879 388.545L551.02 389.791M547.945 386.433L583.756 386.433M547.945 386.433L544.76 382.956M512.133 386.433L514.914 388.962L515.369 389.377L515.824 389.791M512.133 386.433L510.24 384.71L508.313 382.956M512.133 386.433L476.323 386.433M551.02 389.791L515.824 389.791M551.02 389.791L552.518 391.426L553.257 392.234L553.625 392.635L553.991 393.034M551.02 389.791L586.216 389.791M515.824 389.791L480.627 389.791M515.824 389.791L519.389 393.034M23.8018 155.374L101.935 155.374M23.8018 155.374L49.625 171.039M23.8018 155.374L0.391249 155.374M23.8018 155.374L0.391249 141.173M95.9721 199.154L25.8582 199.154M95.9721 199.154L116.845 211.816M95.9721 199.154L166.086 199.154M95.9721 199.154L73.6198 185.594M25.8582 199.154L49.0505 211.816M25.8582 199.154L1.02174 185.594M25.8582 199.154L0.391246 199.154M116.845 211.816L49.0505 211.816M116.845 211.816L184.64 211.816M116.845 211.816L136.383 223.667M49.0505 211.816L70.7588 223.667M49.0505 211.816L0.391246 211.816M171.929 245.23L110.255 245.23M171.929 245.23L188.145 255.067M171.929 245.23L233.604 245.23M171.929 245.23L154.707 234.783M110.255 245.23L128.271 255.067M110.255 245.23L91.1189 234.783M110.255 245.23L48.5798 245.23M188.145 255.067L128.271 255.067M188.145 255.067L248.017 255.067M188.145 255.067L203.44 264.345M128.271 255.067L145.266 264.345M128.271 255.067L68.3988 255.067M231.565 281.406L176.517 281.406M231.565 281.406L244.523 289.267M231.565 281.406L286.613 281.406M231.565 281.406L217.89 273.111M176.517 281.406L190.916 289.267M176.517 281.406L161.322 273.111M176.517 281.406L121.468 281.406M244.523 289.267L190.916 289.267M244.523 289.267L298.132 289.267M244.523 289.267L256.822 296.728M190.916 289.267L204.58 296.728M190.916 289.267L137.307 289.267M279.629 310.563L229.922 310.563M279.629 310.563L290.223 316.989M279.629 310.563L329.337 310.563M279.629 310.563L268.509 303.817M229.922 310.563L241.692 316.989M229.922 310.563L217.566 303.817M229.922 310.563L180.214 310.563M290.223 316.989L241.692 316.989M290.223 316.989L338.753 316.989M290.223 316.989L300.326 323.118M241.692 316.989L252.918 323.118M241.692 316.989L193.161 316.989M319.192 334.563L273.881 334.563M319.192 334.563L328.014 339.913M319.192 334.563L364.505 334.563M319.192 334.563L309.973 328.97M273.881 334.563L283.682 339.913M273.881 334.563L263.636 328.969M273.881 334.563L228.569 334.563M328.014 339.913L283.682 339.913M328.014 339.913L372.345 339.913M328.014 339.913L336.461 345.038M283.682 339.913L293.068 345.038M283.682 339.913L239.35 339.913M352.327 354.662L310.697 354.662M352.327 354.662L359.786 359.187M352.327 354.662L393.957 354.662M352.327 354.662L344.558 349.95M310.697 354.662L318.984 359.187M310.697 354.662L302.065 349.95M310.697 354.662L269.066 354.662M359.786 359.187L318.984 359.187M359.786 359.187L400.588 359.187M359.786 359.187L366.954 363.535M318.984 359.187L326.949 363.535M318.984 359.187L278.183 359.187M380.482 371.741L341.98 371.741M380.482 371.741L386.871 375.617M380.482 371.741L418.984 371.741M380.482 371.741L378.846 370.75L378.023 370.25L373.847 367.717M341.98 371.741L349.079 375.617M341.98 371.741L334.608 367.717M341.98 371.741L303.478 371.741M386.871 375.617L349.079 375.617M386.871 375.617L424.663 375.617M386.871 375.617L393.029 379.353M349.079 375.617L355.922 379.353M349.079 375.617L311.287 375.617M404.701 386.433L368.889 386.433M404.701 386.433L410.236 389.791M404.701 386.433L440.512 386.433M404.701 386.433L398.969 382.956M368.889 386.433L373.522 388.962L374.282 389.377L375.04 389.791M368.889 386.433L362.521 382.956M368.889 386.433L333.079 386.433M410.236 389.791L375.04 389.791M410.236 389.791L414.925 392.635L415.584 393.034M410.236 389.791L445.432 389.791M375.04 389.791L339.843 389.791M375.04 389.791L380.981 393.034M11.3713 281.406L30.0898 289.267M11.3713 281.406L66.4196 281.406M11.3713 281.406L0.391242 276.795M11.3713 281.406L0.391242 281.406M30.0898 289.267L83.6985 289.267M30.0898 289.267L47.8539 296.728M30.0898 289.267L0.391241 289.267M80.7981 310.563L31.0897 310.563M80.7981 310.563L96.1 316.989M80.7981 310.563L130.506 310.563M80.7981 310.563L64.7355 303.817M31.0897 310.563L47.5686 316.989M31.0897 310.563L13.7919 303.817M31.0897 310.563L0.39124 310.563M96.1 316.989L47.5686 316.989M96.1 316.989L144.631 316.989M96.1 316.989L110.693 323.118M47.5686 316.989L63.2853 323.118M47.5686 316.989L0.39124 316.989M137.945 334.563L92.6327 334.563M137.945 334.563L150.687 339.913M137.945 334.563L183.257 334.563M137.945 334.563L124.627 328.969M92.6327 334.563L106.355 339.913M92.6327 334.563L78.2913 328.969M92.6327 334.563L47.3212 334.563M150.687 339.913L106.355 339.913M150.687 339.913L195.019 339.913M150.687 339.913L162.889 345.038M106.355 339.913L119.495 345.038M106.355 339.913L62.0228 339.913M185.806 354.662L144.176 354.662M185.806 354.662L196.58 359.187M185.806 354.662L227.436 354.662M185.806 354.662L174.585 349.95M144.176 354.662L155.778 359.187M144.176 354.662L132.091 349.95M144.176 354.662L102.545 354.662M196.58 359.187L155.778 359.187M196.58 359.187L237.381 359.187M196.58 359.187L206.934 363.535M155.778 359.187L166.928 363.535M155.778 359.187L114.977 359.187M226.473 371.741L187.971 371.741M226.473 371.741L235.703 375.617M226.473 371.741L264.975 371.741M226.473 371.741L216.89 367.717M187.971 371.741L197.911 375.617M187.971 371.741L177.651 367.717M187.971 371.741L149.469 371.741M235.703 375.617L197.911 375.617M235.703 375.617L273.495 375.617M235.703 375.617L244.598 379.353M197.911 375.617L207.491 379.353M197.911 375.617L160.119 375.617M261.457 386.433L225.645 386.433M261.457 386.433L269.451 389.791M261.457 386.433L297.268 386.433M261.457 386.433L253.178 382.956M225.645 386.433L234.256 389.791M225.645 386.433L216.729 382.956M225.645 386.433L189.834 386.433M269.451 389.791L234.256 389.791M269.451 389.791L277.176 393.034M269.451 389.791L304.647 389.791M234.256 389.791L199.059 389.791M234.256 389.791L242.574 393.034M19.2847 354.662L33.374 359.187M19.2847 354.662L60.9147 354.662M19.2847 354.662L4.61084 349.95M19.2847 354.662L0.391238 354.662M33.374 359.187L74.1753 359.187M33.374 359.187L46.9131 363.535M33.374 359.187L0.391238 359.187M72.4656 371.741L33.9636 371.741M72.4656 371.741L84.5348 375.617M72.4656 371.741L110.967 371.741M72.4656 371.741L59.9338 367.717M33.9636 371.741L46.7428 375.617M33.9636 371.741L20.6946 367.717M33.9636 371.741L0.391237 371.741M84.5348 375.617L46.7428 375.617M84.5348 375.617L122.327 375.617M84.5348 375.617L96.1674 379.353M46.7428 375.617L59.0596 379.353M46.7428 375.617L8.95081 375.617M118.212 386.433L82.4012 386.433M118.212 386.433L128.667 389.791M118.212 386.433L154.024 386.433M118.212 386.433L107.386 382.956M82.4012 386.433L93.4713 389.79M82.4012 386.433L70.9381 382.956M82.4012 386.433L46.59 386.433M128.667 389.791L93.4713 389.79M128.667 389.791L138.769 393.034M128.667 389.791L163.863 389.791M93.4713 389.79L58.2747 389.79M93.4713 389.79L104.167 393.034M70.9381 382.956L59.0596 379.353M70.9381 382.956L34.4896 382.956M70.9381 382.956L107.386 382.956M46.59 386.433L58.2747 389.79M46.59 386.433L34.4896 382.956M46.59 386.433L10.7794 386.433M58.2747 389.79L23.0789 389.79M58.2747 389.79L69.5651 393.034M104.167 393.034L138.769 393.034M104.167 393.034L69.5651 393.034M104.167 393.034L114.507 396.171M34.4896 382.956L21.9511 379.353M34.4896 382.956L0.391236 382.956M10.7794 386.433L23.0789 389.79M10.7794 386.433L0.391236 383.597M10.7794 386.433L0.391236 386.433M23.0789 389.79L34.9635 393.034M23.0789 389.79L0.391236 389.79M69.5651 393.034L34.9635 393.034M69.5651 393.034L80.4801 396.171M34.9635 393.034L46.453 396.171M34.9635 393.034L0.391236 393.034M59.0596 379.353L21.9511 379.353M59.0596 379.353L96.1674 379.353M8.95081 375.617L21.9511 379.353M8.95081 375.617L0.391237 373.158M8.95081 375.617L0.391237 375.617M21.9511 379.353L0.391237 379.353M96.1674 379.353L133.275 379.353M96.1674 379.353L107.386 382.956M107.386 382.956L143.834 382.956M20.6946 367.717L6.90796 363.535M20.6946 367.717L59.9338 367.717M20.6946 367.717L0.391237 367.717M0.273927 371.741L0.391237 371.741M6.90796 363.535L46.9131 363.535M6.90796 363.535L0.391238 361.559M6.90796 363.535L0.391237 363.535M46.9131 363.535L86.9182 363.535M46.9131 363.535L59.9338 367.717M59.9338 367.717L99.173 367.717M216.729 382.956L207.491 379.353M216.729 382.956L180.281 382.956M216.729 382.956L253.178 382.956M189.834 386.433L199.059 389.791M189.834 386.433L180.281 382.956M189.834 386.433L154.024 386.433M199.059 389.791L163.863 389.791M199.059 389.791L207.973 393.034M242.574 393.034L207.973 393.034M242.574 393.034L250.617 396.171M242.574 393.034L277.176 393.034M180.281 382.956L170.383 379.353M180.281 382.956L143.834 382.956M154.024 386.433L163.863 389.791M154.024 386.433L143.834 382.956M163.863 389.791L173.37 393.034M207.973 393.034L173.37 393.034M207.973 393.034L216.59 396.171M143.834 382.956L133.275 379.353M138.769 393.034L173.37 393.034M138.769 393.034L148.535 396.171M173.37 393.034L182.563 396.171M207.491 379.353L170.383 379.353M207.491 379.353L244.598 379.353M160.119 375.617L170.383 379.353M160.119 375.617L149.469 371.741M160.119 375.617L122.327 375.617M170.383 379.353L133.275 379.353M244.598 379.353L281.706 379.353M244.598 379.353L253.178 382.956M133.275 379.353L122.327 375.617M253.178 382.956L289.625 382.956M149.469 371.741L138.412 367.717M149.469 371.741L110.967 371.741M122.327 375.617L110.967 371.741M110.967 371.741L99.173 367.717M177.651 367.717L166.928 363.535M177.651 367.717L138.412 367.717M177.651 367.717L216.89 367.717M138.412 367.717L126.923 363.535M138.412 367.717L99.173 367.717M99.173 367.717L86.9182 363.535M166.928 363.535L126.923 363.535M166.928 363.535L206.934 363.535M114.977 359.187L126.923 363.535M114.977 359.187L102.545 354.662M114.977 359.187L74.1753 359.187M126.923 363.535L86.9182 363.535M206.934 363.535L246.939 363.535M206.934 363.535L216.89 367.717M86.9182 363.535L74.1753 359.187M216.89 367.717L256.13 367.717M102.545 354.662L89.5977 349.95M102.545 354.662L60.9147 354.662M74.1753 359.187L60.9147 354.662M60.9147 354.662L47.1046 349.95M132.091 349.95L119.495 345.038M132.091 349.95L89.5977 349.95M132.091 349.95L174.585 349.95M89.5977 349.95L76.1024 345.038M89.5977 349.95L47.1046 349.95M47.1046 349.95L32.7095 345.038M47.1046 349.95L4.61084 349.95M4.61084 349.95L0.391238 349.95M4.61084 349.95L0.391238 348.595M119.495 345.038L76.1024 345.038M119.495 345.038L162.889 345.038M62.0228 339.913L76.1024 345.038M62.0228 339.913L47.3212 334.563M62.0228 339.913L17.6914 339.913M76.1024 345.038L32.7095 345.038M162.889 345.038L206.282 345.038M162.889 345.038L174.585 349.95M32.7095 345.038L17.6914 339.913M32.7095 345.038L0.391238 345.038M174.585 349.95L217.078 349.95M47.3212 334.563L31.9548 328.969M47.3212 334.563L2.0094 334.563M17.6914 339.913L2.0094 334.563M17.6914 339.913L0.391239 339.913M0.164188 345.038L0.391238 345.038M2.0094 334.563L0.391239 334.01M2.0094 334.563L0.391239 334.563M78.2913 328.969L63.2853 323.118M78.2913 328.969L31.9548 328.969M78.2913 328.969L124.627 328.969M31.9548 328.969L15.8771 323.118M31.9548 328.969L0.391239 328.969M3.64728e-06 333.877L0.391239 334.01M63.2853 323.118L15.8771 323.118M63.2853 323.118L110.693 323.118M15.8771 323.118L0.39124 323.118M15.8771 323.118L0.39124 317.481M110.693 323.118L158.102 323.118M110.693 323.118L124.627 328.969M124.627 328.969L170.963 328.969M13.7919 303.817L64.7355 303.817M13.7919 303.817L0.391241 298.591M13.7919 303.817L0.391241 303.817M0.0225879 310.563L0.39124 310.563M64.7355 303.817L115.679 303.817M64.7355 303.817L47.8539 296.728M0.243658 298.534L0.391241 298.591M362.521 382.956L355.922 379.353M362.521 382.956L326.073 382.956M362.521 382.956L398.969 382.956M333.079 386.433L339.843 389.791M333.079 386.433L326.073 382.956M333.079 386.433L297.268 386.433M339.843 389.791L304.647 389.791M339.843 389.791L346.38 393.034M380.981 393.034L346.38 393.034M380.981 393.034L383.159 394.223L386.727 396.171M380.981 393.034L415.584 393.034M326.073 382.956L318.814 379.353M326.073 382.956L289.625 382.956M297.268 386.433L304.647 389.791M297.268 386.433L289.625 382.956M304.647 389.791L311.778 393.034M346.38 393.034L311.778 393.034M346.38 393.034L352.699 396.171M289.625 382.956L281.706 379.353M277.176 393.034L284.644 396.171M277.176 393.034L311.778 393.034M311.778 393.034L312.652 393.433L314.391 394.223L318.672 396.171M355.922 379.353L318.814 379.353M355.922 379.353L393.029 379.353M311.287 375.617L318.814 379.353M311.287 375.617L303.478 371.741M311.287 375.617L273.495 375.617M318.814 379.353L281.706 379.353M393.029 379.353L430.137 379.353M393.029 379.353L398.969 382.956M281.706 379.353L273.495 375.617M398.969 382.956L435.417 382.956M303.478 371.741L295.369 367.717M303.478 371.741L264.975 371.741M273.495 375.617L272.447 375.141L264.975 371.741M264.975 371.741L256.13 367.717M334.608 367.717L333.667 367.203L326.949 363.535M334.608 367.717L295.369 367.717M334.608 367.717L373.847 367.717M295.369 367.717L286.944 363.535M295.369 367.717L256.13 367.717M256.13 367.717L246.939 363.535M326.949 363.535L286.944 363.535M326.949 363.535L366.954 363.535M278.183 359.187L286.944 363.535M278.183 359.187L269.066 354.662M278.183 359.187L237.381 359.187M286.944 363.535L246.939 363.535M366.954 363.535L406.959 363.535M366.954 363.535L373.847 367.717M246.939 363.535L237.381 359.187M373.847 367.717L413.086 367.717M269.066 354.662L259.572 349.95M269.066 354.662L227.436 354.662M237.381 359.187L227.436 354.662M227.436 354.662L217.078 349.95M302.065 349.95L293.068 345.038M302.065 349.95L259.572 349.95M302.065 349.95L344.558 349.95M259.572 349.95L249.675 345.038M259.572 349.95L217.078 349.95M217.078 349.95L206.282 345.038M293.068 345.038L249.675 345.038M293.068 345.038L336.461 345.038M239.35 339.913L249.675 345.038M239.35 339.913L228.569 334.563M239.35 339.913L195.019 339.913M249.675 345.038L206.282 345.038M336.461 345.038L379.854 345.038M336.461 345.038L344.558 349.95M206.282 345.038L195.019 339.913M344.558 349.95L387.052 349.95M228.569 334.563L217.3 328.969M228.569 334.563L183.257 334.563M195.019 339.913L183.257 334.563M183.257 334.563L170.963 328.969M263.636 328.969L252.918 323.118M263.636 328.969L217.3 328.969M263.636 328.969L309.973 328.97M217.3 328.969L205.51 323.118M217.3 328.969L170.963 328.969M170.963 328.969L158.102 323.118M252.918 323.118L205.51 323.118M252.918 323.118L300.326 323.118M193.161 316.989L205.51 323.118M193.161 316.989L180.214 310.563M193.161 316.989L144.631 316.989M205.51 323.118L158.102 323.118M300.326 323.118L347.734 323.118M300.326 323.118L309.973 328.97M158.102 323.118L144.631 316.989M309.973 328.97L356.309 328.97M180.214 310.563L166.623 303.817M180.214 310.563L130.506 310.563M144.631 316.989L130.506 310.563M130.506 310.563L115.679 303.817M217.566 303.817L204.58 296.728M217.566 303.817L166.623 303.817M217.566 303.817L268.509 303.817M166.623 303.817L152.338 296.728M166.623 303.817L115.679 303.817M115.679 303.817L100.096 296.728M204.58 296.728L152.338 296.728M204.58 296.728L256.822 296.728M137.307 289.267L152.338 296.728M137.307 289.267L121.468 281.406M137.307 289.267L83.6985 289.267M152.338 296.728L100.096 296.728M256.822 296.728L309.064 296.728M256.822 296.728L268.509 303.817M100.096 296.728L83.6985 289.267M100.096 296.728L47.8539 296.728M268.509 303.817L319.453 303.817M121.468 281.406L104.755 273.111M121.468 281.406L66.4196 281.406M83.6985 289.267L66.4196 281.406M47.8539 296.728L0.391241 296.728M66.4196 281.406L48.1869 273.111M161.322 273.111L145.266 264.345M161.322 273.111L104.755 273.111M161.322 273.111L217.89 273.111M104.755 273.111L87.0931 264.345M104.755 273.111L48.1869 273.111M48.1869 273.111L28.9197 264.345M48.1869 273.111L0.391242 273.111M145.266 264.345L87.0931 264.345M145.266 264.345L203.44 264.345M68.3988 255.067L87.0931 264.345M68.3988 255.067L48.5798 245.23M68.3988 255.067L8.52625 255.067M87.0931 264.345L28.9197 264.345M203.44 264.345L261.613 264.345M203.44 264.345L217.89 273.111M28.9197 264.345L8.52625 255.067M28.9197 264.345L0.391243 264.345M217.89 273.111L274.458 273.111M48.5798 245.23L27.5309 234.783M48.5798 245.23L0.391244 245.23M8.52625 255.067L0.391243 255.067M8.52625 255.067L0.391243 251.366M91.1189 234.783L70.7588 223.667M91.1189 234.783L27.5309 234.783M91.1189 234.783L154.707 234.783M27.5309 234.783L5.13465 223.667M27.5309 234.783L0.391244 234.783M70.7588 223.667L5.13465 223.667M70.7588 223.667L136.383 223.667M5.13465 223.667L0.391245 221.313M5.13465 223.667L0.391245 223.667M136.383 223.667L202.007 223.667M136.383 223.667L154.707 234.783M154.707 234.783L218.295 234.783M1.02174 185.594L73.6198 185.594M1.02174 185.594L0.391247 185.594M1.02174 185.594L0.391247 185.25M73.6198 185.594L146.217 185.594M73.6198 185.594L49.625 171.039M508.313 382.956L506.844 381.62L506.351 381.171L504.353 379.353M508.313 382.956L471.865 382.956M508.313 382.956L544.76 382.956M476.323 386.433L479.565 388.962L480.627 389.791M476.323 386.433L472.43 383.397L471.865 382.956M476.323 386.433L440.512 386.433M480.627 389.791L445.432 389.791M480.627 389.791L484.787 393.034M519.389 393.034L484.787 393.034M519.389 393.034L520.695 394.223L522.836 396.171M519.389 393.034L553.991 393.034M471.865 382.956L470.725 382.068L467.245 379.353M471.865 382.956L435.417 382.956M440.512 386.433L445.432 389.791M440.512 386.433L435.417 382.956M445.432 389.791L449.012 392.234L450.185 393.034M484.787 393.034L450.185 393.034M484.787 393.034L488.809 396.171M435.417 382.956L430.137 379.353M415.584 393.034L416.239 393.433L420.754 396.171M415.584 393.034L450.185 393.034M450.185 393.034L451.927 394.223L454.781 396.171M504.353 379.353L467.245 379.353M504.353 379.353L541.461 379.353M462.455 375.617L467.245 379.353M462.455 375.617L457.486 371.741M462.455 375.617L424.663 375.617M467.245 379.353L430.137 379.353M541.461 379.353L578.569 379.353M541.461 379.353L544.76 382.956M430.137 379.353L424.663 375.617M544.76 382.956L581.208 382.956M457.486 371.741L454.284 369.244L453.634 368.737L452.326 367.717M457.486 371.741L418.984 371.741M424.663 375.617L418.984 371.741M418.984 371.741L413.086 367.717M491.565 367.717L486.969 363.535M491.565 367.717L452.326 367.717M491.565 367.717L530.804 367.717M452.326 367.717L446.964 363.535M452.326 367.717L413.086 367.717M413.086 367.717L406.959 363.535M486.969 363.535L446.964 363.535M486.969 363.535L526.974 363.535M441.389 359.187L444.899 361.925L445.59 362.464L446.964 363.535M441.389 359.187L435.588 354.662M441.389 359.187L400.588 359.187M446.964 363.535L406.959 363.535M526.974 363.535L566.979 363.535M526.974 363.535L530.804 367.717M406.959 363.535L400.588 359.187M530.804 367.717L570.043 367.717M435.588 354.662L429.545 349.95M435.588 354.662L393.957 354.662M400.588 359.187L393.957 354.662M393.957 354.662L387.052 349.95M472.039 349.95L469.368 347.52L468.692 346.904L466.641 345.038M472.039 349.95L429.545 349.95M472.039 349.95L514.533 349.95M429.545 349.95L423.248 345.038M429.545 349.95L387.052 349.95M387.052 349.95L379.854 345.038M466.641 345.038L423.248 345.038M466.641 345.038L510.034 345.038M416.677 339.913L423.248 345.038M416.677 339.913L409.816 334.563M416.677 339.913L372.345 339.913M423.248 345.038L379.854 345.038M510.034 345.038L553.428 345.038M510.034 345.038L511.177 346.285L514.533 349.95M379.854 345.038L372.345 339.913M514.533 349.95L557.026 349.95M409.816 334.563L402.646 328.97M409.816 334.563L364.505 334.563M372.345 339.913L364.505 334.563M364.505 334.563L356.309 328.97M448.982 328.97L442.551 323.118M448.982 328.97L402.646 328.97M448.982 328.97L495.319 328.97M402.646 328.97L395.143 323.118M402.646 328.97L356.309 328.97M356.309 328.97L347.734 323.118M442.551 323.118L395.143 323.118M442.551 323.118L489.959 323.118M387.285 316.989L395.143 323.118M387.285 316.989L379.045 310.563M387.285 316.989L338.753 316.989M395.143 323.118L347.734 323.118M489.959 323.118L537.367 323.118M489.959 323.118L495.319 328.97M347.734 323.118L338.753 316.989M495.319 328.97L541.654 328.97M379.045 310.563L370.396 303.817M379.045 310.563L329.337 310.563M338.753 316.989L329.337 310.563M329.337 310.563L319.453 303.817M421.339 303.817L413.548 296.728M421.339 303.817L370.396 303.817M421.339 303.817L472.283 303.817M370.396 303.817L361.306 296.728M370.396 303.817L319.453 303.817M319.453 303.817L309.064 296.728M413.548 296.728L361.306 296.728M413.548 296.728L465.79 296.728M351.741 289.267L361.306 296.728M351.741 289.267L341.661 281.406M351.741 289.267L298.132 289.267M361.306 296.728L309.064 296.728M465.79 296.728L518.032 296.728M465.79 296.728L472.283 303.817M309.064 296.728L298.132 289.267M472.283 303.817L523.226 303.817M341.661 281.406L331.026 273.111M341.661 281.406L286.613 281.406M298.132 289.267L286.613 281.406M286.613 281.406L274.458 273.111M387.594 273.111L377.96 264.345M387.594 273.111L331.026 273.111M387.594 273.111L444.162 273.111M331.026 273.111L319.787 264.345M331.026 273.111L274.458 273.111M274.458 273.111L261.613 264.345M377.96 264.345L319.787 264.345M377.96 264.345L436.133 264.345M307.891 255.067L319.787 264.345M307.891 255.067L295.278 245.23M307.891 255.067L248.017 255.067M319.787 264.345L261.613 264.345M436.133 264.345L494.307 264.345M436.133 264.345L444.162 273.111M261.613 264.345L248.017 255.067M444.162 273.111L500.729 273.111M295.278 245.23L281.883 234.783M295.278 245.23L233.604 245.23M248.017 255.067L233.604 245.23M233.604 245.23L218.295 234.783M345.471 234.783L333.255 223.667M345.471 234.783L281.883 234.783M345.471 234.783L409.059 234.783M281.883 234.783L267.631 223.667M281.883 234.783L218.295 234.783M218.295 234.783L202.007 223.667M333.255 223.667L267.631 223.667M333.255 223.667L398.879 223.667M252.436 211.816L267.631 223.667M252.436 211.816L236.201 199.154M252.436 211.816L184.64 211.816M267.631 223.667L202.007 223.667M398.879 223.667L464.503 223.667M398.879 223.667L409.059 234.783M202.007 223.667L184.64 211.816M409.059 234.783L472.648 234.783M236.201 199.154L218.815 185.594M236.201 199.154L166.086 199.154M184.64 211.816L166.086 199.154M166.086 199.154L146.217 185.594M291.413 185.594L275.417 171.039M291.413 185.594L218.815 185.594M291.413 185.594L364.011 185.594M218.815 185.594L200.153 171.039M218.815 185.594L146.217 185.594M146.217 185.594L124.889 171.039M275.417 171.039L200.153 171.039M275.417 171.039L350.681 171.039M180.068 155.374L200.153 171.039M180.068 155.374L158.391 138.467M180.068 155.374L101.935 155.374M200.153 171.039L124.889 171.039M350.681 171.039L425.945 171.039M350.681 171.039L364.011 185.594M124.889 171.039L101.935 155.374M124.889 171.039L49.625 171.039M364.011 185.594L436.609 185.594M158.391 138.467L134.924 120.165M158.391 138.467L77.1613 138.467M101.935 155.374L77.1613 138.467M49.625 171.039L0.391248 171.039M77.1613 138.467L50.3418 120.165M77.1613 138.467L0.391249 138.467M219.507 120.165L197.661 100.287M219.507 120.165L134.924 120.165M219.507 120.165L304.089 120.165M134.924 120.165L109.438 100.287M134.924 120.165L50.3418 120.165M50.3418 120.165L21.2146 100.287M50.3418 120.165L0.39125 120.165M197.661 100.287L109.438 100.287M197.661 100.287L285.884 100.287M81.6579 78.6209L109.438 100.287M81.6579 78.6209L51.2614 54.9138M81.6579 78.6209L0.391253 78.6209M109.438 100.287L21.2146 100.287M285.884 100.287L374.107 100.287M285.884 100.287L304.089 120.165M21.2146 100.287L0.391251 100.287M21.2146 100.287L0.391252 86.0761M304.089 120.165L388.671 120.165M51.2614 54.9138L17.8601 28.8627M51.2614 54.9138L0.391254 54.9138M119.166 28.8627L87.5586 0.102132M119.166 28.8627L17.8601 28.8627M119.166 28.8627L220.471 28.8627M17.8601 28.8627L0.391256 15.2377M17.8601 28.8627L0.391255 28.8627M87.5586 0.102132L194.132 0.102148M87.5586 0.102132L0.391257 0.102634M194.132 0.102148L300.705 0.102163M194.132 0.102148L220.471 28.8627M220.471 28.8627L321.777 28.8627M654.104 382.956L653.942 382.513L653.779 382.068L653.615 381.62L653.451 381.171L652.952 379.811L652.784 379.353M654.104 382.956L617.656 382.956M654.104 382.956L690.552 382.956M619.567 386.433L620.957 388.962L621.412 389.791M619.567 386.433L618.38 384.274L617.656 382.956M619.567 386.433L583.756 386.433M621.412 389.791L586.216 389.791M621.412 389.791L622.754 392.234L623.195 393.034M657.797 393.034L657.942 393.433L658.518 395.007L658.946 396.171M657.797 393.034L623.195 393.034M657.797 393.034L692.398 393.034M617.656 382.956L617.413 382.513L617.168 382.068L616.922 381.62L616.675 381.171L615.677 379.353M617.656 382.956L581.208 382.956M583.756 386.433L585.609 388.962L586.216 389.791M583.756 386.433L581.208 382.956M586.216 389.791L587.415 391.426L588.3 392.635L588.592 393.034M623.195 393.034L623.413 393.433L623.847 394.223L624.279 395.007L624.492 395.397L624.918 396.171M623.195 393.034L588.592 393.034M581.208 382.956L579.237 380.266L578.569 379.353M553.991 393.034L556.154 395.397L556.863 396.171M553.991 393.034L588.592 393.034M588.592 393.034L590.607 395.785L590.891 396.171M652.784 379.353L615.677 379.353M652.784 379.353L689.892 379.353M613.624 375.617L615.677 379.353M613.624 375.617L611.494 371.741M613.624 375.617L575.832 375.617M615.677 379.353L578.569 379.353M689.892 379.353L727 379.353M689.892 379.353L690.552 382.956M578.569 379.353L575.832 375.617M690.552 382.956L727 382.956M611.494 371.741L610.948 370.75L610.121 369.244L609.283 367.717M611.494 371.741L572.991 371.741M575.832 375.617L575.482 375.141L572.991 371.741M572.991 371.741L572.63 371.247L572.265 370.75L571.899 370.25L570.043 367.717M648.522 367.717L646.99 363.535M648.522 367.717L609.283 367.717M648.522 367.717L687.761 367.717M609.283 367.717L606.985 363.535M609.283 367.717L570.043 367.717M570.043 367.717L567.757 364.596L567.369 364.067L566.979 363.535M646.99 363.535L606.985 363.535M646.99 363.535L686.995 363.535M604.595 359.187L604.29 358.631L603.983 358.073L603.675 357.511L602.109 354.662M604.595 359.187L605.802 361.383L606.1 361.925L606.396 362.464L606.985 363.535M604.595 359.187L563.794 359.187M606.985 363.535L566.979 363.535M686.995 363.535L727 363.535M686.995 363.535L687.761 367.717M566.979 363.535L563.794 359.187M687.761 367.717L727 367.717M602.109 354.662L599.849 350.55L599.52 349.95M602.109 354.662L560.479 354.662M563.794 359.187L562.977 358.073L560.479 354.662M560.479 354.662L559.2 352.918L557.026 349.95M642.013 349.95L641.122 347.52L640.897 346.904L640.213 345.038M642.013 349.95L599.52 349.95M642.013 349.95L684.506 349.95M599.52 349.95L596.82 345.038M599.52 349.95L557.026 349.95M557.026 349.95L553.428 345.038M640.213 345.038L596.82 345.038M640.213 345.038L683.607 345.038M594.005 339.913L596.82 345.038M594.005 339.913L591.064 334.563M594.005 339.913L549.673 339.913M596.82 345.038L553.428 345.038M683.607 345.038L727 345.038M683.607 345.038L683.836 346.285L684.285 348.741L684.506 349.95M553.428 345.038L549.673 339.913M684.506 349.95L727 349.95M591.064 334.563L588.773 330.391L587.991 328.97M591.064 334.563L545.752 334.563M549.673 339.913L545.752 334.563M545.752 334.563L543.727 331.797L541.654 328.97M634.327 328.97L632.184 323.118M634.327 328.97L587.991 328.97M634.327 328.97L680.664 328.97M587.991 328.97L584.775 323.118M587.991 328.97L541.654 328.97M541.654 328.97L537.367 323.118M632.184 323.118L584.775 323.118M632.184 323.118L679.592 323.118M581.407 316.989L582.265 318.548L584.775 323.118M581.407 316.989L577.876 310.563M581.407 316.989L532.877 316.989M584.775 323.118L537.367 323.118M679.592 323.118L727 323.118M679.592 323.118L680.664 328.97M537.367 323.118L532.877 316.989M680.664 328.97L727 328.97M577.876 310.563L574.17 303.817M577.876 310.563L528.169 310.563M532.877 316.989L528.169 310.563M528.169 310.563L523.226 303.817M625.113 303.817L622.516 296.728M625.113 303.817L574.17 303.817M625.113 303.817L676.056 303.817M574.17 303.817L570.274 296.728M574.17 303.817L523.226 303.817M523.226 303.817L518.032 296.728M622.516 296.728L570.274 296.728M622.516 296.728L674.758 296.728M566.174 289.267L570.274 296.728M566.174 289.267L561.855 281.406M566.174 289.267L512.566 289.267M570.274 296.728L518.032 296.728M674.758 296.728L727 296.728M674.758 296.728L675.898 302.95L676.056 303.817M518.032 296.728L512.566 289.267M676.056 303.817L727 303.817M561.855 281.406L557.297 273.111M561.855 281.406L506.806 281.406M512.566 289.267L508.276 283.41L506.806 281.406M506.806 281.406L500.729 273.111M613.865 273.111L610.653 264.345M613.865 273.111L557.297 273.111M613.865 273.111L670.432 273.111M557.297 273.111L552.48 264.345M557.297 273.111L500.729 273.111M500.729 273.111L494.307 264.345M610.653 264.345L552.48 264.345M610.653 264.345L668.827 264.345M547.382 255.067L552.48 264.345M547.382 255.067L541.977 245.23M547.382 255.067L487.509 255.067M552.48 264.345L494.307 264.345M668.827 264.345L727 264.345M668.827 264.345L670.432 273.111M494.307 264.345L487.509 255.067M670.432 273.111L727 273.111M541.977 245.23L536.236 234.783M541.977 245.23L480.302 245.23M487.509 255.067L480.302 245.23M480.302 245.23L472.648 234.783M599.824 234.783L595.752 223.667M599.824 234.783L536.236 234.783M599.824 234.783L663.412 234.783M536.236 234.783L530.128 223.667M536.236 234.783L472.648 234.783M472.648 234.783L464.503 223.667M595.752 223.667L530.128 223.667M595.752 223.667L661.376 223.667M523.615 211.816L530.128 223.667M523.615 211.816L516.657 199.154M523.615 211.816L455.821 211.816M530.128 223.667L464.503 223.667M661.376 223.667L727 223.667M661.376 223.667L663.412 234.783M464.503 223.667L455.821 211.816M663.412 234.783L727 234.783M516.657 199.154L509.207 185.594M516.657 199.154L446.543 199.154M455.821 211.816L446.543 199.154M446.543 199.154L436.609 185.594M581.805 185.594L576.472 171.039M581.805 185.594L509.207 185.594M581.805 185.594L654.402 185.594M509.207 185.594L501.209 171.039M509.207 185.594L436.609 185.594M436.609 185.594L425.945 171.039M576.472 171.039L501.209 171.039M576.472 171.039L651.736 171.039M492.601 155.374L501.209 171.039M492.601 155.374L483.311 138.467M492.601 155.374L414.467 155.374M501.209 171.039L425.945 171.039M651.736 171.039L727 171.039M651.736 171.039L654.402 185.594M425.945 171.039L414.467 155.374M654.402 185.594L727 185.594M483.311 138.467L473.253 120.165M483.311 138.467L402.08 138.467M414.467 155.374L402.08 138.467M402.08 138.467L388.671 120.165M557.836 120.165L550.554 100.287M557.836 120.165L473.253 120.165M557.836 120.165L642.417 120.165M473.253 120.165L462.331 100.287M473.253 120.165L388.671 120.165M388.671 120.165L374.107 100.287M550.554 100.287L462.331 100.287M550.554 100.287L638.777 100.287M450.425 78.621L462.331 100.287M450.425 78.621L437.398 54.9139M450.425 78.621L358.233 78.621M462.331 100.287L374.107 100.287M638.777 100.287L727 100.287M638.777 100.287L642.417 120.165M374.107 100.287L358.233 78.621M642.417 120.165L727 120.165M437.398 54.9139L423.083 28.8627M437.398 54.9139L340.863 54.9139M358.233 78.621L340.863 54.9139M340.863 54.9139L321.777 28.8627M524.389 28.8627L513.853 0.102193M524.389 28.8627L423.083 28.8627M524.389 28.8627L625.694 28.8628M423.083 28.8627L407.279 0.102178M423.083 28.8627L321.777 28.8627M321.777 28.8627L300.705 0.102163M407.279 0.102178L513.853 0.102193M407.279 0.102178L300.705 0.102163M513.853 0.102193L620.426 0.102209M620.426 0.102209L727 0.102224M620.426 0.102209L625.694 28.8628M625.694 28.8628L727 28.8628M799.895 382.956L800.058 382.513L800.221 382.068L800.385 381.62L800.549 381.171L800.881 380.266L801.048 379.811L801.215 379.353M799.895 382.956L763.448 382.956M799.895 382.956L836.344 382.956M762.811 386.433L762.196 389.791M762.811 386.433L763.448 382.956M762.811 386.433L727 386.433M762.196 389.791L762.121 390.202L762.045 390.612L761.971 391.02L761.602 393.035M762.196 389.791L727 389.791M796.203 393.035L796.058 393.433L795.481 395.007L795.054 396.171M796.203 393.035L761.602 393.035M796.203 393.035L830.805 393.035M763.448 382.956L763.529 382.513L763.61 382.068L763.693 381.62L764.108 379.353M763.448 382.956L727 382.956M727 386.433L727 389.791M727 386.433L727 382.956M727 389.791L727 393.034M761.602 393.035L727 393.034M761.602 393.035L761.384 394.223L761.312 394.616L761.027 396.171M727 382.956L727 379.353M692.398 393.034L692.615 394.223L692.688 394.616L692.759 395.007L692.831 395.397L692.902 395.785L692.973 396.171M692.398 393.034L727 393.034M727 393.034L727 396.171M801.215 379.353L764.108 379.353M801.215 379.353L838.323 379.353M764.792 375.617L764.88 375.141L764.967 374.662L765.502 371.741M764.792 375.617L764.108 379.353M764.792 375.617L727 375.617M764.108 379.353L727 379.353M838.323 379.353L875.431 379.353M838.323 379.353L837.822 380.266L837.572 380.719L837.325 381.171L837.077 381.62L836.832 382.068L836.587 382.513L836.344 382.956M727 379.353L727 375.617M836.344 382.956L872.792 382.956M765.502 371.741L766.239 367.717M765.502 371.741L727 371.741M727 375.617L727 371.741M727 371.741L727 367.717M805.478 367.717L807.01 363.535M805.478 367.717L766.239 367.717M805.478 367.717L844.717 367.717M766.239 367.717L767.005 363.535M766.239 367.717L727 367.717M727 367.717L727 363.535M807.01 363.535L767.005 363.535M807.01 363.535L847.015 363.535M767.801 359.187L767.005 363.535M767.801 359.187L768.63 354.662M767.801 359.187L727 359.187M767.005 363.535L727 363.535M847.015 363.535L887.02 363.535M847.015 363.535L844.717 367.717M727 363.535L727 359.187M844.717 367.717L883.956 367.717M768.63 354.662L768.949 352.918L769.274 351.146L769.494 349.95M768.63 354.662L727 354.662M727 359.187L727 354.662M727 354.662L727 349.95M811.987 349.95L812.878 347.52L813.102 346.904L813.787 345.038M811.987 349.95L769.494 349.95M811.987 349.95L854.48 349.95M769.494 349.95L769.715 348.741L770.164 346.285L770.393 345.038M769.494 349.95L727 349.95M727 349.95L727 345.038M813.787 345.038L770.393 345.038M813.787 345.038L857.179 345.038M771.331 339.913L771.213 340.566L770.393 345.038M771.331 339.913L772.312 334.563M771.331 339.913L727 339.913M770.393 345.038L727 345.038M857.179 345.038L900.572 345.038M857.179 345.038L854.48 349.95M727 345.038L727 339.913M854.48 349.95L896.974 349.95M772.312 334.563L773.336 328.97M772.312 334.563L727 334.563M727 339.913L727 334.563M727 334.563L727 328.97M819.673 328.97L821.816 323.118M819.673 328.97L773.336 328.97M819.673 328.97L866.009 328.97M773.336 328.97L774.408 323.118M773.336 328.97L727 328.97M727 328.97L727 323.118M821.816 323.118L774.408 323.118M821.816 323.118L869.225 323.118M775.531 316.989L774.408 323.118M775.531 316.989L776.708 310.563M775.531 316.989L727 316.989M774.408 323.118L727 323.118M869.225 323.118L916.633 323.118M869.225 323.118L866.009 328.97M727 323.118L727 316.989M866.009 328.97L912.346 328.97M776.708 310.563L777.944 303.817M776.708 310.563L727 310.563M727 316.989L727 310.563M727 310.563L727 303.817M828.887 303.817L831.484 296.728M828.887 303.817L777.944 303.817M828.887 303.817L879.83 303.817M777.944 303.817L779.242 296.728M777.944 303.817L727 303.817M727 303.817L727 296.728M831.484 296.728L779.242 296.728M831.484 296.728L883.726 296.728M780.609 289.267L779.242 296.728M780.609 289.267L782.048 281.406M780.609 289.267L727 289.267M779.242 296.728L727 296.728M883.726 296.728L935.968 296.728M883.726 296.728L879.83 303.817M727 296.728L727 289.267M879.83 303.817L930.774 303.817M782.048 281.406L783.568 273.111M782.048 281.406L727 281.406M727 289.267L727 281.406M727 281.406L727 273.111M840.135 273.111L843.347 264.345M840.135 273.111L783.568 273.111M840.135 273.111L896.703 273.111M783.568 273.111L785.173 264.345M783.568 273.111L727 273.111M727 273.111L727 264.345M843.347 264.345L785.173 264.345M843.347 264.345L901.52 264.345M786.873 255.067L785.173 264.345M786.873 255.067L788.675 245.231M786.873 255.067L727 255.067M785.173 264.345L727 264.345M901.52 264.345L959.693 264.345M901.52 264.345L896.703 273.111M727 264.345L727 255.067M896.703 273.111L953.271 273.111M788.675 245.231L790.588 234.783M788.675 245.231L727 245.23M727 255.067L727 245.23M727 245.23L727 234.783M854.176 234.783L858.248 223.667M854.176 234.783L790.588 234.783M854.176 234.783L917.764 234.783M790.588 234.783L792.624 223.667M790.588 234.783L727 234.783M727 234.783L727 223.667M858.248 223.667L792.624 223.667M858.248 223.667L923.872 223.667M794.795 211.816L792.624 223.667M794.795 211.816L797.114 199.154M794.795 211.816L727 211.816M792.624 223.667L727 223.667M923.872 223.667L989.496 223.667M923.872 223.667L917.764 234.783M727 223.667L727 211.816M917.764 234.783L981.352 234.783M797.114 199.154L799.598 185.594M797.114 199.154L727 199.154M727 211.816L727 199.154M727 199.154L727 185.594M872.195 185.595L877.528 171.039M872.195 185.595L799.598 185.594M872.195 185.595L944.793 185.595M799.598 185.594L802.264 171.039M799.598 185.594L727 185.594M727 185.594L727 171.039M877.528 171.039L802.264 171.039M877.528 171.039L952.791 171.039M805.133 155.374L802.264 171.039M805.133 155.374L808.23 138.467M805.133 155.374L727 155.374M802.264 171.039L727 171.039M952.791 171.039L1028.06 171.039M952.791 171.039L944.793 185.595M727 171.039L727 155.374M944.793 185.595L1017.39 185.595M808.23 138.467L811.582 120.165M808.23 138.467L727 138.467M727 155.374L727 138.467M727 138.467L727 120.165M896.164 120.165L903.446 100.287M896.164 120.165L811.582 120.165M896.164 120.165L980.747 120.165M811.582 120.165L815.223 100.287M811.582 120.165L727 120.165M727 120.165L727 100.287M903.446 100.287L815.223 100.287M903.446 100.287L991.669 100.287M819.191 78.621L815.223 100.287M819.191 78.621L823.534 54.9139M819.191 78.621L727 78.621M815.223 100.287L727 100.287M991.669 100.287L1079.89 100.287M991.669 100.287L980.747 120.165M727 100.287L727 78.621M980.747 120.165L1065.33 120.165M823.534 54.9139L828.306 28.8628M823.534 54.9139L727 54.9139M727 78.621L727 54.9139M727 54.9139L727 28.8628M929.611 28.8628L940.147 0.102254M929.611 28.8628L828.306 28.8628M929.611 28.8628L1030.92 28.8628M828.306 28.8628L833.574 0.102239M828.306 28.8628L727 28.8628M727 28.8628L727 0.102224M833.574 0.102239L940.147 0.102254M833.574 0.102239L727 0.102224M940.147 0.102254L1046.72 0.10227M1046.72 0.10227L1153.29 0.102285M1046.72 0.10227L1030.92 28.8628M1030.92 28.8628L1132.22 28.8628M945.687 382.956L947.649 381.171L949.646 379.353M945.687 382.956L909.239 382.956M945.687 382.956L982.135 382.956M906.055 386.433L902.98 389.791M906.055 386.433L909.239 382.956M906.055 386.433L870.244 386.433M902.98 389.791L867.784 389.791M902.98 389.791L900.743 392.234L900.009 393.035M934.611 393.035L900.009 393.035M934.611 393.035L933.305 394.223L931.164 396.171M934.611 393.035L969.213 393.035M909.239 382.956L912.539 379.353M909.239 382.956L872.792 382.956M870.244 386.433L867.784 389.791M870.244 386.433L872.792 382.956M867.784 389.791L866.585 391.426L865.7 392.635L865.408 393.035M900.009 393.035L865.408 393.035M900.009 393.035L897.846 395.397L897.137 396.171M872.792 382.956L874.763 380.266L875.431 379.353M830.805 393.035L830.587 393.433L830.153 394.223L829.508 395.397L829.082 396.171M830.805 393.035L865.408 393.035M865.408 393.035L865.116 393.433L864.536 394.223L863.11 396.171M949.646 379.353L912.539 379.353M949.646 379.353L986.755 379.353M915.961 375.617L915.525 376.092L915.093 376.564L913.383 378.432L912.539 379.353M915.961 375.617L918.61 372.724L919.51 371.741M915.961 375.617L878.168 375.617M912.539 379.353L875.431 379.353M986.755 379.353L1023.86 379.353M986.755 379.353L983.275 382.068L982.135 382.956M875.431 379.353L878.168 375.617M982.135 382.956L1018.58 382.956M919.51 371.741L919.963 371.247L920.419 370.75L921.797 369.244L922.262 368.738L923.196 367.717M919.51 371.741L881.008 371.741M878.168 375.617L878.518 375.141L881.008 371.741M881.008 371.741L881.37 371.247L881.735 370.75L882.101 370.25L883.956 367.717M962.435 367.717L967.031 363.535M962.435 367.717L923.196 367.717M962.435 367.717L1001.67 367.717M923.196 367.717L927.026 363.535M923.196 367.717L883.956 367.717M883.956 367.717L887.02 363.535M967.031 363.535L927.026 363.535M967.031 363.535L1007.04 363.535M931.007 359.187L927.026 363.535M931.007 359.187L935.151 354.662M931.007 359.187L890.206 359.187M927.026 363.535L887.02 363.535M1007.04 363.535L1047.04 363.535M1007.04 363.535L1001.67 367.717M887.02 363.535L890.206 359.187M1001.67 367.717L1040.91 367.717M935.151 354.662L939.467 349.95M935.151 354.662L893.521 354.662M890.206 359.187L891.023 358.073L893.521 354.662M893.521 354.662L894.8 352.918L896.098 351.147L896.974 349.95M981.961 349.95L984.632 347.52L987.359 345.038M981.961 349.95L939.467 349.95M981.961 349.95L1024.45 349.95M939.467 349.95L943.966 345.038M939.467 349.95L896.974 349.95M896.974 349.95L900.572 345.038M987.359 345.038L943.966 345.038M987.359 345.038L1030.75 345.038M948.659 339.913L943.966 345.038M948.659 339.913L953.56 334.563M948.659 339.913L904.327 339.913M943.966 345.038L900.572 345.038M1030.75 345.038L1074.15 345.038M1030.75 345.038L1024.45 349.95M900.572 345.038L904.327 339.913M1024.45 349.95L1066.95 349.95M953.56 334.563L954.819 333.188L958.681 328.97M953.56 334.563L908.248 334.563M904.327 339.913L908.248 334.563M908.248 334.563L908.75 333.877L910.273 331.797L912.346 328.97M1005.02 328.97L1011.45 323.118M1005.02 328.97L958.681 328.97M1005.02 328.97L1051.35 328.97M958.681 328.97L964.041 323.118M958.681 328.97L912.346 328.97M912.346 328.97L916.633 323.118M1011.45 323.118L964.041 323.118M1011.45 323.118L1058.86 323.118M969.654 316.989L966.115 320.853L964.041 323.118M969.654 316.989L975.539 310.563M969.654 316.989L921.123 316.989M964.041 323.118L916.633 323.118M1058.86 323.118L1106.27 323.118M1058.86 323.118L1051.35 328.97M916.633 323.118L921.123 316.989M1051.35 328.97L1097.69 328.97M975.539 310.563L981.717 303.817M975.539 310.563L925.831 310.563M921.123 316.989L925.831 310.563M925.831 310.563L930.774 303.817M1032.66 303.817L1040.45 296.728M1032.66 303.817L981.717 303.817M1032.66 303.817L1083.6 303.817M981.717 303.817L988.21 296.728M981.717 303.817L930.774 303.817M930.774 303.817L935.968 296.728M1040.45 296.728L988.21 296.728M1040.45 296.728L1092.69 296.728M995.042 289.267L988.21 296.728M995.042 289.267L1002.24 281.406M995.042 289.267L941.434 289.267M988.21 296.728L935.968 296.728M1092.69 296.728L1144.94 296.728M1092.69 296.728L1083.6 303.817M935.968 296.728L941.434 289.267M1083.6 303.817L1134.55 303.817M1002.24 281.406L1009.84 273.111M1002.24 281.406L947.193 281.406M941.434 289.267L947.193 281.406M947.193 281.406L953.271 273.111M1066.41 273.111L1076.04 264.345M1066.41 273.111L1009.84 273.111M1066.41 273.111L1122.97 273.111M1009.84 273.111L1017.87 264.345M1009.84 273.111L953.271 273.111M953.271 273.111L959.693 264.345M1076.04 264.345L1017.87 264.345M1076.04 264.345L1134.21 264.345M1026.36 255.067L1017.87 264.345M1026.36 255.067L1035.37 245.231M1026.36 255.067L966.491 255.067M1017.87 264.345L959.693 264.345M1134.21 264.345L1192.39 264.345M1134.21 264.345L1122.97 273.111M959.693 264.345L966.491 255.067M1122.97 273.111L1179.54 273.111M1035.37 245.231L1044.94 234.783M1035.37 245.231L973.698 245.231M966.491 255.067L973.698 245.231M973.698 245.231L981.352 234.783M1108.53 234.783L1120.74 223.667M1108.53 234.783L1044.94 234.783M1108.53 234.783L1172.12 234.783M1044.94 234.783L1055.12 223.667M1044.94 234.783L981.352 234.783M981.352 234.783L989.496 223.667M1120.74 223.667L1055.12 223.667M1120.74 223.667L1186.37 223.667M1065.97 211.816L1055.12 223.667M1065.97 211.816L1077.57 199.154M1065.97 211.816L998.179 211.816M1055.12 223.667L989.496 223.667M1186.37 223.667L1251.99 223.667M1186.37 223.667L1172.12 234.783M989.496 223.667L998.179 211.816M1172.12 234.783L1235.7 234.783M1077.57 199.154L1089.99 185.595M1077.57 199.154L1007.46 199.154M998.179 211.816L1007.46 199.154M1007.46 199.154L1017.39 185.595M1162.59 185.595L1178.58 171.039M1162.59 185.595L1089.99 185.595M1162.59 185.595L1235.18 185.595M1089.99 185.595L1103.32 171.039M1089.99 185.595L1017.39 185.595M1017.39 185.595L1028.06 171.039M1178.58 171.039L1103.32 171.039M1178.58 171.039L1253.85 171.039M1117.67 155.374L1103.32 171.039M1117.67 155.374L1133.15 138.467M1117.67 155.374L1039.53 155.374M1103.32 171.039L1028.06 171.039M1253.85 171.039L1329.11 171.039M1253.85 171.039L1235.18 185.595M1028.06 171.039L1039.53 155.374M1235.18 185.595L1307.78 185.595M1133.15 138.467L1149.91 120.165M1133.15 138.467L1051.92 138.467M1039.53 155.374L1051.92 138.467M1051.92 138.467L1065.33 120.165M1234.49 120.165L1256.34 100.287M1234.49 120.165L1149.91 120.165M1234.49 120.165L1319.08 120.165M1149.91 120.165L1168.12 100.287M1149.91 120.165L1065.33 120.165M1065.33 120.165L1079.89 100.287M1256.34 100.287L1168.12 100.287M1256.34 100.287L1344.56 100.287M1187.96 78.6211L1168.12 100.287M1187.96 78.6211L1209.67 54.914M1187.96 78.6211L1095.77 78.6211M1168.12 100.287L1079.89 100.287M1344.56 100.287L1432.79 100.287M1344.56 100.287L1319.08 120.165M1079.89 100.287L1095.77 78.6211M1319.08 120.165L1403.66 120.165M1209.67 54.914L1233.53 28.8628M1209.67 54.914L1113.14 54.914M1095.77 78.6211L1113.14 54.914M1113.14 54.914L1132.22 28.8628M1334.83 28.8629L1366.44 0.102315M1334.83 28.8629L1233.53 28.8628M1334.83 28.8629L1436.14 28.8629M1233.53 28.8628L1259.87 0.1023M1233.53 28.8628L1132.22 28.8628M1132.22 28.8628L1153.29 0.102285M1259.87 0.1023L1366.44 0.102315M1259.87 0.1023L1153.29 0.102285M1366.44 0.102315L1453.61 0.102842M1436.14 28.8629L1453.61 15.2379M1436.14 28.8629L1453.61 28.8629M1091.48 382.956L1098.08 379.353M1091.48 382.956L1055.03 382.956M1091.48 382.956L1127.93 382.956M1049.3 386.433L1043.76 389.791M1049.3 386.433L1055.03 382.956M1049.3 386.433L1013.49 386.433M1043.76 389.791L1008.57 389.791M1043.76 389.791L1038.42 393.035M1073.02 393.035L1038.42 393.035M1073.02 393.035L1070.84 394.223L1067.27 396.171M1073.02 393.035L1107.62 393.035M1055.03 382.956L1060.97 379.353M1055.03 382.956L1018.58 382.956M1013.49 386.433L1008.57 389.791M1013.49 386.433L1018.58 382.956M1008.57 389.791L1004.99 392.234L1003.81 393.035M1038.42 393.035L1037.76 393.433L1033.25 396.171M1038.42 393.035L1003.81 393.035M1018.58 382.956L1023.86 379.353M969.213 393.035L965.191 396.171M969.213 393.035L1003.81 393.035M1003.81 393.035L1002.07 394.223L999.219 396.171M1098.08 379.353L1060.97 379.353M1098.08 379.353L1135.19 379.353M1067.13 375.617L1060.97 379.353M1067.13 375.617L1073.52 371.741M1067.13 375.617L1029.34 375.617M1060.97 379.353L1023.86 379.353M1135.19 379.353L1172.29 379.353M1135.19 379.353L1127.93 382.956M1023.86 379.353L1029.34 375.617M1127.93 382.956L1164.37 382.956M1073.52 371.741L1075.15 370.75L1080.15 367.717M1073.52 371.741L1035.02 371.741M1029.34 375.617L1035.02 371.741M1035.02 371.741L1040.91 367.717M1119.39 367.717L1120.33 367.203L1127.05 363.535M1119.39 367.717L1080.15 367.717M1119.39 367.717L1158.63 367.717M1080.15 367.717L1087.05 363.535M1080.15 367.717L1040.91 367.717M1040.91 367.717L1041.67 367.203L1047.04 363.535M1127.05 363.535L1087.05 363.535M1127.05 363.535L1167.06 363.535M1094.21 359.187L1087.05 363.535M1094.21 359.187L1101.67 354.662M1094.21 359.187L1053.41 359.187M1087.05 363.535L1047.04 363.535M1167.06 363.535L1207.06 363.535M1167.06 363.535L1158.63 367.717M1047.04 363.535L1053.41 359.187M1158.63 367.717L1197.87 367.717M1101.67 354.662L1109.44 349.95M1101.67 354.662L1060.04 354.662M1053.41 359.187L1060.04 354.662M1060.04 354.662L1066.95 349.95M1151.93 349.95L1160.93 345.038M1151.93 349.95L1109.44 349.95M1151.93 349.95L1194.43 349.95M1109.44 349.95L1117.54 345.038M1109.44 349.95L1066.95 349.95M1066.95 349.95L1074.15 345.038M1160.93 345.038L1117.54 345.038M1160.93 345.038L1204.33 345.038M1125.99 339.913L1117.54 345.038M1125.99 339.913L1134.81 334.563M1125.99 339.913L1081.65 339.913M1117.54 345.038L1074.15 345.038M1204.33 345.038L1247.72 345.038M1204.33 345.038L1194.43 349.95M1074.15 345.038L1081.65 339.913M1194.43 349.95L1236.92 349.95M1134.81 334.563L1144.03 328.97M1134.81 334.563L1089.5 334.563M1081.65 339.913L1089.5 334.563M1089.5 334.563L1097.69 328.97M1190.36 328.97L1201.08 323.118M1190.36 328.97L1144.03 328.97M1190.36 328.97L1236.7 328.97M1144.03 328.97L1153.67 323.118M1144.03 328.97L1097.69 328.97M1097.69 328.97L1106.27 323.118M1201.08 323.118L1153.67 323.118M1201.08 323.118L1248.49 323.118M1163.78 316.989L1153.67 323.118M1163.78 316.989L1174.37 310.563M1163.78 316.989L1115.25 316.989M1153.67 323.118L1106.27 323.118M1248.49 323.118L1295.9 323.118M1248.49 323.118L1236.7 328.97M1106.27 323.118L1115.25 316.989M1236.7 328.97L1283.04 328.97M1174.37 310.563L1185.49 303.817M1174.37 310.563L1124.66 310.563M1115.25 316.989L1124.66 310.563M1124.66 310.563L1134.55 303.817M1236.43 303.817L1249.42 296.728M1236.43 303.817L1185.49 303.817M1236.43 303.817L1287.38 303.817M1185.49 303.817L1197.18 296.728M1185.49 303.817L1134.55 303.817M1134.55 303.817L1144.94 296.728M1249.42 296.728L1197.18 296.728M1249.42 296.728L1301.66 296.728M1209.48 289.267L1197.18 296.728M1209.48 289.267L1222.44 281.407M1209.48 289.267L1155.87 289.267M1197.18 296.728L1144.94 296.728M1301.66 296.728L1353.9 296.728M1301.66 296.728L1287.38 303.817M1144.94 296.728L1155.87 289.267M1287.38 303.817L1338.32 303.817M1222.44 281.407L1236.11 273.111M1222.44 281.407L1167.39 281.407M1155.87 289.267L1167.39 281.407M1167.39 281.407L1179.54 273.111M1292.68 273.111L1308.73 264.345M1292.68 273.111L1236.11 273.111M1292.68 273.111L1349.24 273.111M1236.11 273.111L1250.56 264.345M1236.11 273.111L1179.54 273.111M1179.54 273.111L1192.39 264.345M1308.73 264.345L1250.56 264.345M1308.73 264.345L1366.91 264.345M1265.86 255.067L1250.56 264.345M1265.86 255.067L1282.07 245.231M1265.86 255.067L1205.98 255.067M1250.56 264.345L1192.39 264.345M1366.91 264.345L1425.08 264.345M1366.91 264.345L1349.24 273.111M1192.39 264.345L1205.98 255.067M1349.24 273.111L1405.81 273.111M1282.07 245.231L1299.29 234.783M1282.07 245.231L1220.4 245.231M1205.98 255.067L1220.4 245.231M1220.4 245.231L1235.7 234.783M1362.88 234.783L1383.24 223.667M1362.88 234.783L1299.29 234.783M1362.88 234.783L1426.47 234.783M1299.29 234.783L1317.62 223.667M1299.29 234.783L1235.7 234.783M1235.7 234.783L1251.99 223.667M1383.24 223.667L1317.62 223.667M1383.24 223.667L1448.87 223.667M1337.15 211.816L1317.62 223.667M1337.15 211.816L1358.03 199.154M1337.15 211.816L1269.36 211.816M1317.62 223.667L1251.99 223.667M1448.87 223.667L1426.47 234.783M1448.87 223.667L1453.61 223.667M1448.87 223.667L1453.61 221.313M1251.99 223.667L1269.36 211.816M1426.47 234.783L1453.61 234.783M1358.03 199.154L1380.38 185.595M1358.03 199.154L1287.91 199.154M1269.36 211.816L1287.91 199.154M1287.91 199.154L1307.78 185.595M1452.98 185.595L1380.38 185.595M1452.98 185.595L1453.61 185.595M1452.98 185.595L1453.61 185.25M1380.38 185.595L1404.37 171.039M1380.38 185.595L1307.78 185.595M1307.78 185.595L1329.11 171.039M1430.2 155.374L1404.37 171.039M1430.2 155.374L1352.07 155.374M1430.2 155.374L1453.61 155.374M1430.2 155.374L1453.61 141.173M1404.37 171.039L1329.11 171.039M1404.37 171.039L1453.61 171.039M1329.11 171.039L1352.07 155.374M1352.07 155.374L1376.84 138.467M1376.84 138.467L1403.66 120.165M1376.84 138.467L1453.61 138.467M1403.66 120.165L1432.79 100.287M1403.66 120.165L1453.61 120.165M1432.79 100.287L1453.61 100.287M1432.79 100.287L1453.61 86.0763M1237.27 382.956L1246.51 379.353M1237.27 382.956L1200.82 382.956M1237.27 382.956L1273.72 382.956M1192.54 386.433L1184.55 389.791M1192.54 386.433L1200.82 382.956M1192.54 386.433L1156.73 386.433M1184.55 389.791L1149.35 389.791M1184.55 389.791L1176.82 393.035M1211.43 393.035L1176.82 393.035M1211.43 393.035L1203.38 396.171M1211.43 393.035L1246.03 393.035M1200.82 382.956L1209.4 379.353M1200.82 382.956L1164.37 382.956M1156.73 386.433L1149.35 389.791M1156.73 386.433L1164.37 382.956M1149.35 389.791L1142.22 393.035M1176.82 393.035L1175.88 393.433L1169.36 396.171M1176.82 393.035L1142.22 393.035M1164.37 382.956L1172.29 379.353M1107.62 393.035L1101.3 396.171M1107.62 393.035L1142.22 393.035M1142.22 393.035L1141.35 393.433L1135.33 396.171M1246.51 379.353L1209.4 379.353M1246.51 379.353L1283.62 379.353M1218.3 375.617L1209.4 379.353M1218.3 375.617L1227.53 371.741M1218.3 375.617L1180.5 375.617M1209.4 379.353L1172.29 379.353M1283.62 379.353L1320.72 379.353M1283.62 379.353L1273.72 382.956M1172.29 379.353L1180.5 375.617M1273.72 382.956L1310.17 382.956M1227.53 371.741L1237.11 367.717M1227.53 371.741L1189.02 371.741M1180.5 375.617L1181.55 375.141L1189.02 371.741M1189.02 371.741L1197.87 367.717M1276.35 367.717L1287.07 363.535M1276.35 367.717L1237.11 367.717M1276.35 367.717L1315.59 367.717M1237.11 367.717L1247.07 363.535M1237.11 367.717L1197.87 367.717M1197.87 367.717L1207.06 363.535M1287.07 363.535L1247.07 363.535M1287.07 363.535L1327.08 363.535M1257.42 359.187L1247.07 363.535M1257.42 359.187L1268.19 354.662M1257.42 359.187L1216.62 359.187M1247.07 363.535L1207.06 363.535M1327.08 363.535L1367.08 363.535M1327.08 363.535L1315.59 367.717M1207.06 363.535L1216.62 359.187M1315.59 367.717L1354.83 367.717M1268.19 354.662L1279.41 349.95M1268.19 354.662L1226.56 354.662M1216.62 359.187L1226.56 354.662M1226.56 354.662L1236.92 349.95M1321.91 349.95L1334.5 345.038M1321.91 349.95L1279.41 349.95M1321.91 349.95L1364.4 349.95M1279.41 349.95L1291.11 345.038M1279.41 349.95L1236.92 349.95M1236.92 349.95L1247.72 345.038M1334.5 345.038L1291.11 345.038M1334.5 345.038L1377.9 345.038M1303.31 339.914L1291.11 345.038M1303.31 339.914L1316.05 334.563M1303.31 339.914L1258.98 339.914M1291.11 345.038L1247.72 345.038M1377.9 345.038L1421.29 345.038M1377.9 345.038L1364.4 349.95M1247.72 345.038L1258.98 339.914M1364.4 349.95L1406.9 349.95M1316.05 334.563L1329.37 328.97M1316.05 334.563L1270.74 334.563M1258.98 339.914L1270.74 334.563M1270.74 334.563L1283.04 328.97M1375.71 328.97L1390.71 323.118M1375.71 328.97L1329.37 328.97M1375.71 328.97L1422.05 328.97M1329.37 328.97L1343.31 323.118M1329.37 328.97L1283.04 328.97M1283.04 328.97L1295.9 323.118M1390.71 323.118L1343.31 323.118M1357.9 316.989L1343.31 323.118M1357.9 316.989L1373.2 310.563M1357.9 316.989L1309.37 316.989M1343.31 323.118L1295.9 323.118M1295.9 323.118L1309.37 316.989M1422.05 328.97L1453.61 328.97M1373.2 310.563L1389.26 303.817M1373.2 310.563L1323.49 310.563M1309.37 316.989L1323.49 310.563M1323.49 310.563L1338.32 303.817M1440.21 303.817L1389.26 303.817M1440.21 303.817L1453.61 303.817M1440.21 303.817L1453.61 298.592M1389.26 303.817L1406.15 296.728M1389.26 303.817L1338.32 303.817M1338.32 303.817L1353.9 296.728M1423.91 289.268L1406.15 296.728M1423.91 289.268L1442.63 281.407M1423.91 289.268L1370.3 289.268M1423.91 289.268L1453.61 289.268M1406.15 296.728L1353.9 296.728M1406.15 296.728L1453.61 296.728M1353.9 296.728L1370.3 289.268M1453.76 298.534L1453.61 298.592M1442.63 281.407L1387.58 281.407M1442.63 281.407L1453.61 281.407M1442.63 281.407L1453.61 276.795M1370.3 289.268L1387.58 281.407M1387.58 281.407L1405.81 273.111M1405.81 273.111L1425.08 264.345M1405.81 273.111L1453.61 273.111M1445.47 255.067L1425.08 264.345M1445.47 255.067L1453.61 255.067M1445.47 255.067L1453.61 251.366M1425.08 264.345L1453.61 264.345M1383.06 382.956L1394.94 379.353M1383.06 382.956L1346.61 382.956M1383.06 382.956L1419.51 382.956M1335.79 386.433L1325.33 389.791M1335.79 386.433L1346.61 382.956M1335.79 386.433L1299.98 386.433M1325.33 389.791L1290.14 389.791M1325.33 389.791L1315.23 393.035M1349.83 393.035L1315.23 393.035M1349.83 393.035L1339.49 396.171M1349.83 393.035L1384.43 393.035M1346.61 382.956L1357.83 379.353M1346.61 382.956L1310.17 382.956M1299.98 386.433L1290.14 389.791M1299.98 386.433L1310.17 382.956M1290.14 389.791L1280.63 393.035M1315.23 393.035L1280.63 393.035M1315.23 393.035L1305.46 396.171M1310.17 382.956L1320.72 379.353M1246.03 393.035L1237.41 396.171M1246.03 393.035L1280.63 393.035M1280.63 393.035L1271.44 396.171M1394.94 379.353L1357.83 379.353M1394.94 379.353L1432.05 379.353M1369.47 375.617L1357.83 379.353M1369.47 375.617L1381.53 371.741M1369.47 375.617L1331.67 375.617M1357.83 379.353L1320.72 379.353M1432.05 379.353L1419.51 382.956M1432.05 379.353L1453.61 379.353M1320.72 379.353L1331.67 375.617M1419.51 382.956L1453.61 382.956M1381.53 371.741L1394.07 367.717M1381.53 371.741L1343.03 371.741M1331.67 375.617L1343.03 371.741M1343.03 371.741L1354.83 367.717M1433.31 367.717L1447.09 363.535M1433.31 367.717L1394.07 367.717M1433.31 367.717L1453.61 367.717M1394.07 367.717L1407.09 363.535M1394.07 367.717L1354.83 367.717M1354.83 367.717L1367.08 363.535M1420.63 359.187L1407.09 363.535M1420.63 359.187L1434.72 354.662M1420.63 359.187L1379.82 359.187M1420.63 359.187L1453.61 359.187M1407.09 363.535L1447.09 363.535M1407.09 363.535L1367.08 363.535M1447.09 363.535L1453.61 361.559M1447.09 363.535L1453.61 363.535M1367.08 363.535L1379.82 359.187M1434.72 354.662L1449.39 349.95M1434.72 354.662L1393.09 354.662M1434.72 354.662L1453.61 354.662M1379.82 359.187L1393.09 354.662M1393.09 354.662L1406.9 349.95M1449.39 349.95L1406.9 349.95M1449.39 349.95L1453.61 348.595M1449.39 349.95L1453.61 349.95M1406.9 349.95L1421.29 345.038M1436.31 339.914L1421.29 345.038M1436.31 339.914L1451.99 334.563M1436.31 339.914L1453.61 339.914M1421.29 345.038L1453.61 345.038M1453.84 345.038L1453.61 345.038M1451.99 334.563L1453.61 334.563M1451.99 334.563L1453.61 334.011M1454 333.877L1453.61 334.011M1443.22 386.433L1430.92 389.791M1443.22 386.433L1453.61 386.433M1443.22 386.433L1453.61 383.598M1430.92 389.791L1419.04 393.035M1430.92 389.791L1453.61 389.791M1384.43 393.035L1373.52 396.171M1384.43 393.035L1419.04 393.035M1419.04 393.035L1407.55 396.171M1419.04 393.035L1453.61 393.035M250.617 396.171L216.59 396.171M250.617 396.171L284.644 396.171M224.925 399.205L222.868 398.456L216.59 396.171M224.925 399.205L191.454 399.205M216.59 396.171L182.563 396.171M191.454 399.205L189.259 398.456L188.154 398.079L182.563 396.171M182.563 396.171L148.535 396.171M148.535 396.171L114.507 396.171M284.644 396.171L318.672 396.171M114.507 396.171L80.4801 396.171M80.4801 396.171L91.0394 399.205M80.4801 396.171L46.453 396.171M91.0394 399.205L57.5677 399.205M386.727 396.171L352.699 396.171M386.727 396.171L420.754 396.171M358.812 399.205L357.303 398.456L356.543 398.079L352.699 396.171M358.812 399.205L325.34 399.205M352.699 396.171L318.672 396.171M325.34 399.205L318.672 396.171M420.754 396.171L454.781 396.171M522.836 396.171L488.809 396.171M522.836 396.171L556.863 396.171M492.699 399.205L492.219 398.831L491.738 398.456L491.255 398.079L488.809 396.171M492.699 399.205L459.227 399.205M488.809 396.171L454.781 396.171M459.227 399.205L454.781 396.171M556.863 396.171L590.891 396.171M658.946 396.171L624.918 396.171M658.946 396.171L692.973 396.171M626.585 399.205L624.918 396.171M626.585 399.205L593.113 399.205M624.918 396.171L590.891 396.171M593.113 399.205L592.839 398.831L592.565 398.456L592.288 398.079L590.891 396.171M692.973 396.171L727 396.171M795.054 396.171L761.027 396.171M795.054 396.171L829.082 396.171M760.472 399.205L761.027 396.171M760.472 399.205L727 399.205M761.027 396.171L727 396.171M727 399.205L727 396.171M829.082 396.171L863.11 396.171M931.164 396.171L897.137 396.171M931.164 396.171L965.191 396.171M894.358 399.205L895.044 398.456L896.434 396.939L897.137 396.171M894.358 399.205L860.887 399.205M897.137 396.171L863.11 396.171M860.887 399.205L861.161 398.831L861.435 398.456L861.712 398.079L863.11 396.171M965.191 396.171L999.219 396.171M1067.27 396.171L1033.25 396.171M1067.27 396.171L1101.3 396.171M1028.24 399.205L1029.48 398.456L1030.1 398.079L1033.25 396.171M1028.24 399.205L994.773 399.205M1033.25 396.171L999.219 396.171M994.773 399.205L995.321 398.831L999.219 396.171M1101.3 396.171L1135.33 396.171M1203.38 396.171L1169.36 396.171M1203.38 396.171L1237.41 396.171M1162.13 399.205L1163.92 398.456L1164.81 398.079L1169.36 396.171M1162.13 399.205L1128.66 399.205M1169.36 396.171L1135.33 396.171M1128.66 399.205L1129.48 398.831L1135.33 396.171M1237.41 396.171L1271.44 396.171M1339.49 396.171L1305.46 396.171M1339.49 396.171L1373.52 396.171M1296.02 399.205L1305.46 396.171M1296.02 399.205L1262.55 399.205M1305.46 396.171L1271.44 396.171M1262.55 399.205L1264.74 398.456L1265.85 398.079L1271.44 396.171M1373.52 396.171L1407.55 396.171M1429.9 399.205L1441.57 396.171M1429.9 399.205L1396.43 399.205M1429.9 399.205L1453.61 399.205M1441.57 396.171L1407.55 396.171M1441.57 396.171L1453.61 393.042M1441.57 396.171L1453.61 396.171M1396.43 399.205L1399.18 398.456L1407.55 396.171M57.5677 399.205L54.8234 398.456L46.453 396.171M46.453 396.171L12.4258 396.171M12.4258 396.171L0.391236 393.042M12.4258 396.171L0.391236 396.171M0.391243 251.366L0.391243 255.067M0.391243 251.366L0.391244 245.23M0.391243 255.067L0.391243 264.345M0.391244 245.23L0.391244 243.397L0.391244 234.783M0.391244 234.783L0.391245 223.667M0.39124 323.118L0.391239 328.969M0.39124 323.118L0.39124 317.481M0.391236 399.205L0.391236 396.171M0.391236 396.171L0.391236 393.042M0.391236 393.042L0.361817 393.034L0.391236 393.034M0.391236 393.042L0.391236 393.034M0.391236 393.034L0.391236 389.79M0.391236 389.79L0.391236 386.433M0.391236 386.433L0.391236 383.597M0.391236 383.597L0.391236 382.956M0.391236 382.956L0.391237 379.353M0.391237 379.353L0.391237 375.617M0.391237 375.617L0.391237 373.158M0.391237 373.158L0.391237 371.741M0.391237 371.741L0.391237 367.717M0.391237 367.717L0.391237 363.535M0.391237 363.535L0.391238 361.559M0.391238 361.559L0.391238 359.187M0.391238 359.187L0.391238 354.662M0.391238 354.662L0.391238 349.95M0.391238 349.95L0.391238 348.595M0.391238 348.595L0.391238 345.038M0.391238 345.038L0.391239 339.913M0.391239 339.913L0.391239 334.563M0.391239 334.563L0.391239 334.01M0.391239 334.01L0.391239 328.969M0.39124 316.989L0.39124 310.563M0.39124 316.989L0.39124 317.481M0.39124 310.563L0.391241 303.817M0.391241 303.817L0.391241 298.591M0.391241 298.591L0.391241 296.728M0.391241 296.728L0.391241 289.267M0.391241 289.267L0.391242 281.406M0.391242 281.406L0.391242 276.795M0.391242 276.795L0.391242 273.111M0.391242 273.111L0.391243 264.345M0.391245 223.667L0.391245 221.313M0.391245 221.313L0.391246 211.816M0.391246 211.816L0.391246 199.154M0.391246 199.154L0.391247 185.594M0.391247 185.594L0.391247 185.25M0.391247 185.25L0.391248 171.039M0.391248 171.039L0.391249 155.374M0.391249 155.374L0.391249 141.173M0.391249 141.173L0.391249 138.467M0.391249 138.467L0.39125 120.165M0.39125 120.165L0.391251 100.287M0.391251 100.287L0.391252 86.0761M0.391252 86.0761L0.391253 78.6209M0.391253 78.6209L0.391254 54.9138M0.391254 54.9138L0.391255 28.8627M0.391255 28.8627L0.391256 15.2377M0.391256 15.2377L0.391257 0.102634M0.391257 0.102634L0.391257 -4.28896e-05L1453.61 0.000164988L1453.61 0.102842M1453.61 316.989L1453.61 310.563M1453.61 316.989L1453.61 317.482M1453.61 317.482L1453.61 323.118M1453.61 323.118L1453.61 328.97M1453.61 328.97L1453.61 334.011M1453.61 334.011L1453.61 334.563M1453.61 334.563L1453.61 339.914M1453.61 339.914L1453.61 345.038M1453.61 345.038L1453.61 348.595M1453.61 348.595L1453.61 349.95M1453.61 349.95L1453.61 354.662M1453.61 354.662L1453.61 359.187M1453.61 359.187L1453.61 361.559M1453.61 361.559L1453.61 363.535M1453.61 363.535L1453.61 367.717M1453.61 367.717L1453.61 371.741M1453.61 371.741L1453.61 373.158M1453.61 373.158L1453.61 375.617M1453.61 375.617L1453.61 379.353M1453.61 379.353L1453.61 382.956M1453.61 382.956L1453.61 383.598M1453.61 383.598L1453.61 386.433M1453.61 386.433L1453.61 389.791M1453.61 389.791L1453.61 393.035M1453.61 393.035L1453.64 393.035L1453.61 393.042M1453.61 393.035L1453.61 393.042M1453.61 393.042L1453.61 396.171M1453.61 396.171L1453.61 399.205M1453.61 0.102842L1453.61 15.2379M1453.61 15.2379L1453.61 28.8629M1453.61 28.8629L1453.61 54.9135M1453.61 54.9135L1453.61 78.6211M1453.61 78.6211L1453.61 86.0763M1453.61 86.0763L1453.61 100.287M1453.61 100.287L1453.61 120.165M1453.61 120.165L1453.61 138.467M1453.61 138.467L1453.61 141.173M1453.61 141.173L1453.61 155.374M1453.61 155.374L1453.61 171.039M1453.61 171.039L1453.61 185.25M1453.61 185.25L1453.61 185.595M1453.61 185.595L1453.61 199.154M1453.61 199.154L1453.61 211.816M1453.61 211.816L1453.61 221.313M1453.61 221.313L1453.61 223.667M1453.61 223.667L1453.61 234.783M1453.61 234.783L1453.61 245.231M1453.61 245.231L1453.61 251.366M1453.61 251.366L1453.61 255.067M1453.61 255.067L1453.61 264.345M1453.61 264.345L1453.61 273.111M1453.61 273.111L1453.61 276.795M1453.61 276.795L1453.61 281.407M1453.61 281.407L1453.61 289.268M1453.61 289.268L1453.61 296.728M1453.61 296.728L1453.61 298.592M1453.61 298.592L1453.61 303.817M1453.61 303.817L1453.61 310.563" stroke="url(#paint0_linear_585_4041)" stroke-opacity="0.34" stroke-width="1.8895" stroke-miterlimit="10" stroke-linecap="round" stroke-linejoin="round" style="mix-blend-mode:screen"/>
<defs>
<linearGradient id="paint0_linear_585_4041" x1="727" y1="402.142" x2="727" y2="120.191" gradientUnits="userSpaceOnUse">
<stop stop-color="#CED2DF" stop-opacity="0"/>
<stop offset="1" stop-color="#5D606A"/>
</linearGradient>
</defs>
</svg>
