<svg width="548" height="906" viewBox="0 0 548 906" fill="none" xmlns="http://www.w3.org/2000/svg">
<ellipse cx="268" cy="793.5" rx="252.5" ry="112.5" fill="url(#paint0_linear_585_4037)"/>
<g style="mix-blend-mode:lighten" opacity="0.35">
<mask id="mask0_585_4037" style="mask-type:alpha" maskUnits="userSpaceOnUse" x="16" y="681" width="506" height="225">
<ellipse cx="269" cy="793.5" rx="252.5" ry="112.5" fill="url(#paint1_linear_585_4037)"/>
</mask>
<g mask="url(#mask0_585_4037)">
<g filter="url(#filter0_f_585_4037)">
<ellipse cx="269" cy="793.5" rx="252.5" ry="112.5" fill="url(#paint2_linear_585_4037)"/>
</g>
</g>
</g>
<path d="M168 499C149.2 490.6 139.833 475.5 137.5 469C147.5 521.8 170.667 539.333 181 541.5L168 499Z" fill="#08122F"/>
<path d="M350 502.5C280.4 530.1 209.667 515.667 183 505L193.5 547.5C270.3 569.1 322.167 555.167 338.5 545.5L350 502.5Z" fill="#08122F"/>
<path d="M352 538.5L365.5 495.5C376.3 489.9 386.333 478.833 390 474C388 488.4 377.833 510 373 519C367.8 529.4 356.833 536.333 352 538.5Z" fill="#08122F"/>
<path d="M168 499C149.2 490.6 139.833 475.5 137.5 469C147.5 521.8 170.667 539.333 181 541.5L168 499Z" stroke="#6E88D2"/>
<path d="M350 502.5C280.4 530.1 209.667 515.667 183 505L193.5 547.5C270.3 569.1 322.167 555.167 338.5 545.5L350 502.5Z" stroke="#6E88D2"/>
<path d="M352 538.5L365.5 495.5C376.3 489.9 386.333 478.833 390 474C388 488.4 377.833 510 373 519C367.8 529.4 356.833 536.333 352 538.5Z" stroke="#6E88D2"/>
<path d="M256.5 277.5C100.1 274.7 32.3333 222.667 18 197C20.8 209 36.5 243 44 258.5C100.8 305.7 209.333 318.5 256.5 319V277.5Z" fill="#08122F"/>
<path d="M275.5 319V277.5C357.9 277.5 430.833 253.167 457 241L442.5 284C386.1 312 307.667 319 275.5 319Z" fill="#08122F"/>
<path d="M456 276.5L472.5 232C488.481 223.2 504.159 208 510 201.5L490.5 246.5C486.5 258.1 465.833 271.333 456 276.5Z" fill="#08122F"/>
<path d="M256.5 277.5C100.1 274.7 32.3333 222.667 18 197C20.8 209 36.5 243 44 258.5C100.8 305.7 209.333 318.5 256.5 319V277.5Z" stroke="#6E88D2"/>
<path d="M275.5 319V277.5C357.9 277.5 430.833 253.167 457 241L442.5 284C386.1 312 307.667 319 275.5 319Z" stroke="#6E88D2"/>
<path d="M456 276.5L472.5 232C488.481 223.2 504.159 208 510 201.5L490.5 246.5C486.5 258.1 465.833 271.333 456 276.5Z" stroke="#6E88D2"/>
<path d="M120.5 315.5C83.7 305.5 57.8333 281.333 49.5 270.5C59.5 329.3 110 354.667 134 360L120.5 315.5Z" fill="#08122F" stroke="#6E88D2"/>
<path d="M313 335.5C237 343.5 166.333 330.5 140.5 323L150.5 365C207.3 382.2 280.167 380.167 309.5 377L313 335.5Z" fill="#08122F"/>
<path d="M335 373L342.5 332.5C426.1 319.3 470.333 283.667 482 267.5C474 286.7 465 308.833 461.5 317.5C434.7 351.9 366 368.833 335 373Z" fill="#08122F"/>
<path d="M313 335.5C237 343.5 166.333 330.5 140.5 323L150.5 365C207.3 382.2 280.167 380.167 309.5 377L313 335.5Z" stroke="#6E88D2"/>
<path d="M335 373L342.5 332.5C426.1 319.3 470.333 283.667 482 267.5C474 286.7 465 308.833 461.5 317.5C434.7 351.9 366 368.833 335 373Z" stroke="#6E88D2"/>
<path d="M392 415.5L404 372C363.6 395.2 282.5 399.667 247 399C133.4 391.8 88.3333 353.667 80 335.5C86.8 367.5 99.8333 388.5 105.5 395C201.5 465.8 336.5 438.167 392 415.5Z" fill="#08122F" stroke="#6E88D2"/>
<path d="M405 407L419 364C435 357.6 445.667 343.667 449 337.5C443.524 365.567 430.56 392.553 405 407Z" fill="#08122F"/>
<path d="M346 449C388.4 440.6 412 417.5 418.5 407C409.602 452.974 381.61 478.467 337 489.5L346 449Z" fill="#08122F"/>
<path d="M320.5 494L328 453C287.6 462.2 238.167 458.833 218.5 456L224 495.5C259.2 502.7 303 497.5 320.5 494Z" fill="#08122F"/>
<path d="M208 494L200.5 453C143.7 443 116.833 417.5 110.5 406C116.083 459.041 158.023 485.383 208 494Z" fill="#08122F"/>
<path d="M405 407L419 364C435 357.6 445.667 343.667 449 337.5C443.524 365.567 430.56 392.553 405 407Z" stroke="#6E88D2"/>
<path d="M346 449C388.4 440.6 412 417.5 418.5 407C409.602 452.974 381.61 478.467 337 489.5L346 449Z" stroke="#6E88D2"/>
<path d="M320.5 494L328 453C287.6 462.2 238.167 458.833 218.5 456L224 495.5C259.2 502.7 303 497.5 320.5 494Z" stroke="#6E88D2"/>
<path d="M208 494L200.5 453C143.7 443 116.833 417.5 110.5 406C116.083 459.041 158.023 485.383 208 494Z" stroke="#6E88D2"/>
<path d="M224 575C190.8 570.2 173.5 549.667 169 540C167.4 548 173.667 561 177 566.5C187.4 578.9 188 606.333 187 618.5C183 643.3 207.667 654.833 220.5 657.5L224 575Z" fill="#08122F"/>
<path d="M236 684V577.5C248.4 579.959 266.5 579.525 274 579C329.2 576.6 355.333 552 361.5 540C365.1 548 355.667 564 350.5 571C342.5 581.4 343.833 614.333 345.5 629.5C343.9 645.9 320.833 656 309.5 659L308 622.5C308 612.9 302.667 609.5 300 609C291.2 607.4 288.667 614.667 288.5 618.5V684L327.5 678.5L266.5 760.5L201 676.5L236 684Z" fill="#08122F"/>
<path d="M224 575C190.8 570.2 173.5 549.667 169 540C167.4 548 173.667 561 177 566.5C187.4 578.9 188 606.333 187 618.5C183 643.3 207.667 654.833 220.5 657.5L224 575Z" stroke="#6E88D2"/>
<path d="M236 684V577.5C248.4 579.959 266.5 579.525 274 579C329.2 576.6 355.333 552 361.5 540C365.1 548 355.667 564 350.5 571C342.5 581.4 343.833 614.333 345.5 629.5C343.9 645.9 320.833 656 309.5 659L308 622.5C308 612.9 302.667 609.5 300 609C291.2 607.4 288.667 614.667 288.5 618.5V684L327.5 678.5L266.5 760.5L201 676.5L236 684Z" stroke="#6E88D2"/>
<path fill-rule="evenodd" clip-rule="evenodd" d="M520.5 156.5C520.5 217.528 406.318 267 265.468 267C130.463 267 19.9592 221.55 11.0202 164.034H36.4238C45.3112 215.478 144.462 256.023 265.468 256.023C318.881 256.023 368.034 248.121 407.046 234.872L377.56 217.195C349.592 226.926 314.486 233.126 276.061 234.19L274.702 226.725C284.288 226.465 293.647 225.852 302.701 224.91L289.287 210.607L287.996 210.73L287.628 210.764L287.137 210.808L286.995 210.823H286.928L286.173 210.887L285.849 210.916L285.584 210.936L285.383 210.95L284.256 211.039L283.817 211.073L283.667 211.088L283.503 211.098L283.243 211.117L283.152 211.122L282.961 211.137L282.158 211.191L281.903 211.21L281.736 211.22L281.086 211.264L279.67 211.348L277.491 211.461L277.43 211.466L277.06 211.48L276.427 211.515L276.213 211.519L275.867 211.534L275.612 211.544L274.211 211.598L273.053 211.637C270.547 211.711 268.018 211.75 265.468 211.75C231.172 211.75 200.483 204.809 179.972 193.891L148.177 205.947C169.132 215.184 196.209 221.923 226.657 225.003C224.9 227.397 222.901 230.183 221.571 232.184C143.635 224.111 85.8151 194.416 85.8151 159.011C85.8151 138.504 105.214 119.914 136.684 106.327L104.076 85.6864C63.1867 103.187 37.3734 127.281 35.8471 153.989H10.5C13.5819 94.1181 126.555 46 265.468 46C406.318 46 520.5 95.4719 520.5 156.5ZM442.608 159.011C442.608 177.959 426.041 195.279 398.691 208.518L428.706 226.514C469.789 208.532 495.16 183.801 495.16 156.5C495.16 102.81 397.043 59.0522 274.262 57.051V83.7882C357.79 85.7502 425.984 111.972 439.978 146.047L422.763 147.96C410.266 115.739 344.039 91.1555 264.212 91.1555C247.131 91.1555 230.677 92.2836 215.235 94.3683L231.746 113.62C242.388 112.11 253.715 111.295 265.468 111.295C270.582 111.295 275.614 111.448 280.544 111.747V121.557C275.641 121.184 270.604 120.993 265.468 120.993C215.64 120.993 175.247 139.141 175.247 161.523C175.247 183.904 215.64 202.053 265.468 202.053C278.22 202.053 290.351 200.866 301.349 198.722L311.952 210.494L312.555 210.274L323.666 222.07C382.747 212.128 424.566 187.804 424.88 159.335L442.589 157.859L442.596 158.143L442.606 158.585L442.608 159.011ZM122.759 78.5104C159.503 65.8702 205.386 58.0026 255.418 57.0706V83.7587C217.576 84.5337 182.826 90.2922 154.77 99.5087L122.759 78.5104ZM305.503 125.191L311.52 115.739C350.301 123.622 377.28 141.157 377.28 161.523C377.28 177.459 360.757 191.664 334.983 200.866L325.779 191.664C344.142 184.243 355.69 173.491 355.69 161.523C355.69 145.601 335.245 131.818 305.503 125.191ZM129.924 196.28C113.245 185.582 103.541 172.775 103.541 159.011C103.541 132.147 140.511 108.926 194.138 97.9342L211.726 117.466C177.116 126.006 153.656 142.531 153.656 161.523C153.656 168.846 157.148 175.806 163.42 182.08L129.924 196.28Z" fill="url(#paint3_radial_585_4037)"/>
<path d="M236 161L241.773 151H230.227L236 161ZM0 1V2H2V1V0H0V1ZM6 1V2H10V1V0H6V1ZM14 1V2H18V1V0H14V1ZM22 1V2H26V1V0H22V1ZM30 1V2H34V1V0H30V1ZM38 1V2H42V1V0H38V1ZM46 1V2H50V1V0H46V1ZM54 1V2H58V1V0H54V1ZM62 1V2H66V1V0H62V1ZM70 1V2H74V1V0H70V1ZM78 1V2H82V1V0H78V1ZM86 1V2H90V1V0H86V1ZM94 1V2H98V1V0H94V1ZM102 1V2H106V1V0H102V1ZM110 1V2H114V1V0H110V1ZM118 1V2H122V1V0H118V1ZM126 1V2H130V1V0H126V1ZM134 1V2H138V1V0H134V1ZM142 1V2H146V1V0H142V1ZM150 1V2H154V1V0H150V1ZM158 1V2H162V1V0H158V1ZM166 1V2H170V1V0H166V1ZM174 1V2H178V1V0H174V1ZM182 1V2H186V1V0H182V1ZM190 1V2H194V1V0H190V1ZM198 1V2H202V1V0H198V1ZM206 1V2H210V1V0H206V1ZM214 1V2H216V1V0H214V1ZM216 1V2C216.629 2 217.251 2.03056 217.864 2.09022L217.961 1.09493L218.058 0.0996289C217.381 0.0337082 216.694 0 216 0V1ZM221.808 1.85627L221.518 2.81331C222.719 3.1772 223.87 3.6569 224.957 4.23954L225.43 3.35802L225.902 2.47651C224.699 1.83235 223.426 1.30177 222.098 0.899225L221.808 1.85627ZM228.688 5.5392L228.053 6.31185C229.015 7.10209 229.898 7.98496 230.688 8.94677L231.461 8.31194L232.233 7.67711C231.361 6.61466 230.385 5.63947 229.323 4.76655L228.688 5.5392ZM233.642 11.5704L232.76 12.0425C233.343 13.1303 233.823 14.2812 234.187 15.4823L235.144 15.1923L236.101 14.9024C235.698 13.5737 235.168 12.3009 234.523 11.0982L233.642 11.5704ZM235.905 19.0389L234.91 19.1358C234.969 19.7488 235 20.3707 235 21H236H237C237 20.3059 236.966 19.6194 236.9 18.942L235.905 19.0389ZM236 21H235V22.9444H236H237V21H236ZM236 26.8333H235V30.7222H236H237V26.8333H236ZM236 34.6111H235V38.5H236H237V34.6111H236ZM236 42.3889H235V46.2778H236H237V42.3889H236ZM236 50.1667H235V54.0556H236H237V50.1667H236ZM236 57.9444H235V61.8333H236H237V57.9444H236ZM236 65.7222H235V69.6111H236H237V65.7222H236ZM236 73.5H235V77.3889H236H237V73.5H236ZM236 81.2778H235V85.1667H236H237V81.2778H236ZM236 89.0556H235V92.9444H236H237V89.0556H236ZM236 96.8333H235V100.722H236H237V96.8333H236ZM236 104.611H235V108.5H236H237V104.611H236ZM236 112.389H235V116.278H236H237V112.389H236ZM236 120.167H235V124.056H236H237V120.167H236ZM236 127.944H235V131.833H236H237V127.944H236ZM236 135.722H235V139.611H236H237V135.722H236ZM236 143.5H235V147.389H236H237V143.5H236ZM236 151.278H235V155.167H236H237V151.278H236Z" fill="url(#paint4_linear_585_4037)"/>
<path d="M301.5 162L295.727 152H307.273L301.5 162ZM547.5 58V59H545.482V58V57H547.5V58ZM541.446 58V59H537.411V58V57H541.446V58ZM533.375 58V59H529.339V58V57H533.375V58ZM525.304 58V59H521.268V58V57H525.304V58ZM517.232 58V59H513.196V58V57H517.232V58ZM509.161 58V59H505.125V58V57H509.161V58ZM501.089 58V59H497.054V58V57H501.089V58ZM493.018 58V59H488.982V58V57H493.018V58ZM484.946 58V59H480.911V58V57H484.946V58ZM476.875 58V59H472.839V58V57H476.875V58ZM468.804 58V59H464.768V58V57H468.804V58ZM460.732 58V59H456.696V58V57H460.732V58ZM452.661 58V59H448.625V58V57H452.661V58ZM444.589 58V59H440.554V58V57H444.589V58ZM436.518 58V59H432.482V58V57H436.518V58ZM428.446 58V59H424.411V58V57H428.446V58ZM420.375 58V59H416.339V58V57H420.375V58ZM412.304 58V59H408.268V58V57H412.304V58ZM404.232 58V59H400.196V58V57H404.232V58ZM396.161 58V59H392.125V58V57H396.161V58ZM388.089 58V59H384.054V58V57H388.089V58ZM380.018 58V59H375.982V58V57H380.018V58ZM371.946 58V59H367.911V58V57H371.946V58ZM363.875 58V59H359.839V58V57H363.875V58ZM355.803 58V59H351.768V58V57H355.803V58ZM347.732 58V59H343.696V58V57H347.732V58ZM339.661 58V59H335.625V58V57H339.661V58ZM331.589 58V59H327.553V58V57H331.589V58ZM323.518 58V59H321.5V58V57H323.518V58ZM321.5 58V59C320.871 59 320.249 59.0306 319.636 59.0902L319.539 58.0949L319.442 57.0996C320.119 57.0337 320.806 57 321.5 57V58ZM315.692 58.8563L315.982 59.8133C314.781 60.1772 313.63 60.6569 312.543 61.2395L312.07 60.358L311.598 59.4765C312.801 58.8324 314.074 58.3018 315.402 57.8992L315.692 58.8563ZM308.812 62.5392L309.447 63.3119C308.485 64.1021 307.602 64.985 306.812 65.9468L306.039 65.3119L305.267 64.6771C306.139 63.6147 307.115 62.6395 308.177 61.7665L308.812 62.5392ZM303.858 68.5704L304.74 69.0425C304.157 70.1303 303.677 71.2812 303.313 72.4823L302.356 72.1923L301.399 71.9024C301.802 70.5737 302.332 69.3009 302.977 68.0982L303.858 68.5704ZM301.595 76.0389L302.59 76.1358C302.531 76.7488 302.5 77.3707 302.5 78H301.5H300.5C300.5 77.3059 300.534 76.6194 300.6 75.942L301.595 76.0389ZM301.5 78H302.5V80.1H301.5H300.5V78H301.5ZM301.5 84.3H302.5V88.5H301.5H300.5V84.3H301.5ZM301.5 92.7H302.5V96.9H301.5H300.5V92.7H301.5ZM301.5 101.1H302.5V105.3H301.5H300.5V101.1H301.5ZM301.5 109.5H302.5V113.7H301.5H300.5V109.5H301.5ZM301.5 117.9H302.5V122.1H301.5H300.5V117.9H301.5ZM301.5 126.3H302.5V130.5H301.5H300.5V126.3H301.5ZM301.5 134.7H302.5V138.9H301.5H300.5V134.7H301.5ZM301.5 143.1H302.5V147.3H301.5H300.5V143.1H301.5ZM301.5 151.5H302.5V155.7H301.5H300.5V151.5H301.5Z" fill="url(#paint5_linear_585_4037)"/>
<path d="M270 784C373.416 784 457.484 820.94 459.464 866.843C413.158 890.817 344.559 906 268 906C193.598 906 126.713 891.66 80.502 868.848C80.5009 868.732 80.5 868.616 80.5 868.5C80.5 821.832 165.342 784 270 784Z" fill="#0E1E4C"/>
<path opacity="0.7" d="M215.938 842.008C216.727 842.008 217.375 841.926 217.883 841.762C218.789 841.457 219.531 840.871 220.109 840.004C220.57 839.309 220.902 838.418 221.105 837.332C221.223 836.684 221.281 836.082 221.281 835.527C221.281 833.395 220.855 831.738 220.004 830.559C219.16 829.379 217.797 828.789 215.914 828.789H211.777V842.008H215.938ZM209.434 826.785H216.406C218.773 826.785 220.609 827.625 221.914 829.305C223.078 830.82 223.66 832.762 223.66 835.129C223.66 836.957 223.316 838.609 222.629 840.086C221.418 842.695 219.336 844 216.383 844H209.434V826.785ZM231.617 831.168C232.508 831.168 233.371 831.379 234.207 831.801C235.043 832.215 235.68 832.754 236.117 833.418C236.539 834.051 236.82 834.789 236.961 835.633C237.086 836.211 237.148 837.133 237.148 838.398H227.949C227.988 839.672 228.289 840.695 228.852 841.469C229.414 842.234 230.285 842.617 231.465 842.617C232.566 842.617 233.445 842.254 234.102 841.527C234.477 841.105 234.742 840.617 234.898 840.062H236.973C236.918 840.523 236.734 841.039 236.422 841.609C236.117 842.172 235.773 842.633 235.391 842.992C234.75 843.617 233.957 844.039 233.012 844.258C232.504 844.383 231.93 844.445 231.289 844.445C229.727 844.445 228.402 843.879 227.316 842.746C226.23 841.605 225.688 840.012 225.688 837.965C225.688 835.949 226.234 834.312 227.328 833.055C228.422 831.797 229.852 831.168 231.617 831.168ZM234.98 836.723C234.895 835.809 234.695 835.078 234.383 834.531C233.805 833.516 232.84 833.008 231.488 833.008C230.52 833.008 229.707 833.359 229.051 834.062C228.395 834.758 228.047 835.645 228.008 836.723H234.98ZM239.586 826.727H241.637V832.973C242.098 832.371 242.648 831.914 243.289 831.602C243.93 831.281 244.625 831.121 245.375 831.121C246.938 831.121 248.203 831.66 249.172 832.738C250.148 833.809 250.637 835.391 250.637 837.484C250.637 839.469 250.156 841.117 249.195 842.43C248.234 843.742 246.902 844.398 245.199 844.398C244.246 844.398 243.441 844.168 242.785 843.707C242.395 843.434 241.977 842.996 241.531 842.395V844H239.586V826.727ZM245.07 842.535C246.211 842.535 247.062 842.082 247.625 841.176C248.195 840.27 248.48 839.074 248.48 837.59C248.48 836.27 248.195 835.176 247.625 834.309C247.062 833.441 246.23 833.008 245.129 833.008C244.168 833.008 243.324 833.363 242.598 834.074C241.879 834.785 241.52 835.957 241.52 837.59C241.52 838.77 241.668 839.727 241.965 840.461C242.52 841.844 243.555 842.535 245.07 842.535ZM253.531 827.945H255.664V831.449H257.668V833.172H255.664V841.363C255.664 841.801 255.812 842.094 256.109 842.242C256.273 842.328 256.547 842.371 256.93 842.371C257.031 842.371 257.141 842.371 257.258 842.371C257.375 842.363 257.512 842.352 257.668 842.336V844C257.426 844.07 257.172 844.121 256.906 844.152C256.648 844.184 256.367 844.199 256.062 844.199C255.078 844.199 254.41 843.949 254.059 843.449C253.707 842.941 253.531 842.285 253.531 841.48V833.172H251.832V831.449H253.531V827.945ZM278.855 826.785V828.836H273.055V844H270.688V828.836H264.887V826.785H278.855ZM279.887 831.449H281.891V833.617C282.055 833.195 282.457 832.684 283.098 832.082C283.738 831.473 284.477 831.168 285.312 831.168C285.352 831.168 285.418 831.172 285.512 831.18C285.605 831.188 285.766 831.203 285.992 831.227V833.453C285.867 833.43 285.75 833.414 285.641 833.406C285.539 833.398 285.426 833.395 285.301 833.395C284.238 833.395 283.422 833.738 282.852 834.426C282.281 835.105 281.996 835.891 281.996 836.781V844H279.887V831.449ZM289.438 840.66C289.438 841.27 289.66 841.75 290.105 842.102C290.551 842.453 291.078 842.629 291.688 842.629C292.43 842.629 293.148 842.457 293.844 842.113C295.016 841.543 295.602 840.609 295.602 839.312V837.613C295.344 837.777 295.012 837.914 294.605 838.023C294.199 838.133 293.801 838.211 293.41 838.258L292.133 838.422C291.367 838.523 290.793 838.684 290.41 838.902C289.762 839.27 289.438 839.855 289.438 840.66ZM294.547 836.395C295.031 836.332 295.355 836.129 295.52 835.785C295.613 835.598 295.66 835.328 295.66 834.977C295.66 834.258 295.402 833.738 294.887 833.418C294.379 833.09 293.648 832.926 292.695 832.926C291.594 832.926 290.812 833.223 290.352 833.816C290.094 834.145 289.926 834.633 289.848 835.281H287.879C287.918 833.734 288.418 832.66 289.379 832.059C290.348 831.449 291.469 831.145 292.742 831.145C294.219 831.145 295.418 831.426 296.34 831.988C297.254 832.551 297.711 833.426 297.711 834.613V841.844C297.711 842.062 297.754 842.238 297.84 842.371C297.934 842.504 298.125 842.57 298.414 842.57C298.508 842.57 298.613 842.566 298.73 842.559C298.848 842.543 298.973 842.523 299.105 842.5V844.059C298.777 844.152 298.527 844.211 298.355 844.234C298.184 844.258 297.949 844.27 297.652 844.27C296.926 844.27 296.398 844.012 296.07 843.496C295.898 843.223 295.777 842.836 295.707 842.336C295.277 842.898 294.66 843.387 293.855 843.801C293.051 844.215 292.164 844.422 291.195 844.422C290.031 844.422 289.078 844.07 288.336 843.367C287.602 842.656 287.234 841.77 287.234 840.707C287.234 839.543 287.598 838.641 288.324 838C289.051 837.359 290.004 836.965 291.184 836.816L294.547 836.395ZM306.477 842.582C307.461 842.582 308.277 842.172 308.926 841.352C309.582 840.523 309.91 839.289 309.91 837.648C309.91 836.648 309.766 835.789 309.477 835.07C308.93 833.688 307.93 832.996 306.477 832.996C305.016 832.996 304.016 833.727 303.477 835.188C303.188 835.969 303.043 836.961 303.043 838.164C303.043 839.133 303.188 839.957 303.477 840.637C304.023 841.934 305.023 842.582 306.477 842.582ZM301.016 831.508H303.066V833.172C303.488 832.602 303.949 832.16 304.449 831.848C305.16 831.379 305.996 831.145 306.957 831.145C308.379 831.145 309.586 831.691 310.578 832.785C311.57 833.871 312.066 835.426 312.066 837.449C312.066 840.184 311.352 842.137 309.922 843.309C309.016 844.051 307.961 844.422 306.758 844.422C305.812 844.422 305.02 844.215 304.379 843.801C304.004 843.566 303.586 843.164 303.125 842.594V849.004H301.016V831.508Z" fill="white"/>
<defs>
<filter id="filter0_f_585_4037" x="-103.5" y="561" width="745" height="465" filterUnits="userSpaceOnUse" color-interpolation-filters="sRGB">
<feFlood flood-opacity="0" result="BackgroundImageFix"/>
<feBlend mode="normal" in="SourceGraphic" in2="BackgroundImageFix" result="shape"/>
<feGaussianBlur stdDeviation="60" result="effect1_foregroundBlur_585_4037"/>
</filter>
<linearGradient id="paint0_linear_585_4037" x1="520.5" y1="793.5" x2="15.5" y2="793.5" gradientUnits="userSpaceOnUse">
<stop stop-color="#162A60"/>
<stop offset="0.471154" stop-color="#224093"/>
<stop offset="1" stop-color="#162A60"/>
</linearGradient>
<linearGradient id="paint1_linear_585_4037" x1="521.5" y1="793.5" x2="16.5" y2="793.5" gradientUnits="userSpaceOnUse">
<stop stop-color="#162A60"/>
<stop offset="0.471154" stop-color="#224093"/>
<stop offset="1" stop-color="#162A60"/>
</linearGradient>
<linearGradient id="paint2_linear_585_4037" x1="521.5" y1="793.5" x2="16.5" y2="793.5" gradientUnits="userSpaceOnUse">
<stop stop-color="#728DD9"/>
<stop offset="0.471154" stop-color="#224093"/>
<stop offset="1" stop-color="#728DD9"/>
</linearGradient>
<radialGradient id="paint3_radial_585_4037" cx="0" cy="0" r="1" gradientUnits="userSpaceOnUse" gradientTransform="translate(265.5 156.5) rotate(90) scale(146 336.923)">
<stop stop-color="#7FA1FF"/>
<stop offset="1" stop-color="#040D26"/>
</radialGradient>
<linearGradient id="paint4_linear_585_4037" x1="11.5" y1="0.999995" x2="236.5" y2="128.5" gradientUnits="userSpaceOnUse">
<stop stop-color="#040D26"/>
<stop offset="1" stop-color="#7FA1FF"/>
</linearGradient>
<linearGradient id="paint5_linear_585_4037" x1="535.513" y1="58" x2="365.809" y2="212.216" gradientUnits="userSpaceOnUse">
<stop stop-color="#040D26"/>
<stop offset="1" stop-color="#7FA1FF"/>
</linearGradient>
</defs>
</svg>
