<svg width="387" height="651" viewBox="0 0 387 651" fill="none" xmlns="http://www.w3.org/2000/svg">
<ellipse cx="194.684" cy="565.148" rx="190.903" ry="85.0559" fill="url(#paint0_linear_649_12633)"/>
<g style="mix-blend-mode:lighten" opacity="0.35">
<mask id="mask0_649_12633" style="mask-type:alpha" maskUnits="userSpaceOnUse" x="4" y="480" width="383" height="171">
<ellipse cx="195.442" cy="565.148" rx="190.903" ry="85.0559" fill="url(#paint1_linear_649_12633)"/>
</mask>
<g mask="url(#mask0_649_12633)">
<g filter="url(#filter0_f_649_12633)">
<ellipse cx="195.442" cy="565.148" rx="190.903" ry="85.0559" fill="url(#paint2_linear_649_12633)"/>
</g>
</g>
</g>
<path d="M119.079 342.492C104.865 336.141 97.7837 324.725 96.0195 319.811C103.58 359.73 121.095 372.986 128.908 374.624L119.079 342.492Z" fill="#08122F"/>
<path d="M256.681 345.138C204.059 366.005 150.581 355.093 130.42 347.028L138.358 379.161C196.423 395.491 235.637 384.957 247.986 377.649L256.681 345.138Z" fill="#08122F"/>
<path d="M258.193 372.356L268.399 339.846C276.565 335.612 284.15 327.245 286.923 323.591C285.411 334.478 277.724 350.809 274.07 357.613C270.138 365.476 261.847 370.718 258.193 372.356Z" fill="#08122F"/>
<path d="M119.079 342.492C104.865 336.141 97.7837 324.725 96.0195 319.811C103.58 359.73 121.095 372.986 128.908 374.624L119.079 342.492Z" stroke="#6E88D2" stroke-width="0.756052"/>
<path d="M256.681 345.138C204.059 366.005 150.581 355.093 130.42 347.028L138.358 379.161C196.423 395.491 235.637 384.957 247.986 377.649L256.681 345.138Z" stroke="#6E88D2" stroke-width="0.756052"/>
<path d="M258.193 372.356L268.399 339.846C276.565 335.612 284.15 327.245 286.923 323.591C285.411 334.478 277.724 350.809 274.07 357.613C270.138 365.476 261.847 370.718 258.193 372.356Z" stroke="#6E88D2" stroke-width="0.756052"/>
<path d="M185.99 175.026C67.7438 172.909 16.5086 133.569 5.67188 114.164C7.78882 123.237 19.6588 148.942 25.3292 160.661C68.273 196.347 150.33 206.024 185.99 206.402V175.026Z" fill="#08122F"/>
<path d="M200.355 206.402V175.026C262.654 175.026 317.795 156.629 337.579 147.43L326.616 179.941C283.975 201.11 224.675 206.402 200.355 206.402Z" fill="#08122F"/>
<path d="M336.823 174.27L349.298 140.626C361.38 133.973 373.233 122.481 377.65 117.566L362.907 151.589C359.882 160.359 344.257 170.364 336.823 174.27Z" fill="#08122F"/>
<path d="M185.99 175.026C67.7438 172.909 16.5086 133.569 5.67188 114.164C7.78882 123.237 19.6588 148.942 25.3292 160.661C68.273 196.347 150.33 206.024 185.99 206.402V175.026Z" stroke="#6E88D2" stroke-width="0.756052"/>
<path d="M200.355 206.402V175.026C262.654 175.026 317.795 156.629 337.579 147.43L326.616 179.941C283.975 201.11 224.675 206.402 200.355 206.402Z" stroke="#6E88D2" stroke-width="0.756052"/>
<path d="M336.823 174.27L349.298 140.626C361.38 133.973 373.233 122.481 377.65 117.566L362.907 151.589C359.882 160.359 344.257 170.364 336.823 174.27Z" stroke="#6E88D2" stroke-width="0.756052"/>
<path d="M83.1641 203.757C55.3414 196.196 35.7848 177.925 29.4844 169.734C37.0449 214.19 75.2255 233.369 93.3708 237.401L83.1641 203.757Z" fill="#08122F" stroke="#6E88D2" stroke-width="0.756052"/>
<path d="M228.704 218.876C171.244 224.925 117.817 215.096 98.2852 209.426L105.846 241.18C148.789 254.184 203.88 252.647 226.058 250.253L228.704 218.876Z" fill="#08122F"/>
<path d="M245.337 247.228L251.008 216.608C314.214 206.628 347.656 179.688 356.477 167.465C350.429 181.981 343.624 198.715 340.978 205.267C320.716 231.276 268.775 244.078 245.337 247.228Z" fill="#08122F"/>
<path d="M228.704 218.876C171.244 224.925 117.817 215.096 98.2852 209.426L105.846 241.18C148.789 254.184 203.88 252.647 226.058 250.253L228.704 218.876Z" stroke="#6E88D2" stroke-width="0.756052"/>
<path d="M245.337 247.228L251.008 216.608C314.214 206.628 347.656 179.688 356.477 167.465C350.429 181.981 343.624 198.715 340.978 205.267C320.716 231.276 268.775 244.078 245.337 247.228Z" stroke="#6E88D2" stroke-width="0.756052"/>
<path d="M288.435 279.361L297.508 246.473C266.963 264.013 205.647 267.39 178.808 266.886C92.9201 261.443 58.8473 232.612 52.5469 218.877C57.688 243.071 67.5419 258.948 71.8262 263.862C144.407 317.391 246.474 296.498 288.435 279.361Z" fill="#08122F" stroke="#6E88D2" stroke-width="0.756052"/>
<path d="M298.263 272.934L308.848 240.424C320.944 235.585 329.009 225.051 331.529 220.389C327.389 241.609 317.587 262.012 298.263 272.934Z" fill="#08122F"/>
<path d="M253.656 304.688C285.712 298.338 303.555 280.873 308.47 272.934C301.742 307.693 280.579 326.967 246.851 335.309L253.656 304.688Z" fill="#08122F"/>
<path d="M234.376 338.711L240.047 307.713C209.502 314.668 172.128 312.123 157.259 309.981L161.417 339.845C188.03 345.288 221.146 341.357 234.376 338.711Z" fill="#08122F"/>
<path d="M149.321 338.711L143.65 307.713C100.706 300.152 80.3938 280.873 75.6055 272.178C79.8267 312.28 111.536 332.196 149.321 338.711Z" fill="#08122F"/>
<path d="M298.263 272.934L308.848 240.424C320.944 235.585 329.009 225.051 331.529 220.389C327.389 241.609 317.587 262.012 298.263 272.934Z" stroke="#6E88D2" stroke-width="0.756052"/>
<path d="M253.656 304.688C285.712 298.338 303.555 280.873 308.47 272.934C301.742 307.693 280.579 326.967 246.851 335.309L253.656 304.688Z" stroke="#6E88D2" stroke-width="0.756052"/>
<path d="M234.376 338.711L240.047 307.713C209.502 314.668 172.128 312.123 157.259 309.981L161.417 339.845C188.03 345.288 221.146 341.357 234.376 338.711Z" stroke="#6E88D2" stroke-width="0.756052"/>
<path d="M149.321 338.711L143.65 307.713C100.706 300.152 80.3938 280.873 75.6055 272.178C79.8267 312.28 111.536 332.196 149.321 338.711Z" stroke="#6E88D2" stroke-width="0.756052"/>
<path d="M161.418 399.952C136.317 396.323 123.237 380.799 119.835 373.49C118.625 379.539 123.363 389.367 125.883 393.526C133.746 402.901 134.2 423.642 133.444 432.84C130.42 451.59 149.069 460.31 158.771 462.326L161.418 399.952Z" fill="#08122F"/>
<path d="M170.49 482.362V401.842C179.865 403.701 193.55 403.373 199.22 402.976C240.954 401.162 260.713 382.563 265.375 373.49C268.097 379.539 260.965 391.635 257.058 396.928C251.01 404.791 252.018 429.69 253.278 441.157C252.068 453.556 234.629 461.192 226.06 463.46L224.926 435.865C224.926 428.606 220.894 426.036 218.878 425.658C212.224 424.448 210.309 429.942 210.183 432.84V482.362L239.669 478.203L193.55 540.2L144.028 476.691L170.49 482.362Z" fill="#08122F"/>
<path d="M161.418 399.952C136.317 396.323 123.237 380.799 119.835 373.49C118.625 379.539 123.363 389.367 125.883 393.526C133.746 402.901 134.2 423.642 133.444 432.84C130.42 451.59 149.069 460.31 158.771 462.326L161.418 399.952Z" stroke="#6E88D2" stroke-width="0.756052"/>
<path d="M170.49 482.362V401.842C179.865 403.701 193.55 403.373 199.22 402.976C240.954 401.162 260.713 382.563 265.375 373.49C268.097 379.539 260.965 391.635 257.058 396.928C251.01 404.791 252.018 429.69 253.278 441.157C252.068 453.556 234.629 461.192 226.06 463.46L224.926 435.865C224.926 428.606 220.894 426.036 218.878 425.658C212.224 424.448 210.309 429.942 210.183 432.84V482.362L239.669 478.203L193.55 540.2L144.028 476.691L170.49 482.362Z" stroke="#6E88D2" stroke-width="0.756052"/>
<path fill-rule="evenodd" clip-rule="evenodd" d="M385.587 83.5438C385.587 129.684 299.259 167.088 192.769 167.088C90.6985 167.088 7.15162 132.725 0.393293 89.2399H19.5997C26.3191 128.134 101.282 158.788 192.769 158.788C233.152 158.788 270.315 152.814 299.81 142.797L277.516 129.432C256.371 136.79 229.83 141.477 200.778 142.282L199.75 136.638C206.998 136.441 214.074 135.977 220.919 135.265L210.777 124.452L209.801 124.544L209.523 124.57L209.152 124.604L209.044 124.615H208.994L208.423 124.663L208.178 124.685L207.978 124.7L207.826 124.711L206.974 124.778L206.642 124.804L206.529 124.815L206.405 124.822L206.208 124.837L206.139 124.841L205.995 124.852L205.388 124.893L205.195 124.908L205.069 124.915L204.577 124.949L203.507 125.012L201.859 125.097L201.813 125.101L201.533 125.112L201.054 125.138L200.893 125.141L200.631 125.152L200.438 125.16L199.379 125.201L198.503 125.23C196.609 125.286 194.697 125.316 192.769 125.316C166.84 125.316 143.637 120.068 128.13 111.813L104.091 120.929C119.934 127.912 140.406 133.007 163.426 135.336C162.098 137.146 160.586 139.252 159.58 140.765C100.657 134.661 56.9421 112.21 56.9421 85.4425C56.9421 69.9375 71.609 55.8825 95.4014 45.6101L70.7482 30.005C39.8339 43.2367 20.3177 61.4526 19.1638 81.645H0C2.33007 36.3798 87.7433 0 192.769 0C299.259 0 385.587 37.4033 385.587 83.5438ZM326.697 85.4425C326.697 99.7682 314.171 112.863 293.493 122.872L316.185 136.478C347.246 122.883 366.428 104.185 366.428 83.5438C366.428 42.9512 292.246 9.86816 199.418 8.35512V28.5698C262.569 30.0532 314.128 49.8785 324.708 75.6411L311.692 77.0874C302.244 52.7266 252.173 34.1399 191.819 34.1399C178.906 34.1399 166.465 34.9929 154.79 36.5689L167.274 51.1246C175.32 49.9824 183.883 49.3668 192.769 49.3668C196.635 49.3668 200.44 49.4817 204.167 49.7079V57.1248C200.461 56.843 196.652 56.6984 192.769 56.6984C155.097 56.6984 124.557 70.4196 124.557 87.3412C124.557 104.263 155.097 117.984 192.769 117.984C202.41 117.984 211.582 117.087 219.897 115.466L227.913 124.366L228.37 124.199L236.77 133.118C281.438 125.601 313.056 107.211 313.293 85.6872L326.682 84.571L326.687 84.7861L326.695 85.1199L326.697 85.4425ZM84.8733 24.5795C112.654 15.0229 147.344 9.07456 185.17 8.36995V28.5476C156.56 29.1335 130.288 33.4872 109.076 40.4554L84.8733 24.5795ZM223.038 59.8728L227.587 52.7266C256.907 58.6861 277.305 71.9438 277.305 87.3412C277.305 99.3899 264.812 110.13 245.326 117.087L238.367 110.13C252.251 104.519 260.981 96.3898 260.981 87.3412C260.981 75.3036 245.524 64.8829 223.038 59.8728ZM90.2904 113.619C77.6809 105.531 70.3438 95.8484 70.3438 85.4425C70.3438 65.1313 98.2954 47.5756 138.84 39.265L152.138 54.032C125.971 60.4884 108.233 72.9821 108.233 87.3412C108.233 92.8779 110.873 98.1402 115.615 102.883L90.2904 113.619Z" fill="url(#paint3_radial_649_12633)"/>
<path d="M196.197 557.967C274.386 557.967 337.944 585.896 339.439 620.602C304.43 638.727 252.566 650.205 194.685 650.205C138.434 650.205 87.8666 639.365 52.9287 622.118C52.9279 622.03 52.9258 621.942 52.9258 621.854C52.9258 586.57 117.071 557.967 196.197 557.967Z" fill="#0E1E4C"/>
<path opacity="0.7" d="M155.325 601.677C155.921 601.677 156.411 601.615 156.795 601.491C157.48 601.261 158.042 600.818 158.479 600.162C158.827 599.637 159.078 598.963 159.232 598.142C159.32 597.652 159.365 597.197 159.365 596.778C159.365 595.165 159.043 593.913 158.399 593.021C157.761 592.129 156.73 591.683 155.307 591.683H152.179V601.677H155.325ZM150.407 590.168H155.679C157.469 590.168 158.857 590.803 159.843 592.073C160.723 593.219 161.163 594.687 161.163 596.477C161.163 597.859 160.903 599.108 160.384 600.224C159.468 602.197 157.894 603.184 155.661 603.184H150.407V590.168ZM167.179 593.482C167.853 593.482 168.505 593.641 169.137 593.96C169.769 594.273 170.251 594.681 170.581 595.183C170.9 595.661 171.113 596.22 171.219 596.858C171.314 597.295 171.361 597.992 171.361 598.949H164.406C164.436 599.911 164.663 600.685 165.088 601.27C165.513 601.849 166.172 602.138 167.064 602.138C167.897 602.138 168.561 601.863 169.057 601.314C169.341 600.995 169.542 600.626 169.66 600.207H171.228C171.187 600.555 171.048 600.945 170.812 601.376C170.581 601.801 170.322 602.15 170.032 602.422C169.548 602.894 168.948 603.213 168.234 603.379C167.85 603.473 167.415 603.52 166.931 603.52C165.75 603.52 164.749 603.092 163.928 602.236C163.107 601.373 162.696 600.168 162.696 598.621C162.696 597.097 163.109 595.859 163.936 594.908C164.763 593.957 165.844 593.482 167.179 593.482ZM169.722 597.682C169.657 596.99 169.506 596.438 169.27 596.025C168.833 595.257 168.104 594.873 167.082 594.873C166.349 594.873 165.735 595.139 165.239 595.67C164.743 596.196 164.48 596.866 164.45 597.682H169.722ZM173.204 590.124H174.754V594.846C175.103 594.392 175.519 594.046 176.004 593.81C176.488 593.568 177.014 593.446 177.581 593.446C178.762 593.446 179.719 593.854 180.451 594.669C181.19 595.478 181.559 596.674 181.559 598.257C181.559 599.758 181.196 601.004 180.469 601.996C179.743 602.989 178.736 603.485 177.448 603.485C176.727 603.485 176.119 603.311 175.623 602.962C175.327 602.755 175.011 602.425 174.675 601.97V603.184H173.204V590.124ZM177.35 602.076C178.213 602.076 178.857 601.734 179.282 601.048C179.713 600.363 179.929 599.459 179.929 598.337C179.929 597.339 179.713 596.512 179.282 595.856C178.857 595.201 178.228 594.873 177.395 594.873C176.668 594.873 176.03 595.142 175.481 595.679C174.938 596.217 174.666 597.103 174.666 598.337C174.666 599.229 174.778 599.953 175.003 600.508C175.422 601.553 176.205 602.076 177.35 602.076ZM183.747 591.045H185.36V593.695H186.875V594.997H185.36V601.19C185.36 601.521 185.472 601.742 185.697 601.855C185.821 601.92 186.027 601.952 186.317 601.952C186.394 601.952 186.476 601.952 186.565 601.952C186.653 601.946 186.757 601.937 186.875 601.925V603.184C186.692 603.237 186.5 603.275 186.299 603.299C186.104 603.322 185.891 603.334 185.661 603.334C184.917 603.334 184.412 603.145 184.146 602.767C183.88 602.383 183.747 601.887 183.747 601.279V594.997H182.463V593.695H183.747V591.045ZM202.894 590.168V591.719H198.508V603.184H196.718V591.719H192.333V590.168H202.894ZM203.673 593.695H205.189V595.334C205.313 595.015 205.617 594.628 206.101 594.173C206.585 593.712 207.144 593.482 207.776 593.482C207.805 593.482 207.855 593.485 207.926 593.491C207.997 593.497 208.118 593.508 208.29 593.526V595.21C208.195 595.192 208.106 595.18 208.024 595.174C207.947 595.168 207.861 595.165 207.767 595.165C206.963 595.165 206.346 595.425 205.915 595.945C205.484 596.459 205.268 597.052 205.268 597.726V603.184H203.673V593.695ZM210.894 600.658C210.894 601.119 211.063 601.482 211.399 601.748C211.736 602.014 212.135 602.147 212.595 602.147C213.157 602.147 213.7 602.017 214.226 601.757C215.112 601.326 215.555 600.62 215.555 599.64V598.355C215.36 598.479 215.109 598.582 214.802 598.665C214.494 598.748 214.193 598.807 213.898 598.842L212.932 598.966C212.353 599.043 211.919 599.164 211.63 599.329C211.139 599.607 210.894 600.05 210.894 600.658ZM214.757 597.433C215.124 597.386 215.369 597.233 215.493 596.973C215.564 596.831 215.599 596.627 215.599 596.361C215.599 595.818 215.404 595.425 215.014 595.183C214.63 594.935 214.078 594.811 213.357 594.811C212.525 594.811 211.934 595.035 211.585 595.484C211.39 595.732 211.264 596.102 211.204 596.592H209.716C209.745 595.422 210.124 594.61 210.85 594.155C211.582 593.695 212.43 593.464 213.393 593.464C214.509 593.464 215.416 593.677 216.113 594.102C216.804 594.527 217.149 595.189 217.149 596.087V601.553C217.149 601.719 217.182 601.852 217.247 601.952C217.318 602.052 217.463 602.103 217.681 602.103C217.752 602.103 217.832 602.1 217.92 602.094C218.009 602.082 218.103 602.067 218.204 602.05V603.228C217.956 603.299 217.767 603.343 217.637 603.361C217.507 603.379 217.33 603.387 217.105 603.387C216.556 603.387 216.157 603.192 215.909 602.803C215.779 602.596 215.688 602.304 215.634 601.925C215.31 602.351 214.843 602.72 214.235 603.033C213.626 603.346 212.956 603.503 212.223 603.503C211.343 603.503 210.623 603.237 210.061 602.705C209.506 602.168 209.229 601.497 209.229 600.694C209.229 599.814 209.503 599.132 210.053 598.647C210.602 598.163 211.323 597.865 212.214 597.752L214.757 597.433ZM223.777 602.112C224.521 602.112 225.138 601.801 225.628 601.181C226.125 600.555 226.373 599.622 226.373 598.381C226.373 597.625 226.263 596.976 226.045 596.432C225.631 595.387 224.875 594.864 223.777 594.864C222.672 594.864 221.916 595.416 221.509 596.521C221.29 597.112 221.181 597.862 221.181 598.771C221.181 599.504 221.29 600.127 221.509 600.641C221.922 601.621 222.678 602.112 223.777 602.112ZM219.648 593.739H221.198V594.997C221.517 594.566 221.866 594.232 222.244 593.996C222.781 593.641 223.413 593.464 224.14 593.464C225.215 593.464 226.128 593.878 226.878 594.705C227.628 595.526 228.003 596.701 228.003 598.231C228.003 600.298 227.463 601.775 226.382 602.661C225.696 603.222 224.899 603.503 223.989 603.503C223.275 603.503 222.675 603.346 222.191 603.033C221.907 602.856 221.591 602.552 221.243 602.12V606.967H219.648V593.739Z" fill="white"/>
<defs>
<filter id="filter0_f_649_12633" x="-86.1872" y="389.366" width="563.259" height="351.564" filterUnits="userSpaceOnUse" color-interpolation-filters="sRGB">
<feFlood flood-opacity="0" result="BackgroundImageFix"/>
<feBlend mode="normal" in="SourceGraphic" in2="BackgroundImageFix" result="shape"/>
<feGaussianBlur stdDeviation="45.3631" result="effect1_foregroundBlur_649_12633"/>
</filter>
<linearGradient id="paint0_linear_649_12633" x1="385.588" y1="565.148" x2="3.78125" y2="565.148" gradientUnits="userSpaceOnUse">
<stop stop-color="#162A60"/>
<stop offset="0.471154" stop-color="#224093"/>
<stop offset="1" stop-color="#162A60"/>
</linearGradient>
<linearGradient id="paint1_linear_649_12633" x1="386.345" y1="565.148" x2="4.53906" y2="565.148" gradientUnits="userSpaceOnUse">
<stop stop-color="#162A60"/>
<stop offset="0.471154" stop-color="#224093"/>
<stop offset="1" stop-color="#162A60"/>
</linearGradient>
<linearGradient id="paint2_linear_649_12633" x1="386.345" y1="565.148" x2="4.53906" y2="565.148" gradientUnits="userSpaceOnUse">
<stop stop-color="#728DD9"/>
<stop offset="0.471154" stop-color="#224093"/>
<stop offset="1" stop-color="#728DD9"/>
</linearGradient>
<radialGradient id="paint3_radial_649_12633" cx="0" cy="0" r="1" gradientUnits="userSpaceOnUse" gradientTransform="translate(192.793 83.5438) rotate(90) scale(110.384 254.731)">
<stop stop-color="#7FA1FF"/>
<stop offset="1" stop-color="#040D26"/>
</radialGradient>
</defs>
</svg>
